<svg width="1024" height="768" viewBox="0 0 1024 768" xmlns="http://www.w3.org/2000/svg">
<rect x="0" y="0" width="1024" height="768" opacity="1" fill="#FFFFFF" stroke="none"/>
<line opacity="0.1" stroke="#000000" stroke-width="1" x1="40" y1="727" x2="40" y2="0"/>
<line opacity="0.1" stroke="#000000" stroke-width="1" x1="50" y1="727" x2="50" y2="0"/>
<line opacity="0.1" stroke="#000000" stroke-width="1" x1="61" y1="727" x2="61" y2="0"/>
<line opacity="0.1" stroke="#000000" stroke-width="1" x1="72" y1="727" x2="72" y2="0"/>
<line opacity="0.1" stroke="#000000" stroke-width="1" x1="83" y1="727" x2="83" y2="0"/>
<line opacity="0.1" stroke="#000000" stroke-width="1" x1="94" y1="727" x2="94" y2="0"/>
<line opacity="0.1" stroke="#000000" stroke-width="1" x1="105" y1="727" x2="105" y2="0"/>
<line opacity="0.1" stroke="#000000" stroke-width="1" x1="116" y1="727" x2="116" y2="0"/>
<line opacity="0.1" stroke="#000000" stroke-width="1" x1="127" y1="727" x2="127" y2="0"/>
<line opacity="0.1" stroke="#000000" stroke-width="1" x1="138" y1="727" x2="138" y2="0"/>
<line opacity="0.1" stroke="#000000" stroke-width="1" x1="149" y1="727" x2="149" y2="0"/>
<line opacity="0.1" stroke="#000000" stroke-width="1" x1="159" y1="727" x2="159" y2="0"/>
<line opacity="0.1" stroke="#000000" stroke-width="1" x1="170" y1="727" x2="170" y2="0"/>
<line opacity="0.1" stroke="#000000" stroke-width="1" x1="181" y1="727" x2="181" y2="0"/>
<line opacity="0.1" stroke="#000000" stroke-width="1" x1="192" y1="727" x2="192" y2="0"/>
<line opacity="0.1" stroke="#000000" stroke-width="1" x1="203" y1="727" x2="203" y2="0"/>
<line opacity="0.1" stroke="#000000" stroke-width="1" x1="214" y1="727" x2="214" y2="0"/>
<line opacity="0.1" stroke="#000000" stroke-width="1" x1="225" y1="727" x2="225" y2="0"/>
<line opacity="0.1" stroke="#000000" stroke-width="1" x1="236" y1="727" x2="236" y2="0"/>
<line opacity="0.1" stroke="#000000" stroke-width="1" x1="247" y1="727" x2="247" y2="0"/>
<line opacity="0.1" stroke="#000000" stroke-width="1" x1="258" y1="727" x2="258" y2="0"/>
<line opacity="0.1" stroke="#000000" stroke-width="1" x1="269" y1="727" x2="269" y2="0"/>
<line opacity="0.1" stroke="#000000" stroke-width="1" x1="279" y1="727" x2="279" y2="0"/>
<line opacity="0.1" stroke="#000000" stroke-width="1" x1="290" y1="727" x2="290" y2="0"/>
<line opacity="0.1" stroke="#000000" stroke-width="1" x1="301" y1="727" x2="301" y2="0"/>
<line opacity="0.1" stroke="#000000" stroke-width="1" x1="312" y1="727" x2="312" y2="0"/>
<line opacity="0.1" stroke="#000000" stroke-width="1" x1="323" y1="727" x2="323" y2="0"/>
<line opacity="0.1" stroke="#000000" stroke-width="1" x1="334" y1="727" x2="334" y2="0"/>
<line opacity="0.1" stroke="#000000" stroke-width="1" x1="345" y1="727" x2="345" y2="0"/>
<line opacity="0.1" stroke="#000000" stroke-width="1" x1="356" y1="727" x2="356" y2="0"/>
<line opacity="0.1" stroke="#000000" stroke-width="1" x1="367" y1="727" x2="367" y2="0"/>
<line opacity="0.1" stroke="#000000" stroke-width="1" x1="378" y1="727" x2="378" y2="0"/>
<line opacity="0.1" stroke="#000000" stroke-width="1" x1="389" y1="727" x2="389" y2="0"/>
<line opacity="0.1" stroke="#000000" stroke-width="1" x1="399" y1="727" x2="399" y2="0"/>
<line opacity="0.1" stroke="#000000" stroke-width="1" x1="410" y1="727" x2="410" y2="0"/>
<line opacity="0.1" stroke="#000000" stroke-width="1" x1="421" y1="727" x2="421" y2="0"/>
<line opacity="0.1" stroke="#000000" stroke-width="1" x1="432" y1="727" x2="432" y2="0"/>
<line opacity="0.1" stroke="#000000" stroke-width="1" x1="443" y1="727" x2="443" y2="0"/>
<line opacity="0.1" stroke="#000000" stroke-width="1" x1="454" y1="727" x2="454" y2="0"/>
<line opacity="0.1" stroke="#000000" stroke-width="1" x1="465" y1="727" x2="465" y2="0"/>
<line opacity="0.1" stroke="#000000" stroke-width="1" x1="476" y1="727" x2="476" y2="0"/>
<line opacity="0.1" stroke="#000000" stroke-width="1" x1="487" y1="727" x2="487" y2="0"/>
<line opacity="0.1" stroke="#000000" stroke-width="1" x1="498" y1="727" x2="498" y2="0"/>
<line opacity="0.1" stroke="#000000" stroke-width="1" x1="508" y1="727" x2="508" y2="0"/>
<line opacity="0.1" stroke="#000000" stroke-width="1" x1="519" y1="727" x2="519" y2="0"/>
<line opacity="0.1" stroke="#000000" stroke-width="1" x1="530" y1="727" x2="530" y2="0"/>
<line opacity="0.1" stroke="#000000" stroke-width="1" x1="541" y1="727" x2="541" y2="0"/>
<line opacity="0.1" stroke="#000000" stroke-width="1" x1="552" y1="727" x2="552" y2="0"/>
<line opacity="0.1" stroke="#000000" stroke-width="1" x1="563" y1="727" x2="563" y2="0"/>
<line opacity="0.1" stroke="#000000" stroke-width="1" x1="574" y1="727" x2="574" y2="0"/>
<line opacity="0.1" stroke="#000000" stroke-width="1" x1="585" y1="727" x2="585" y2="0"/>
<line opacity="0.1" stroke="#000000" stroke-width="1" x1="596" y1="727" x2="596" y2="0"/>
<line opacity="0.1" stroke="#000000" stroke-width="1" x1="607" y1="727" x2="607" y2="0"/>
<line opacity="0.1" stroke="#000000" stroke-width="1" x1="618" y1="727" x2="618" y2="0"/>
<line opacity="0.1" stroke="#000000" stroke-width="1" x1="628" y1="727" x2="628" y2="0"/>
<line opacity="0.1" stroke="#000000" stroke-width="1" x1="639" y1="727" x2="639" y2="0"/>
<line opacity="0.1" stroke="#000000" stroke-width="1" x1="650" y1="727" x2="650" y2="0"/>
<line opacity="0.1" stroke="#000000" stroke-width="1" x1="661" y1="727" x2="661" y2="0"/>
<line opacity="0.1" stroke="#000000" stroke-width="1" x1="672" y1="727" x2="672" y2="0"/>
<line opacity="0.1" stroke="#000000" stroke-width="1" x1="683" y1="727" x2="683" y2="0"/>
<line opacity="0.1" stroke="#000000" stroke-width="1" x1="694" y1="727" x2="694" y2="0"/>
<line opacity="0.1" stroke="#000000" stroke-width="1" x1="705" y1="727" x2="705" y2="0"/>
<line opacity="0.1" stroke="#000000" stroke-width="1" x1="716" y1="727" x2="716" y2="0"/>
<line opacity="0.1" stroke="#000000" stroke-width="1" x1="727" y1="727" x2="727" y2="0"/>
<line opacity="0.1" stroke="#000000" stroke-width="1" x1="738" y1="727" x2="738" y2="0"/>
<line opacity="0.1" stroke="#000000" stroke-width="1" x1="748" y1="727" x2="748" y2="0"/>
<line opacity="0.1" stroke="#000000" stroke-width="1" x1="759" y1="727" x2="759" y2="0"/>
<line opacity="0.1" stroke="#000000" stroke-width="1" x1="770" y1="727" x2="770" y2="0"/>
<line opacity="0.1" stroke="#000000" stroke-width="1" x1="781" y1="727" x2="781" y2="0"/>
<line opacity="0.1" stroke="#000000" stroke-width="1" x1="792" y1="727" x2="792" y2="0"/>
<line opacity="0.1" stroke="#000000" stroke-width="1" x1="803" y1="727" x2="803" y2="0"/>
<line opacity="0.1" stroke="#000000" stroke-width="1" x1="814" y1="727" x2="814" y2="0"/>
<line opacity="0.1" stroke="#000000" stroke-width="1" x1="825" y1="727" x2="825" y2="0"/>
<line opacity="0.1" stroke="#000000" stroke-width="1" x1="836" y1="727" x2="836" y2="0"/>
<line opacity="0.1" stroke="#000000" stroke-width="1" x1="847" y1="727" x2="847" y2="0"/>
<line opacity="0.1" stroke="#000000" stroke-width="1" x1="858" y1="727" x2="858" y2="0"/>
<line opacity="0.1" stroke="#000000" stroke-width="1" x1="868" y1="727" x2="868" y2="0"/>
<line opacity="0.1" stroke="#000000" stroke-width="1" x1="879" y1="727" x2="879" y2="0"/>
<line opacity="0.1" stroke="#000000" stroke-width="1" x1="890" y1="727" x2="890" y2="0"/>
<line opacity="0.1" stroke="#000000" stroke-width="1" x1="901" y1="727" x2="901" y2="0"/>
<line opacity="0.1" stroke="#000000" stroke-width="1" x1="912" y1="727" x2="912" y2="0"/>
<line opacity="0.1" stroke="#000000" stroke-width="1" x1="923" y1="727" x2="923" y2="0"/>
<line opacity="0.1" stroke="#000000" stroke-width="1" x1="934" y1="727" x2="934" y2="0"/>
<line opacity="0.1" stroke="#000000" stroke-width="1" x1="945" y1="727" x2="945" y2="0"/>
<line opacity="0.1" stroke="#000000" stroke-width="1" x1="956" y1="727" x2="956" y2="0"/>
<line opacity="0.1" stroke="#000000" stroke-width="1" x1="967" y1="727" x2="967" y2="0"/>
<line opacity="0.1" stroke="#000000" stroke-width="1" x1="977" y1="727" x2="977" y2="0"/>
<line opacity="0.1" stroke="#000000" stroke-width="1" x1="988" y1="727" x2="988" y2="0"/>
<line opacity="0.1" stroke="#000000" stroke-width="1" x1="999" y1="727" x2="999" y2="0"/>
<line opacity="0.1" stroke="#000000" stroke-width="1" x1="1010" y1="727" x2="1010" y2="0"/>
<line opacity="0.1" stroke="#000000" stroke-width="1" x1="1021" y1="727" x2="1021" y2="0"/>
<line opacity="0.1" stroke="#000000" stroke-width="1" x1="40" y1="727" x2="1023" y2="727"/>
<line opacity="0.1" stroke="#000000" stroke-width="1" x1="40" y1="721" x2="1023" y2="721"/>
<line opacity="0.1" stroke="#000000" stroke-width="1" x1="40" y1="714" x2="1023" y2="714"/>
<line opacity="0.1" stroke="#000000" stroke-width="1" x1="40" y1="707" x2="1023" y2="707"/>
<line opacity="0.1" stroke="#000000" stroke-width="1" x1="40" y1="700" x2="1023" y2="700"/>
<line opacity="0.1" stroke="#000000" stroke-width="1" x1="40" y1="693" x2="1023" y2="693"/>
<line opacity="0.1" stroke="#000000" stroke-width="1" x1="40" y1="686" x2="1023" y2="686"/>
<line opacity="0.1" stroke="#000000" stroke-width="1" x1="40" y1="679" x2="1023" y2="679"/>
<line opacity="0.1" stroke="#000000" stroke-width="1" x1="40" y1="672" x2="1023" y2="672"/>
<line opacity="0.1" stroke="#000000" stroke-width="1" x1="40" y1="665" x2="1023" y2="665"/>
<line opacity="0.1" stroke="#000000" stroke-width="1" x1="40" y1="658" x2="1023" y2="658"/>
<line opacity="0.1" stroke="#000000" stroke-width="1" x1="40" y1="651" x2="1023" y2="651"/>
<line opacity="0.1" stroke="#000000" stroke-width="1" x1="40" y1="644" x2="1023" y2="644"/>
<line opacity="0.1" stroke="#000000" stroke-width="1" x1="40" y1="637" x2="1023" y2="637"/>
<line opacity="0.1" stroke="#000000" stroke-width="1" x1="40" y1="631" x2="1023" y2="631"/>
<line opacity="0.1" stroke="#000000" stroke-width="1" x1="40" y1="624" x2="1023" y2="624"/>
<line opacity="0.1" stroke="#000000" stroke-width="1" x1="40" y1="617" x2="1023" y2="617"/>
<line opacity="0.1" stroke="#000000" stroke-width="1" x1="40" y1="610" x2="1023" y2="610"/>
<line opacity="0.1" stroke="#000000" stroke-width="1" x1="40" y1="603" x2="1023" y2="603"/>
<line opacity="0.1" stroke="#000000" stroke-width="1" x1="40" y1="596" x2="1023" y2="596"/>
<line opacity="0.1" stroke="#000000" stroke-width="1" x1="40" y1="589" x2="1023" y2="589"/>
<line opacity="0.1" stroke="#000000" stroke-width="1" x1="40" y1="582" x2="1023" y2="582"/>
<line opacity="0.1" stroke="#000000" stroke-width="1" x1="40" y1="575" x2="1023" y2="575"/>
<line opacity="0.1" stroke="#000000" stroke-width="1" x1="40" y1="568" x2="1023" y2="568"/>
<line opacity="0.1" stroke="#000000" stroke-width="1" x1="40" y1="561" x2="1023" y2="561"/>
<line opacity="0.1" stroke="#000000" stroke-width="1" x1="40" y1="554" x2="1023" y2="554"/>
<line opacity="0.1" stroke="#000000" stroke-width="1" x1="40" y1="547" x2="1023" y2="547"/>
<line opacity="0.1" stroke="#000000" stroke-width="1" x1="40" y1="541" x2="1023" y2="541"/>
<line opacity="0.1" stroke="#000000" stroke-width="1" x1="40" y1="534" x2="1023" y2="534"/>
<line opacity="0.1" stroke="#000000" stroke-width="1" x1="40" y1="527" x2="1023" y2="527"/>
<line opacity="0.1" stroke="#000000" stroke-width="1" x1="40" y1="520" x2="1023" y2="520"/>
<line opacity="0.1" stroke="#000000" stroke-width="1" x1="40" y1="513" x2="1023" y2="513"/>
<line opacity="0.1" stroke="#000000" stroke-width="1" x1="40" y1="506" x2="1023" y2="506"/>
<line opacity="0.1" stroke="#000000" stroke-width="1" x1="40" y1="499" x2="1023" y2="499"/>
<line opacity="0.1" stroke="#000000" stroke-width="1" x1="40" y1="492" x2="1023" y2="492"/>
<line opacity="0.1" stroke="#000000" stroke-width="1" x1="40" y1="485" x2="1023" y2="485"/>
<line opacity="0.1" stroke="#000000" stroke-width="1" x1="40" y1="478" x2="1023" y2="478"/>
<line opacity="0.1" stroke="#000000" stroke-width="1" x1="40" y1="471" x2="1023" y2="471"/>
<line opacity="0.1" stroke="#000000" stroke-width="1" x1="40" y1="464" x2="1023" y2="464"/>
<line opacity="0.1" stroke="#000000" stroke-width="1" x1="40" y1="457" x2="1023" y2="457"/>
<line opacity="0.1" stroke="#000000" stroke-width="1" x1="40" y1="451" x2="1023" y2="451"/>
<line opacity="0.1" stroke="#000000" stroke-width="1" x1="40" y1="444" x2="1023" y2="444"/>
<line opacity="0.1" stroke="#000000" stroke-width="1" x1="40" y1="437" x2="1023" y2="437"/>
<line opacity="0.1" stroke="#000000" stroke-width="1" x1="40" y1="430" x2="1023" y2="430"/>
<line opacity="0.1" stroke="#000000" stroke-width="1" x1="40" y1="423" x2="1023" y2="423"/>
<line opacity="0.1" stroke="#000000" stroke-width="1" x1="40" y1="416" x2="1023" y2="416"/>
<line opacity="0.1" stroke="#000000" stroke-width="1" x1="40" y1="409" x2="1023" y2="409"/>
<line opacity="0.1" stroke="#000000" stroke-width="1" x1="40" y1="402" x2="1023" y2="402"/>
<line opacity="0.1" stroke="#000000" stroke-width="1" x1="40" y1="395" x2="1023" y2="395"/>
<line opacity="0.1" stroke="#000000" stroke-width="1" x1="40" y1="388" x2="1023" y2="388"/>
<line opacity="0.1" stroke="#000000" stroke-width="1" x1="40" y1="381" x2="1023" y2="381"/>
<line opacity="0.1" stroke="#000000" stroke-width="1" x1="40" y1="374" x2="1023" y2="374"/>
<line opacity="0.1" stroke="#000000" stroke-width="1" x1="40" y1="367" x2="1023" y2="367"/>
<line opacity="0.1" stroke="#000000" stroke-width="1" x1="40" y1="361" x2="1023" y2="361"/>
<line opacity="0.1" stroke="#000000" stroke-width="1" x1="40" y1="354" x2="1023" y2="354"/>
<line opacity="0.1" stroke="#000000" stroke-width="1" x1="40" y1="347" x2="1023" y2="347"/>
<line opacity="0.1" stroke="#000000" stroke-width="1" x1="40" y1="340" x2="1023" y2="340"/>
<line opacity="0.1" stroke="#000000" stroke-width="1" x1="40" y1="333" x2="1023" y2="333"/>
<line opacity="0.1" stroke="#000000" stroke-width="1" x1="40" y1="326" x2="1023" y2="326"/>
<line opacity="0.1" stroke="#000000" stroke-width="1" x1="40" y1="319" x2="1023" y2="319"/>
<line opacity="0.1" stroke="#000000" stroke-width="1" x1="40" y1="312" x2="1023" y2="312"/>
<line opacity="0.1" stroke="#000000" stroke-width="1" x1="40" y1="305" x2="1023" y2="305"/>
<line opacity="0.1" stroke="#000000" stroke-width="1" x1="40" y1="298" x2="1023" y2="298"/>
<line opacity="0.1" stroke="#000000" stroke-width="1" x1="40" y1="291" x2="1023" y2="291"/>
<line opacity="0.1" stroke="#000000" stroke-width="1" x1="40" y1="284" x2="1023" y2="284"/>
<line opacity="0.1" stroke="#000000" stroke-width="1" x1="40" y1="277" x2="1023" y2="277"/>
<line opacity="0.1" stroke="#000000" stroke-width="1" x1="40" y1="271" x2="1023" y2="271"/>
<line opacity="0.1" stroke="#000000" stroke-width="1" x1="40" y1="264" x2="1023" y2="264"/>
<line opacity="0.1" stroke="#000000" stroke-width="1" x1="40" y1="257" x2="1023" y2="257"/>
<line opacity="0.1" stroke="#000000" stroke-width="1" x1="40" y1="250" x2="1023" y2="250"/>
<line opacity="0.1" stroke="#000000" stroke-width="1" x1="40" y1="243" x2="1023" y2="243"/>
<line opacity="0.1" stroke="#000000" stroke-width="1" x1="40" y1="236" x2="1023" y2="236"/>
<line opacity="0.1" stroke="#000000" stroke-width="1" x1="40" y1="229" x2="1023" y2="229"/>
<line opacity="0.1" stroke="#000000" stroke-width="1" x1="40" y1="222" x2="1023" y2="222"/>
<line opacity="0.1" stroke="#000000" stroke-width="1" x1="40" y1="215" x2="1023" y2="215"/>
<line opacity="0.1" stroke="#000000" stroke-width="1" x1="40" y1="208" x2="1023" y2="208"/>
<line opacity="0.1" stroke="#000000" stroke-width="1" x1="40" y1="201" x2="1023" y2="201"/>
<line opacity="0.1" stroke="#000000" stroke-width="1" x1="40" y1="194" x2="1023" y2="194"/>
<line opacity="0.1" stroke="#000000" stroke-width="1" x1="40" y1="187" x2="1023" y2="187"/>
<line opacity="0.1" stroke="#000000" stroke-width="1" x1="40" y1="181" x2="1023" y2="181"/>
<line opacity="0.1" stroke="#000000" stroke-width="1" x1="40" y1="174" x2="1023" y2="174"/>
<line opacity="0.1" stroke="#000000" stroke-width="1" x1="40" y1="167" x2="1023" y2="167"/>
<line opacity="0.1" stroke="#000000" stroke-width="1" x1="40" y1="160" x2="1023" y2="160"/>
<line opacity="0.1" stroke="#000000" stroke-width="1" x1="40" y1="153" x2="1023" y2="153"/>
<line opacity="0.1" stroke="#000000" stroke-width="1" x1="40" y1="146" x2="1023" y2="146"/>
<line opacity="0.1" stroke="#000000" stroke-width="1" x1="40" y1="139" x2="1023" y2="139"/>
<line opacity="0.1" stroke="#000000" stroke-width="1" x1="40" y1="132" x2="1023" y2="132"/>
<line opacity="0.1" stroke="#000000" stroke-width="1" x1="40" y1="125" x2="1023" y2="125"/>
<line opacity="0.1" stroke="#000000" stroke-width="1" x1="40" y1="118" x2="1023" y2="118"/>
<line opacity="0.1" stroke="#000000" stroke-width="1" x1="40" y1="111" x2="1023" y2="111"/>
<line opacity="0.1" stroke="#000000" stroke-width="1" x1="40" y1="104" x2="1023" y2="104"/>
<line opacity="0.1" stroke="#000000" stroke-width="1" x1="40" y1="97" x2="1023" y2="97"/>
<line opacity="0.1" stroke="#000000" stroke-width="1" x1="40" y1="91" x2="1023" y2="91"/>
<line opacity="0.1" stroke="#000000" stroke-width="1" x1="40" y1="84" x2="1023" y2="84"/>
<line opacity="0.1" stroke="#000000" stroke-width="1" x1="40" y1="77" x2="1023" y2="77"/>
<line opacity="0.1" stroke="#000000" stroke-width="1" x1="40" y1="70" x2="1023" y2="70"/>
<line opacity="0.1" stroke="#000000" stroke-width="1" x1="40" y1="63" x2="1023" y2="63"/>
<line opacity="0.1" stroke="#000000" stroke-width="1" x1="40" y1="56" x2="1023" y2="56"/>
<line opacity="0.1" stroke="#000000" stroke-width="1" x1="40" y1="49" x2="1023" y2="49"/>
<line opacity="0.1" stroke="#000000" stroke-width="1" x1="40" y1="42" x2="1023" y2="42"/>
<line opacity="0.1" stroke="#000000" stroke-width="1" x1="40" y1="35" x2="1023" y2="35"/>
<line opacity="0.1" stroke="#000000" stroke-width="1" x1="40" y1="28" x2="1023" y2="28"/>
<line opacity="0.1" stroke="#000000" stroke-width="1" x1="40" y1="21" x2="1023" y2="21"/>
<line opacity="0.1" stroke="#000000" stroke-width="1" x1="40" y1="14" x2="1023" y2="14"/>
<line opacity="0.1" stroke="#000000" stroke-width="1" x1="40" y1="7" x2="1023" y2="7"/>
<line opacity="0.2" stroke="#000000" stroke-width="1" x1="40" y1="727" x2="40" y2="0"/>
<line opacity="0.2" stroke="#000000" stroke-width="1" x1="149" y1="727" x2="149" y2="0"/>
<line opacity="0.2" stroke="#000000" stroke-width="1" x1="258" y1="727" x2="258" y2="0"/>
<line opacity="0.2" stroke="#000000" stroke-width="1" x1="367" y1="727" x2="367" y2="0"/>
<line opacity="0.2" stroke="#000000" stroke-width="1" x1="476" y1="727" x2="476" y2="0"/>
<line opacity="0.2" stroke="#000000" stroke-width="1" x1="585" y1="727" x2="585" y2="0"/>
<line opacity="0.2" stroke="#000000" stroke-width="1" x1="694" y1="727" x2="694" y2="0"/>
<line opacity="0.2" stroke="#000000" stroke-width="1" x1="803" y1="727" x2="803" y2="0"/>
<line opacity="0.2" stroke="#000000" stroke-width="1" x1="912" y1="727" x2="912" y2="0"/>
<line opacity="0.2" stroke="#000000" stroke-width="1" x1="1021" y1="727" x2="1021" y2="0"/>
<line opacity="0.2" stroke="#000000" stroke-width="1" x1="40" y1="727" x2="1023" y2="727"/>
<line opacity="0.2" stroke="#000000" stroke-width="1" x1="40" y1="658" x2="1023" y2="658"/>
<line opacity="0.2" stroke="#000000" stroke-width="1" x1="40" y1="589" x2="1023" y2="589"/>
<line opacity="0.2" stroke="#000000" stroke-width="1" x1="40" y1="520" x2="1023" y2="520"/>
<line opacity="0.2" stroke="#000000" stroke-width="1" x1="40" y1="451" x2="1023" y2="451"/>
<line opacity="0.2" stroke="#000000" stroke-width="1" x1="40" y1="381" x2="1023" y2="381"/>
<line opacity="0.2" stroke="#000000" stroke-width="1" x1="40" y1="312" x2="1023" y2="312"/>
<line opacity="0.2" stroke="#000000" stroke-width="1" x1="40" y1="243" x2="1023" y2="243"/>
<line opacity="0.2" stroke="#000000" stroke-width="1" x1="40" y1="174" x2="1023" y2="174"/>
<line opacity="0.2" stroke="#000000" stroke-width="1" x1="40" y1="104" x2="1023" y2="104"/>
<line opacity="0.2" stroke="#000000" stroke-width="1" x1="40" y1="35" x2="1023" y2="35"/>
<polyline fill="none" opacity="1" stroke="#000000" stroke-width="1" points="39,0 39,727 "/>
<text x="30" y="727" dy="0.5ex" text-anchor="end" font-family="sans-serif" font-size="9.67741935483871" opacity="1" fill="#000000">
0.0
</text>
<polyline fill="none" opacity="1" stroke="#000000" stroke-width="1" points="34,727 39,727 "/>
<text x="30" y="658" dy="0.5ex" text-anchor="end" font-family="sans-serif" font-size="9.67741935483871" opacity="1" fill="#000000">
0.1
</text>
<polyline fill="none" opacity="1" stroke="#000000" stroke-width="1" points="34,658 39,658 "/>
<text x="30" y="589" dy="0.5ex" text-anchor="end" font-family="sans-serif" font-size="9.67741935483871" opacity="1" fill="#000000">
0.2
</text>
<polyline fill="none" opacity="1" stroke="#000000" stroke-width="1" points="34,589 39,589 "/>
<text x="30" y="520" dy="0.5ex" text-anchor="end" font-family="sans-serif" font-size="9.67741935483871" opacity="1" fill="#000000">
0.3
</text>
<polyline fill="none" opacity="1" stroke="#000000" stroke-width="1" points="34,520 39,520 "/>
<text x="30" y="451" dy="0.5ex" text-anchor="end" font-family="sans-serif" font-size="9.67741935483871" opacity="1" fill="#000000">
0.4
</text>
<polyline fill="none" opacity="1" stroke="#000000" stroke-width="1" points="34,451 39,451 "/>
<text x="30" y="381" dy="0.5ex" text-anchor="end" font-family="sans-serif" font-size="9.67741935483871" opacity="1" fill="#000000">
0.5
</text>
<polyline fill="none" opacity="1" stroke="#000000" stroke-width="1" points="34,381 39,381 "/>
<text x="30" y="312" dy="0.5ex" text-anchor="end" font-family="sans-serif" font-size="9.67741935483871" opacity="1" fill="#000000">
0.6
</text>
<polyline fill="none" opacity="1" stroke="#000000" stroke-width="1" points="34,312 39,312 "/>
<text x="30" y="243" dy="0.5ex" text-anchor="end" font-family="sans-serif" font-size="9.67741935483871" opacity="1" fill="#000000">
0.7
</text>
<polyline fill="none" opacity="1" stroke="#000000" stroke-width="1" points="34,243 39,243 "/>
<text x="30" y="174" dy="0.5ex" text-anchor="end" font-family="sans-serif" font-size="9.67741935483871" opacity="1" fill="#000000">
0.8
</text>
<polyline fill="none" opacity="1" stroke="#000000" stroke-width="1" points="34,174 39,174 "/>
<text x="30" y="104" dy="0.5ex" text-anchor="end" font-family="sans-serif" font-size="9.67741935483871" opacity="1" fill="#000000">
0.9
</text>
<polyline fill="none" opacity="1" stroke="#000000" stroke-width="1" points="34,104 39,104 "/>
<text x="30" y="35" dy="0.5ex" text-anchor="end" font-family="sans-serif" font-size="9.67741935483871" opacity="1" fill="#000000">
1.0
</text>
<polyline fill="none" opacity="1" stroke="#000000" stroke-width="1" points="34,35 39,35 "/>
<polyline fill="none" opacity="1" stroke="#000000" stroke-width="1" points="40,728 1023,728 "/>
<text x="40" y="738" dy="0.76em" text-anchor="middle" font-family="sans-serif" font-size="9.67741935483871" opacity="1" fill="#000000">
0.0
</text>
<polyline fill="none" opacity="1" stroke="#000000" stroke-width="1" points="40,728 40,733 "/>
<text x="149" y="738" dy="0.76em" text-anchor="middle" font-family="sans-serif" font-size="9.67741935483871" opacity="1" fill="#000000">
5000.0
</text>
<polyline fill="none" opacity="1" stroke="#000000" stroke-width="1" points="149,728 149,733 "/>
<text x="258" y="738" dy="0.76em" text-anchor="middle" font-family="sans-serif" font-size="9.67741935483871" opacity="1" fill="#000000">
10000.0
</text>
<polyline fill="none" opacity="1" stroke="#000000" stroke-width="1" points="258,728 258,733 "/>
<text x="367" y="738" dy="0.76em" text-anchor="middle" font-family="sans-serif" font-size="9.67741935483871" opacity="1" fill="#000000">
15000.0
</text>
<polyline fill="none" opacity="1" stroke="#000000" stroke-width="1" points="367,728 367,733 "/>
<text x="476" y="738" dy="0.76em" text-anchor="middle" font-family="sans-serif" font-size="9.67741935483871" opacity="1" fill="#000000">
20000.0
</text>
<polyline fill="none" opacity="1" stroke="#000000" stroke-width="1" points="476,728 476,733 "/>
<text x="585" y="738" dy="0.76em" text-anchor="middle" font-family="sans-serif" font-size="9.67741935483871" opacity="1" fill="#000000">
25000.0
</text>
<polyline fill="none" opacity="1" stroke="#000000" stroke-width="1" points="585,728 585,733 "/>
<text x="694" y="738" dy="0.76em" text-anchor="middle" font-family="sans-serif" font-size="9.67741935483871" opacity="1" fill="#000000">
30000.0
</text>
<polyline fill="none" opacity="1" stroke="#000000" stroke-width="1" points="694,728 694,733 "/>
<text x="803" y="738" dy="0.76em" text-anchor="middle" font-family="sans-serif" font-size="9.67741935483871" opacity="1" fill="#000000">
35000.0
</text>
<polyline fill="none" opacity="1" stroke="#000000" stroke-width="1" points="803,728 803,733 "/>
<text x="912" y="738" dy="0.76em" text-anchor="middle" font-family="sans-serif" font-size="9.67741935483871" opacity="1" fill="#000000">
40000.0
</text>
<polyline fill="none" opacity="1" stroke="#000000" stroke-width="1" points="912,728 912,733 "/>
<text x="1021" y="738" dy="0.76em" text-anchor="middle" font-family="sans-serif" font-size="9.67741935483871" opacity="1" fill="#000000">
45000.0
</text>
<polyline fill="none" opacity="1" stroke="#000000" stroke-width="1" points="1021,728 1021,733 "/>
<polyline fill="none" opacity="1" stroke="#000000" stroke-width="2" points="40,727 40,724 41,721 41,717 42,714 42,710 43,707 44,703 44,700 44,696 44,693 44,689 48,686 48,682 48,679 49,676 49,672 50,669 51,665 51,662 51,658 51,655 52,651 52,648 52,644 53,641 53,637 53,634 53,631 53,627 54,624 54,620 55,617 55,613 55,610 55,606 56,603 56,599 56,596 56,592 57,589 57,586 58,582 58,579 58,575 58,572 59,568 59,565 59,561 59,558 60,554 60,551 60,547 61,544 61,541 63,537 63,534 64,530 64,527 64,523 64,520 64,516 65,513 66,509 66,506 66,502 66,499 67,496 67,492 67,489 68,485 69,482 69,478 69,475 70,471 70,468 71,464 71,461 73,457 73,454 73,451 73,447 74,444 74,440 74,437 74,433 74,430 75,426 75,423 75,419 77,416 77,412 77,409 78,406 78,402 79,399 79,395 80,392 81,388 81,385 82,381 83,378 83,374 84,371 85,367 86,364 86,361 86,357 87,354 88,350 88,347 90,343 91,340 91,336 92,333 93,329 94,326 94,322 98,319 99,316 99,312 100,309 101,305 102,302 102,298 103,295 103,291 105,288 105,284 107,281 107,277 107,274 108,271 111,267 111,264 112,260 112,257 113,253 114,250 114,246 114,243 116,239 117,236 118,232 118,229 118,226 120,222 121,219 123,215 123,212 124,208 125,205 127,201 127,198 132,194 133,191 134,187 135,184 135,181 136,177 137,174 137,170 138,167 140,163 140,160 140,156 140,153 144,149 145,146 151,142 153,139 154,136 154,132 158,129 159,125 162,122 165,118 169,115 171,111 172,108 174,104 177,101 184,97 185,94 190,91 203,87 205,84 205,80 220,77 230,73 247,70 263,66 265,63 272,59 302,56 384,52 446,49 452,46 567,42 1022,39 "/>
</svg>
