<svg width="1024" height="768" viewBox="0 0 1024 768" xmlns="http://www.w3.org/2000/svg">
<rect x="0" y="0" width="1024" height="768" opacity="1" fill="#FFFFFF" stroke="none"/>
<line opacity="0.1" stroke="#000000" stroke-width="1" x1="40" y1="727" x2="40" y2="0"/>
<line opacity="0.1" stroke="#000000" stroke-width="1" x1="58" y1="727" x2="58" y2="0"/>
<line opacity="0.1" stroke="#000000" stroke-width="1" x1="77" y1="727" x2="77" y2="0"/>
<line opacity="0.1" stroke="#000000" stroke-width="1" x1="96" y1="727" x2="96" y2="0"/>
<line opacity="0.1" stroke="#000000" stroke-width="1" x1="115" y1="727" x2="115" y2="0"/>
<line opacity="0.1" stroke="#000000" stroke-width="1" x1="134" y1="727" x2="134" y2="0"/>
<line opacity="0.1" stroke="#000000" stroke-width="1" x1="153" y1="727" x2="153" y2="0"/>
<line opacity="0.1" stroke="#000000" stroke-width="1" x1="172" y1="727" x2="172" y2="0"/>
<line opacity="0.1" stroke="#000000" stroke-width="1" x1="191" y1="727" x2="191" y2="0"/>
<line opacity="0.1" stroke="#000000" stroke-width="1" x1="210" y1="727" x2="210" y2="0"/>
<line opacity="0.1" stroke="#000000" stroke-width="1" x1="229" y1="727" x2="229" y2="0"/>
<line opacity="0.1" stroke="#000000" stroke-width="1" x1="248" y1="727" x2="248" y2="0"/>
<line opacity="0.1" stroke="#000000" stroke-width="1" x1="267" y1="727" x2="267" y2="0"/>
<line opacity="0.1" stroke="#000000" stroke-width="1" x1="286" y1="727" x2="286" y2="0"/>
<line opacity="0.1" stroke="#000000" stroke-width="1" x1="305" y1="727" x2="305" y2="0"/>
<line opacity="0.1" stroke="#000000" stroke-width="1" x1="324" y1="727" x2="324" y2="0"/>
<line opacity="0.1" stroke="#000000" stroke-width="1" x1="343" y1="727" x2="343" y2="0"/>
<line opacity="0.1" stroke="#000000" stroke-width="1" x1="362" y1="727" x2="362" y2="0"/>
<line opacity="0.1" stroke="#000000" stroke-width="1" x1="381" y1="727" x2="381" y2="0"/>
<line opacity="0.1" stroke="#000000" stroke-width="1" x1="400" y1="727" x2="400" y2="0"/>
<line opacity="0.1" stroke="#000000" stroke-width="1" x1="419" y1="727" x2="419" y2="0"/>
<line opacity="0.1" stroke="#000000" stroke-width="1" x1="438" y1="727" x2="438" y2="0"/>
<line opacity="0.1" stroke="#000000" stroke-width="1" x1="457" y1="727" x2="457" y2="0"/>
<line opacity="0.1" stroke="#000000" stroke-width="1" x1="476" y1="727" x2="476" y2="0"/>
<line opacity="0.1" stroke="#000000" stroke-width="1" x1="495" y1="727" x2="495" y2="0"/>
<line opacity="0.1" stroke="#000000" stroke-width="1" x1="514" y1="727" x2="514" y2="0"/>
<line opacity="0.1" stroke="#000000" stroke-width="1" x1="533" y1="727" x2="533" y2="0"/>
<line opacity="0.1" stroke="#000000" stroke-width="1" x1="552" y1="727" x2="552" y2="0"/>
<line opacity="0.1" stroke="#000000" stroke-width="1" x1="571" y1="727" x2="571" y2="0"/>
<line opacity="0.1" stroke="#000000" stroke-width="1" x1="590" y1="727" x2="590" y2="0"/>
<line opacity="0.1" stroke="#000000" stroke-width="1" x1="609" y1="727" x2="609" y2="0"/>
<line opacity="0.1" stroke="#000000" stroke-width="1" x1="628" y1="727" x2="628" y2="0"/>
<line opacity="0.1" stroke="#000000" stroke-width="1" x1="647" y1="727" x2="647" y2="0"/>
<line opacity="0.1" stroke="#000000" stroke-width="1" x1="666" y1="727" x2="666" y2="0"/>
<line opacity="0.1" stroke="#000000" stroke-width="1" x1="685" y1="727" x2="685" y2="0"/>
<line opacity="0.1" stroke="#000000" stroke-width="1" x1="704" y1="727" x2="704" y2="0"/>
<line opacity="0.1" stroke="#000000" stroke-width="1" x1="723" y1="727" x2="723" y2="0"/>
<line opacity="0.1" stroke="#000000" stroke-width="1" x1="742" y1="727" x2="742" y2="0"/>
<line opacity="0.1" stroke="#000000" stroke-width="1" x1="761" y1="727" x2="761" y2="0"/>
<line opacity="0.1" stroke="#000000" stroke-width="1" x1="780" y1="727" x2="780" y2="0"/>
<line opacity="0.1" stroke="#000000" stroke-width="1" x1="799" y1="727" x2="799" y2="0"/>
<line opacity="0.1" stroke="#000000" stroke-width="1" x1="818" y1="727" x2="818" y2="0"/>
<line opacity="0.1" stroke="#000000" stroke-width="1" x1="837" y1="727" x2="837" y2="0"/>
<line opacity="0.1" stroke="#000000" stroke-width="1" x1="856" y1="727" x2="856" y2="0"/>
<line opacity="0.1" stroke="#000000" stroke-width="1" x1="875" y1="727" x2="875" y2="0"/>
<line opacity="0.1" stroke="#000000" stroke-width="1" x1="894" y1="727" x2="894" y2="0"/>
<line opacity="0.1" stroke="#000000" stroke-width="1" x1="913" y1="727" x2="913" y2="0"/>
<line opacity="0.1" stroke="#000000" stroke-width="1" x1="932" y1="727" x2="932" y2="0"/>
<line opacity="0.1" stroke="#000000" stroke-width="1" x1="951" y1="727" x2="951" y2="0"/>
<line opacity="0.1" stroke="#000000" stroke-width="1" x1="970" y1="727" x2="970" y2="0"/>
<line opacity="0.1" stroke="#000000" stroke-width="1" x1="989" y1="727" x2="989" y2="0"/>
<line opacity="0.1" stroke="#000000" stroke-width="1" x1="1008" y1="727" x2="1008" y2="0"/>
<line opacity="0.1" stroke="#000000" stroke-width="1" x1="40" y1="727" x2="1023" y2="727"/>
<line opacity="0.1" stroke="#000000" stroke-width="1" x1="40" y1="721" x2="1023" y2="721"/>
<line opacity="0.1" stroke="#000000" stroke-width="1" x1="40" y1="714" x2="1023" y2="714"/>
<line opacity="0.1" stroke="#000000" stroke-width="1" x1="40" y1="707" x2="1023" y2="707"/>
<line opacity="0.1" stroke="#000000" stroke-width="1" x1="40" y1="700" x2="1023" y2="700"/>
<line opacity="0.1" stroke="#000000" stroke-width="1" x1="40" y1="693" x2="1023" y2="693"/>
<line opacity="0.1" stroke="#000000" stroke-width="1" x1="40" y1="686" x2="1023" y2="686"/>
<line opacity="0.1" stroke="#000000" stroke-width="1" x1="40" y1="679" x2="1023" y2="679"/>
<line opacity="0.1" stroke="#000000" stroke-width="1" x1="40" y1="672" x2="1023" y2="672"/>
<line opacity="0.1" stroke="#000000" stroke-width="1" x1="40" y1="665" x2="1023" y2="665"/>
<line opacity="0.1" stroke="#000000" stroke-width="1" x1="40" y1="658" x2="1023" y2="658"/>
<line opacity="0.1" stroke="#000000" stroke-width="1" x1="40" y1="651" x2="1023" y2="651"/>
<line opacity="0.1" stroke="#000000" stroke-width="1" x1="40" y1="644" x2="1023" y2="644"/>
<line opacity="0.1" stroke="#000000" stroke-width="1" x1="40" y1="637" x2="1023" y2="637"/>
<line opacity="0.1" stroke="#000000" stroke-width="1" x1="40" y1="631" x2="1023" y2="631"/>
<line opacity="0.1" stroke="#000000" stroke-width="1" x1="40" y1="624" x2="1023" y2="624"/>
<line opacity="0.1" stroke="#000000" stroke-width="1" x1="40" y1="617" x2="1023" y2="617"/>
<line opacity="0.1" stroke="#000000" stroke-width="1" x1="40" y1="610" x2="1023" y2="610"/>
<line opacity="0.1" stroke="#000000" stroke-width="1" x1="40" y1="603" x2="1023" y2="603"/>
<line opacity="0.1" stroke="#000000" stroke-width="1" x1="40" y1="596" x2="1023" y2="596"/>
<line opacity="0.1" stroke="#000000" stroke-width="1" x1="40" y1="589" x2="1023" y2="589"/>
<line opacity="0.1" stroke="#000000" stroke-width="1" x1="40" y1="582" x2="1023" y2="582"/>
<line opacity="0.1" stroke="#000000" stroke-width="1" x1="40" y1="575" x2="1023" y2="575"/>
<line opacity="0.1" stroke="#000000" stroke-width="1" x1="40" y1="568" x2="1023" y2="568"/>
<line opacity="0.1" stroke="#000000" stroke-width="1" x1="40" y1="561" x2="1023" y2="561"/>
<line opacity="0.1" stroke="#000000" stroke-width="1" x1="40" y1="554" x2="1023" y2="554"/>
<line opacity="0.1" stroke="#000000" stroke-width="1" x1="40" y1="547" x2="1023" y2="547"/>
<line opacity="0.1" stroke="#000000" stroke-width="1" x1="40" y1="541" x2="1023" y2="541"/>
<line opacity="0.1" stroke="#000000" stroke-width="1" x1="40" y1="534" x2="1023" y2="534"/>
<line opacity="0.1" stroke="#000000" stroke-width="1" x1="40" y1="527" x2="1023" y2="527"/>
<line opacity="0.1" stroke="#000000" stroke-width="1" x1="40" y1="520" x2="1023" y2="520"/>
<line opacity="0.1" stroke="#000000" stroke-width="1" x1="40" y1="513" x2="1023" y2="513"/>
<line opacity="0.1" stroke="#000000" stroke-width="1" x1="40" y1="506" x2="1023" y2="506"/>
<line opacity="0.1" stroke="#000000" stroke-width="1" x1="40" y1="499" x2="1023" y2="499"/>
<line opacity="0.1" stroke="#000000" stroke-width="1" x1="40" y1="492" x2="1023" y2="492"/>
<line opacity="0.1" stroke="#000000" stroke-width="1" x1="40" y1="485" x2="1023" y2="485"/>
<line opacity="0.1" stroke="#000000" stroke-width="1" x1="40" y1="478" x2="1023" y2="478"/>
<line opacity="0.1" stroke="#000000" stroke-width="1" x1="40" y1="471" x2="1023" y2="471"/>
<line opacity="0.1" stroke="#000000" stroke-width="1" x1="40" y1="464" x2="1023" y2="464"/>
<line opacity="0.1" stroke="#000000" stroke-width="1" x1="40" y1="457" x2="1023" y2="457"/>
<line opacity="0.1" stroke="#000000" stroke-width="1" x1="40" y1="451" x2="1023" y2="451"/>
<line opacity="0.1" stroke="#000000" stroke-width="1" x1="40" y1="444" x2="1023" y2="444"/>
<line opacity="0.1" stroke="#000000" stroke-width="1" x1="40" y1="437" x2="1023" y2="437"/>
<line opacity="0.1" stroke="#000000" stroke-width="1" x1="40" y1="430" x2="1023" y2="430"/>
<line opacity="0.1" stroke="#000000" stroke-width="1" x1="40" y1="423" x2="1023" y2="423"/>
<line opacity="0.1" stroke="#000000" stroke-width="1" x1="40" y1="416" x2="1023" y2="416"/>
<line opacity="0.1" stroke="#000000" stroke-width="1" x1="40" y1="409" x2="1023" y2="409"/>
<line opacity="0.1" stroke="#000000" stroke-width="1" x1="40" y1="402" x2="1023" y2="402"/>
<line opacity="0.1" stroke="#000000" stroke-width="1" x1="40" y1="395" x2="1023" y2="395"/>
<line opacity="0.1" stroke="#000000" stroke-width="1" x1="40" y1="388" x2="1023" y2="388"/>
<line opacity="0.1" stroke="#000000" stroke-width="1" x1="40" y1="381" x2="1023" y2="381"/>
<line opacity="0.1" stroke="#000000" stroke-width="1" x1="40" y1="374" x2="1023" y2="374"/>
<line opacity="0.1" stroke="#000000" stroke-width="1" x1="40" y1="367" x2="1023" y2="367"/>
<line opacity="0.1" stroke="#000000" stroke-width="1" x1="40" y1="361" x2="1023" y2="361"/>
<line opacity="0.1" stroke="#000000" stroke-width="1" x1="40" y1="354" x2="1023" y2="354"/>
<line opacity="0.1" stroke="#000000" stroke-width="1" x1="40" y1="347" x2="1023" y2="347"/>
<line opacity="0.1" stroke="#000000" stroke-width="1" x1="40" y1="340" x2="1023" y2="340"/>
<line opacity="0.1" stroke="#000000" stroke-width="1" x1="40" y1="333" x2="1023" y2="333"/>
<line opacity="0.1" stroke="#000000" stroke-width="1" x1="40" y1="326" x2="1023" y2="326"/>
<line opacity="0.1" stroke="#000000" stroke-width="1" x1="40" y1="319" x2="1023" y2="319"/>
<line opacity="0.1" stroke="#000000" stroke-width="1" x1="40" y1="312" x2="1023" y2="312"/>
<line opacity="0.1" stroke="#000000" stroke-width="1" x1="40" y1="305" x2="1023" y2="305"/>
<line opacity="0.1" stroke="#000000" stroke-width="1" x1="40" y1="298" x2="1023" y2="298"/>
<line opacity="0.1" stroke="#000000" stroke-width="1" x1="40" y1="291" x2="1023" y2="291"/>
<line opacity="0.1" stroke="#000000" stroke-width="1" x1="40" y1="284" x2="1023" y2="284"/>
<line opacity="0.1" stroke="#000000" stroke-width="1" x1="40" y1="277" x2="1023" y2="277"/>
<line opacity="0.1" stroke="#000000" stroke-width="1" x1="40" y1="271" x2="1023" y2="271"/>
<line opacity="0.1" stroke="#000000" stroke-width="1" x1="40" y1="264" x2="1023" y2="264"/>
<line opacity="0.1" stroke="#000000" stroke-width="1" x1="40" y1="257" x2="1023" y2="257"/>
<line opacity="0.1" stroke="#000000" stroke-width="1" x1="40" y1="250" x2="1023" y2="250"/>
<line opacity="0.1" stroke="#000000" stroke-width="1" x1="40" y1="243" x2="1023" y2="243"/>
<line opacity="0.1" stroke="#000000" stroke-width="1" x1="40" y1="236" x2="1023" y2="236"/>
<line opacity="0.1" stroke="#000000" stroke-width="1" x1="40" y1="229" x2="1023" y2="229"/>
<line opacity="0.1" stroke="#000000" stroke-width="1" x1="40" y1="222" x2="1023" y2="222"/>
<line opacity="0.1" stroke="#000000" stroke-width="1" x1="40" y1="215" x2="1023" y2="215"/>
<line opacity="0.1" stroke="#000000" stroke-width="1" x1="40" y1="208" x2="1023" y2="208"/>
<line opacity="0.1" stroke="#000000" stroke-width="1" x1="40" y1="201" x2="1023" y2="201"/>
<line opacity="0.1" stroke="#000000" stroke-width="1" x1="40" y1="194" x2="1023" y2="194"/>
<line opacity="0.1" stroke="#000000" stroke-width="1" x1="40" y1="187" x2="1023" y2="187"/>
<line opacity="0.1" stroke="#000000" stroke-width="1" x1="40" y1="181" x2="1023" y2="181"/>
<line opacity="0.1" stroke="#000000" stroke-width="1" x1="40" y1="174" x2="1023" y2="174"/>
<line opacity="0.1" stroke="#000000" stroke-width="1" x1="40" y1="167" x2="1023" y2="167"/>
<line opacity="0.1" stroke="#000000" stroke-width="1" x1="40" y1="160" x2="1023" y2="160"/>
<line opacity="0.1" stroke="#000000" stroke-width="1" x1="40" y1="153" x2="1023" y2="153"/>
<line opacity="0.1" stroke="#000000" stroke-width="1" x1="40" y1="146" x2="1023" y2="146"/>
<line opacity="0.1" stroke="#000000" stroke-width="1" x1="40" y1="139" x2="1023" y2="139"/>
<line opacity="0.1" stroke="#000000" stroke-width="1" x1="40" y1="132" x2="1023" y2="132"/>
<line opacity="0.1" stroke="#000000" stroke-width="1" x1="40" y1="125" x2="1023" y2="125"/>
<line opacity="0.1" stroke="#000000" stroke-width="1" x1="40" y1="118" x2="1023" y2="118"/>
<line opacity="0.1" stroke="#000000" stroke-width="1" x1="40" y1="111" x2="1023" y2="111"/>
<line opacity="0.1" stroke="#000000" stroke-width="1" x1="40" y1="104" x2="1023" y2="104"/>
<line opacity="0.1" stroke="#000000" stroke-width="1" x1="40" y1="97" x2="1023" y2="97"/>
<line opacity="0.1" stroke="#000000" stroke-width="1" x1="40" y1="91" x2="1023" y2="91"/>
<line opacity="0.1" stroke="#000000" stroke-width="1" x1="40" y1="84" x2="1023" y2="84"/>
<line opacity="0.1" stroke="#000000" stroke-width="1" x1="40" y1="77" x2="1023" y2="77"/>
<line opacity="0.1" stroke="#000000" stroke-width="1" x1="40" y1="70" x2="1023" y2="70"/>
<line opacity="0.1" stroke="#000000" stroke-width="1" x1="40" y1="63" x2="1023" y2="63"/>
<line opacity="0.1" stroke="#000000" stroke-width="1" x1="40" y1="56" x2="1023" y2="56"/>
<line opacity="0.1" stroke="#000000" stroke-width="1" x1="40" y1="49" x2="1023" y2="49"/>
<line opacity="0.1" stroke="#000000" stroke-width="1" x1="40" y1="42" x2="1023" y2="42"/>
<line opacity="0.1" stroke="#000000" stroke-width="1" x1="40" y1="35" x2="1023" y2="35"/>
<line opacity="0.1" stroke="#000000" stroke-width="1" x1="40" y1="28" x2="1023" y2="28"/>
<line opacity="0.1" stroke="#000000" stroke-width="1" x1="40" y1="21" x2="1023" y2="21"/>
<line opacity="0.1" stroke="#000000" stroke-width="1" x1="40" y1="14" x2="1023" y2="14"/>
<line opacity="0.1" stroke="#000000" stroke-width="1" x1="40" y1="7" x2="1023" y2="7"/>
<line opacity="0.2" stroke="#000000" stroke-width="1" x1="40" y1="727" x2="40" y2="0"/>
<line opacity="0.2" stroke="#000000" stroke-width="1" x1="229" y1="727" x2="229" y2="0"/>
<line opacity="0.2" stroke="#000000" stroke-width="1" x1="419" y1="727" x2="419" y2="0"/>
<line opacity="0.2" stroke="#000000" stroke-width="1" x1="609" y1="727" x2="609" y2="0"/>
<line opacity="0.2" stroke="#000000" stroke-width="1" x1="799" y1="727" x2="799" y2="0"/>
<line opacity="0.2" stroke="#000000" stroke-width="1" x1="989" y1="727" x2="989" y2="0"/>
<line opacity="0.2" stroke="#000000" stroke-width="1" x1="40" y1="727" x2="1023" y2="727"/>
<line opacity="0.2" stroke="#000000" stroke-width="1" x1="40" y1="658" x2="1023" y2="658"/>
<line opacity="0.2" stroke="#000000" stroke-width="1" x1="40" y1="589" x2="1023" y2="589"/>
<line opacity="0.2" stroke="#000000" stroke-width="1" x1="40" y1="520" x2="1023" y2="520"/>
<line opacity="0.2" stroke="#000000" stroke-width="1" x1="40" y1="451" x2="1023" y2="451"/>
<line opacity="0.2" stroke="#000000" stroke-width="1" x1="40" y1="381" x2="1023" y2="381"/>
<line opacity="0.2" stroke="#000000" stroke-width="1" x1="40" y1="312" x2="1023" y2="312"/>
<line opacity="0.2" stroke="#000000" stroke-width="1" x1="40" y1="243" x2="1023" y2="243"/>
<line opacity="0.2" stroke="#000000" stroke-width="1" x1="40" y1="174" x2="1023" y2="174"/>
<line opacity="0.2" stroke="#000000" stroke-width="1" x1="40" y1="104" x2="1023" y2="104"/>
<line opacity="0.2" stroke="#000000" stroke-width="1" x1="40" y1="35" x2="1023" y2="35"/>
<polyline fill="none" opacity="1" stroke="#000000" stroke-width="1" points="39,0 39,727 "/>
<text x="30" y="727" dy="0.5ex" text-anchor="end" font-family="sans-serif" font-size="9.67741935483871" opacity="1" fill="#000000">
0.0
</text>
<polyline fill="none" opacity="1" stroke="#000000" stroke-width="1" points="34,727 39,727 "/>
<text x="30" y="658" dy="0.5ex" text-anchor="end" font-family="sans-serif" font-size="9.67741935483871" opacity="1" fill="#000000">
0.1
</text>
<polyline fill="none" opacity="1" stroke="#000000" stroke-width="1" points="34,658 39,658 "/>
<text x="30" y="589" dy="0.5ex" text-anchor="end" font-family="sans-serif" font-size="9.67741935483871" opacity="1" fill="#000000">
0.2
</text>
<polyline fill="none" opacity="1" stroke="#000000" stroke-width="1" points="34,589 39,589 "/>
<text x="30" y="520" dy="0.5ex" text-anchor="end" font-family="sans-serif" font-size="9.67741935483871" opacity="1" fill="#000000">
0.3
</text>
<polyline fill="none" opacity="1" stroke="#000000" stroke-width="1" points="34,520 39,520 "/>
<text x="30" y="451" dy="0.5ex" text-anchor="end" font-family="sans-serif" font-size="9.67741935483871" opacity="1" fill="#000000">
0.4
</text>
<polyline fill="none" opacity="1" stroke="#000000" stroke-width="1" points="34,451 39,451 "/>
<text x="30" y="381" dy="0.5ex" text-anchor="end" font-family="sans-serif" font-size="9.67741935483871" opacity="1" fill="#000000">
0.5
</text>
<polyline fill="none" opacity="1" stroke="#000000" stroke-width="1" points="34,381 39,381 "/>
<text x="30" y="312" dy="0.5ex" text-anchor="end" font-family="sans-serif" font-size="9.67741935483871" opacity="1" fill="#000000">
0.6
</text>
<polyline fill="none" opacity="1" stroke="#000000" stroke-width="1" points="34,312 39,312 "/>
<text x="30" y="243" dy="0.5ex" text-anchor="end" font-family="sans-serif" font-size="9.67741935483871" opacity="1" fill="#000000">
0.7
</text>
<polyline fill="none" opacity="1" stroke="#000000" stroke-width="1" points="34,243 39,243 "/>
<text x="30" y="174" dy="0.5ex" text-anchor="end" font-family="sans-serif" font-size="9.67741935483871" opacity="1" fill="#000000">
0.8
</text>
<polyline fill="none" opacity="1" stroke="#000000" stroke-width="1" points="34,174 39,174 "/>
<text x="30" y="104" dy="0.5ex" text-anchor="end" font-family="sans-serif" font-size="9.67741935483871" opacity="1" fill="#000000">
0.9
</text>
<polyline fill="none" opacity="1" stroke="#000000" stroke-width="1" points="34,104 39,104 "/>
<text x="30" y="35" dy="0.5ex" text-anchor="end" font-family="sans-serif" font-size="9.67741935483871" opacity="1" fill="#000000">
1.0
</text>
<polyline fill="none" opacity="1" stroke="#000000" stroke-width="1" points="34,35 39,35 "/>
<polyline fill="none" opacity="1" stroke="#000000" stroke-width="1" points="40,728 1023,728 "/>
<text x="40" y="738" dy="0.76em" text-anchor="middle" font-family="sans-serif" font-size="9.67741935483871" opacity="1" fill="#000000">
0.0
</text>
<polyline fill="none" opacity="1" stroke="#000000" stroke-width="1" points="40,728 40,733 "/>
<text x="229" y="738" dy="0.76em" text-anchor="middle" font-family="sans-serif" font-size="9.67741935483871" opacity="1" fill="#000000">
5000.0
</text>
<polyline fill="none" opacity="1" stroke="#000000" stroke-width="1" points="229,728 229,733 "/>
<text x="419" y="738" dy="0.76em" text-anchor="middle" font-family="sans-serif" font-size="9.67741935483871" opacity="1" fill="#000000">
10000.0
</text>
<polyline fill="none" opacity="1" stroke="#000000" stroke-width="1" points="419,728 419,733 "/>
<text x="609" y="738" dy="0.76em" text-anchor="middle" font-family="sans-serif" font-size="9.67741935483871" opacity="1" fill="#000000">
15000.0
</text>
<polyline fill="none" opacity="1" stroke="#000000" stroke-width="1" points="609,728 609,733 "/>
<text x="799" y="738" dy="0.76em" text-anchor="middle" font-family="sans-serif" font-size="9.67741935483871" opacity="1" fill="#000000">
20000.0
</text>
<polyline fill="none" opacity="1" stroke="#000000" stroke-width="1" points="799,728 799,733 "/>
<text x="989" y="738" dy="0.76em" text-anchor="middle" font-family="sans-serif" font-size="9.67741935483871" opacity="1" fill="#000000">
25000.0
</text>
<polyline fill="none" opacity="1" stroke="#000000" stroke-width="1" points="989,728 989,733 "/>
<polyline fill="none" opacity="1" stroke="#000000" stroke-width="2" points="40,727 40,724 40,721 41,717 42,714 42,710 42,707 42,703 42,700 42,696 42,693 42,689 43,686 44,682 44,679 45,676 45,672 45,669 45,665 46,662 47,658 48,655 48,651 49,648 49,644 50,641 50,637 50,634 51,631 51,627 52,624 52,620 53,617 53,613 54,610 54,606 54,603 55,599 56,596 56,592 56,589 57,586 57,582 57,579 58,575 58,572 59,568 59,565 60,561 61,558 61,554 61,551 62,547 62,544 62,541 63,537 63,534 64,530 65,527 66,523 66,520 66,516 66,513 67,509 67,506 68,502 68,499 68,496 69,492 69,489 69,485 69,482 70,478 70,475 70,471 71,468 72,464 72,461 73,457 73,454 73,451 74,447 75,444 76,440 76,437 76,433 77,430 77,426 77,423 78,419 79,416 79,412 79,409 79,406 80,402 80,399 82,395 82,392 83,388 83,385 83,381 84,378 84,374 84,371 85,367 85,364 85,361 87,357 87,354 88,350 89,347 89,343 89,340 90,336 90,333 90,329 91,326 91,322 92,319 93,316 93,312 93,309 94,305 94,302 95,298 96,295 96,291 97,288 98,284 99,281 99,277 100,274 100,271 101,267 101,264 102,260 102,257 102,253 102,250 102,246 102,243 103,239 103,236 105,232 105,229 109,226 110,222 112,219 112,215 113,212 116,208 121,205 121,201 121,198 122,194 122,191 123,187 125,184 127,181 128,177 133,174 134,170 136,167 137,163 137,160 138,156 141,153 144,149 145,146 145,142 146,139 149,136 150,132 152,129 154,125 156,122 160,118 164,115 169,111 171,108 174,104 179,101 189,97 191,94 211,91 211,87 226,84 231,80 260,77 268,73 268,70 270,66 313,63 328,59 337,56 375,52 408,49 572,46 615,42 1022,39 "/>
</svg>
