<svg width="1024" height="768" viewBox="0 0 1024 768" xmlns="http://www.w3.org/2000/svg">
<rect x="0" y="0" width="1024" height="768" opacity="1" fill="#FFFFFF" stroke="none"/>
<line opacity="0.1" stroke="#000000" stroke-width="1" x1="40" y1="727" x2="40" y2="0"/>
<line opacity="0.1" stroke="#000000" stroke-width="1" x1="56" y1="727" x2="56" y2="0"/>
<line opacity="0.1" stroke="#000000" stroke-width="1" x1="72" y1="727" x2="72" y2="0"/>
<line opacity="0.1" stroke="#000000" stroke-width="1" x1="88" y1="727" x2="88" y2="0"/>
<line opacity="0.1" stroke="#000000" stroke-width="1" x1="104" y1="727" x2="104" y2="0"/>
<line opacity="0.1" stroke="#000000" stroke-width="1" x1="120" y1="727" x2="120" y2="0"/>
<line opacity="0.1" stroke="#000000" stroke-width="1" x1="136" y1="727" x2="136" y2="0"/>
<line opacity="0.1" stroke="#000000" stroke-width="1" x1="152" y1="727" x2="152" y2="0"/>
<line opacity="0.1" stroke="#000000" stroke-width="1" x1="168" y1="727" x2="168" y2="0"/>
<line opacity="0.1" stroke="#000000" stroke-width="1" x1="184" y1="727" x2="184" y2="0"/>
<line opacity="0.1" stroke="#000000" stroke-width="1" x1="200" y1="727" x2="200" y2="0"/>
<line opacity="0.1" stroke="#000000" stroke-width="1" x1="216" y1="727" x2="216" y2="0"/>
<line opacity="0.1" stroke="#000000" stroke-width="1" x1="232" y1="727" x2="232" y2="0"/>
<line opacity="0.1" stroke="#000000" stroke-width="1" x1="248" y1="727" x2="248" y2="0"/>
<line opacity="0.1" stroke="#000000" stroke-width="1" x1="264" y1="727" x2="264" y2="0"/>
<line opacity="0.1" stroke="#000000" stroke-width="1" x1="280" y1="727" x2="280" y2="0"/>
<line opacity="0.1" stroke="#000000" stroke-width="1" x1="296" y1="727" x2="296" y2="0"/>
<line opacity="0.1" stroke="#000000" stroke-width="1" x1="313" y1="727" x2="313" y2="0"/>
<line opacity="0.1" stroke="#000000" stroke-width="1" x1="329" y1="727" x2="329" y2="0"/>
<line opacity="0.1" stroke="#000000" stroke-width="1" x1="345" y1="727" x2="345" y2="0"/>
<line opacity="0.1" stroke="#000000" stroke-width="1" x1="361" y1="727" x2="361" y2="0"/>
<line opacity="0.1" stroke="#000000" stroke-width="1" x1="377" y1="727" x2="377" y2="0"/>
<line opacity="0.1" stroke="#000000" stroke-width="1" x1="393" y1="727" x2="393" y2="0"/>
<line opacity="0.1" stroke="#000000" stroke-width="1" x1="409" y1="727" x2="409" y2="0"/>
<line opacity="0.1" stroke="#000000" stroke-width="1" x1="425" y1="727" x2="425" y2="0"/>
<line opacity="0.1" stroke="#000000" stroke-width="1" x1="441" y1="727" x2="441" y2="0"/>
<line opacity="0.1" stroke="#000000" stroke-width="1" x1="457" y1="727" x2="457" y2="0"/>
<line opacity="0.1" stroke="#000000" stroke-width="1" x1="473" y1="727" x2="473" y2="0"/>
<line opacity="0.1" stroke="#000000" stroke-width="1" x1="489" y1="727" x2="489" y2="0"/>
<line opacity="0.1" stroke="#000000" stroke-width="1" x1="505" y1="727" x2="505" y2="0"/>
<line opacity="0.1" stroke="#000000" stroke-width="1" x1="521" y1="727" x2="521" y2="0"/>
<line opacity="0.1" stroke="#000000" stroke-width="1" x1="537" y1="727" x2="537" y2="0"/>
<line opacity="0.1" stroke="#000000" stroke-width="1" x1="553" y1="727" x2="553" y2="0"/>
<line opacity="0.1" stroke="#000000" stroke-width="1" x1="570" y1="727" x2="570" y2="0"/>
<line opacity="0.1" stroke="#000000" stroke-width="1" x1="586" y1="727" x2="586" y2="0"/>
<line opacity="0.1" stroke="#000000" stroke-width="1" x1="602" y1="727" x2="602" y2="0"/>
<line opacity="0.1" stroke="#000000" stroke-width="1" x1="618" y1="727" x2="618" y2="0"/>
<line opacity="0.1" stroke="#000000" stroke-width="1" x1="634" y1="727" x2="634" y2="0"/>
<line opacity="0.1" stroke="#000000" stroke-width="1" x1="650" y1="727" x2="650" y2="0"/>
<line opacity="0.1" stroke="#000000" stroke-width="1" x1="666" y1="727" x2="666" y2="0"/>
<line opacity="0.1" stroke="#000000" stroke-width="1" x1="682" y1="727" x2="682" y2="0"/>
<line opacity="0.1" stroke="#000000" stroke-width="1" x1="698" y1="727" x2="698" y2="0"/>
<line opacity="0.1" stroke="#000000" stroke-width="1" x1="714" y1="727" x2="714" y2="0"/>
<line opacity="0.1" stroke="#000000" stroke-width="1" x1="730" y1="727" x2="730" y2="0"/>
<line opacity="0.1" stroke="#000000" stroke-width="1" x1="746" y1="727" x2="746" y2="0"/>
<line opacity="0.1" stroke="#000000" stroke-width="1" x1="762" y1="727" x2="762" y2="0"/>
<line opacity="0.1" stroke="#000000" stroke-width="1" x1="778" y1="727" x2="778" y2="0"/>
<line opacity="0.1" stroke="#000000" stroke-width="1" x1="794" y1="727" x2="794" y2="0"/>
<line opacity="0.1" stroke="#000000" stroke-width="1" x1="810" y1="727" x2="810" y2="0"/>
<line opacity="0.1" stroke="#000000" stroke-width="1" x1="827" y1="727" x2="827" y2="0"/>
<line opacity="0.1" stroke="#000000" stroke-width="1" x1="843" y1="727" x2="843" y2="0"/>
<line opacity="0.1" stroke="#000000" stroke-width="1" x1="859" y1="727" x2="859" y2="0"/>
<line opacity="0.1" stroke="#000000" stroke-width="1" x1="875" y1="727" x2="875" y2="0"/>
<line opacity="0.1" stroke="#000000" stroke-width="1" x1="891" y1="727" x2="891" y2="0"/>
<line opacity="0.1" stroke="#000000" stroke-width="1" x1="907" y1="727" x2="907" y2="0"/>
<line opacity="0.1" stroke="#000000" stroke-width="1" x1="923" y1="727" x2="923" y2="0"/>
<line opacity="0.1" stroke="#000000" stroke-width="1" x1="939" y1="727" x2="939" y2="0"/>
<line opacity="0.1" stroke="#000000" stroke-width="1" x1="955" y1="727" x2="955" y2="0"/>
<line opacity="0.1" stroke="#000000" stroke-width="1" x1="971" y1="727" x2="971" y2="0"/>
<line opacity="0.1" stroke="#000000" stroke-width="1" x1="987" y1="727" x2="987" y2="0"/>
<line opacity="0.1" stroke="#000000" stroke-width="1" x1="1003" y1="727" x2="1003" y2="0"/>
<line opacity="0.1" stroke="#000000" stroke-width="1" x1="1019" y1="727" x2="1019" y2="0"/>
<line opacity="0.1" stroke="#000000" stroke-width="1" x1="40" y1="727" x2="1023" y2="727"/>
<line opacity="0.1" stroke="#000000" stroke-width="1" x1="40" y1="721" x2="1023" y2="721"/>
<line opacity="0.1" stroke="#000000" stroke-width="1" x1="40" y1="714" x2="1023" y2="714"/>
<line opacity="0.1" stroke="#000000" stroke-width="1" x1="40" y1="707" x2="1023" y2="707"/>
<line opacity="0.1" stroke="#000000" stroke-width="1" x1="40" y1="700" x2="1023" y2="700"/>
<line opacity="0.1" stroke="#000000" stroke-width="1" x1="40" y1="693" x2="1023" y2="693"/>
<line opacity="0.1" stroke="#000000" stroke-width="1" x1="40" y1="686" x2="1023" y2="686"/>
<line opacity="0.1" stroke="#000000" stroke-width="1" x1="40" y1="679" x2="1023" y2="679"/>
<line opacity="0.1" stroke="#000000" stroke-width="1" x1="40" y1="672" x2="1023" y2="672"/>
<line opacity="0.1" stroke="#000000" stroke-width="1" x1="40" y1="665" x2="1023" y2="665"/>
<line opacity="0.1" stroke="#000000" stroke-width="1" x1="40" y1="658" x2="1023" y2="658"/>
<line opacity="0.1" stroke="#000000" stroke-width="1" x1="40" y1="651" x2="1023" y2="651"/>
<line opacity="0.1" stroke="#000000" stroke-width="1" x1="40" y1="644" x2="1023" y2="644"/>
<line opacity="0.1" stroke="#000000" stroke-width="1" x1="40" y1="637" x2="1023" y2="637"/>
<line opacity="0.1" stroke="#000000" stroke-width="1" x1="40" y1="631" x2="1023" y2="631"/>
<line opacity="0.1" stroke="#000000" stroke-width="1" x1="40" y1="624" x2="1023" y2="624"/>
<line opacity="0.1" stroke="#000000" stroke-width="1" x1="40" y1="617" x2="1023" y2="617"/>
<line opacity="0.1" stroke="#000000" stroke-width="1" x1="40" y1="610" x2="1023" y2="610"/>
<line opacity="0.1" stroke="#000000" stroke-width="1" x1="40" y1="603" x2="1023" y2="603"/>
<line opacity="0.1" stroke="#000000" stroke-width="1" x1="40" y1="596" x2="1023" y2="596"/>
<line opacity="0.1" stroke="#000000" stroke-width="1" x1="40" y1="589" x2="1023" y2="589"/>
<line opacity="0.1" stroke="#000000" stroke-width="1" x1="40" y1="582" x2="1023" y2="582"/>
<line opacity="0.1" stroke="#000000" stroke-width="1" x1="40" y1="575" x2="1023" y2="575"/>
<line opacity="0.1" stroke="#000000" stroke-width="1" x1="40" y1="568" x2="1023" y2="568"/>
<line opacity="0.1" stroke="#000000" stroke-width="1" x1="40" y1="561" x2="1023" y2="561"/>
<line opacity="0.1" stroke="#000000" stroke-width="1" x1="40" y1="554" x2="1023" y2="554"/>
<line opacity="0.1" stroke="#000000" stroke-width="1" x1="40" y1="547" x2="1023" y2="547"/>
<line opacity="0.1" stroke="#000000" stroke-width="1" x1="40" y1="541" x2="1023" y2="541"/>
<line opacity="0.1" stroke="#000000" stroke-width="1" x1="40" y1="534" x2="1023" y2="534"/>
<line opacity="0.1" stroke="#000000" stroke-width="1" x1="40" y1="527" x2="1023" y2="527"/>
<line opacity="0.1" stroke="#000000" stroke-width="1" x1="40" y1="520" x2="1023" y2="520"/>
<line opacity="0.1" stroke="#000000" stroke-width="1" x1="40" y1="513" x2="1023" y2="513"/>
<line opacity="0.1" stroke="#000000" stroke-width="1" x1="40" y1="506" x2="1023" y2="506"/>
<line opacity="0.1" stroke="#000000" stroke-width="1" x1="40" y1="499" x2="1023" y2="499"/>
<line opacity="0.1" stroke="#000000" stroke-width="1" x1="40" y1="492" x2="1023" y2="492"/>
<line opacity="0.1" stroke="#000000" stroke-width="1" x1="40" y1="485" x2="1023" y2="485"/>
<line opacity="0.1" stroke="#000000" stroke-width="1" x1="40" y1="478" x2="1023" y2="478"/>
<line opacity="0.1" stroke="#000000" stroke-width="1" x1="40" y1="471" x2="1023" y2="471"/>
<line opacity="0.1" stroke="#000000" stroke-width="1" x1="40" y1="464" x2="1023" y2="464"/>
<line opacity="0.1" stroke="#000000" stroke-width="1" x1="40" y1="457" x2="1023" y2="457"/>
<line opacity="0.1" stroke="#000000" stroke-width="1" x1="40" y1="451" x2="1023" y2="451"/>
<line opacity="0.1" stroke="#000000" stroke-width="1" x1="40" y1="444" x2="1023" y2="444"/>
<line opacity="0.1" stroke="#000000" stroke-width="1" x1="40" y1="437" x2="1023" y2="437"/>
<line opacity="0.1" stroke="#000000" stroke-width="1" x1="40" y1="430" x2="1023" y2="430"/>
<line opacity="0.1" stroke="#000000" stroke-width="1" x1="40" y1="423" x2="1023" y2="423"/>
<line opacity="0.1" stroke="#000000" stroke-width="1" x1="40" y1="416" x2="1023" y2="416"/>
<line opacity="0.1" stroke="#000000" stroke-width="1" x1="40" y1="409" x2="1023" y2="409"/>
<line opacity="0.1" stroke="#000000" stroke-width="1" x1="40" y1="402" x2="1023" y2="402"/>
<line opacity="0.1" stroke="#000000" stroke-width="1" x1="40" y1="395" x2="1023" y2="395"/>
<line opacity="0.1" stroke="#000000" stroke-width="1" x1="40" y1="388" x2="1023" y2="388"/>
<line opacity="0.1" stroke="#000000" stroke-width="1" x1="40" y1="381" x2="1023" y2="381"/>
<line opacity="0.1" stroke="#000000" stroke-width="1" x1="40" y1="374" x2="1023" y2="374"/>
<line opacity="0.1" stroke="#000000" stroke-width="1" x1="40" y1="367" x2="1023" y2="367"/>
<line opacity="0.1" stroke="#000000" stroke-width="1" x1="40" y1="361" x2="1023" y2="361"/>
<line opacity="0.1" stroke="#000000" stroke-width="1" x1="40" y1="354" x2="1023" y2="354"/>
<line opacity="0.1" stroke="#000000" stroke-width="1" x1="40" y1="347" x2="1023" y2="347"/>
<line opacity="0.1" stroke="#000000" stroke-width="1" x1="40" y1="340" x2="1023" y2="340"/>
<line opacity="0.1" stroke="#000000" stroke-width="1" x1="40" y1="333" x2="1023" y2="333"/>
<line opacity="0.1" stroke="#000000" stroke-width="1" x1="40" y1="326" x2="1023" y2="326"/>
<line opacity="0.1" stroke="#000000" stroke-width="1" x1="40" y1="319" x2="1023" y2="319"/>
<line opacity="0.1" stroke="#000000" stroke-width="1" x1="40" y1="312" x2="1023" y2="312"/>
<line opacity="0.1" stroke="#000000" stroke-width="1" x1="40" y1="305" x2="1023" y2="305"/>
<line opacity="0.1" stroke="#000000" stroke-width="1" x1="40" y1="298" x2="1023" y2="298"/>
<line opacity="0.1" stroke="#000000" stroke-width="1" x1="40" y1="291" x2="1023" y2="291"/>
<line opacity="0.1" stroke="#000000" stroke-width="1" x1="40" y1="284" x2="1023" y2="284"/>
<line opacity="0.1" stroke="#000000" stroke-width="1" x1="40" y1="277" x2="1023" y2="277"/>
<line opacity="0.1" stroke="#000000" stroke-width="1" x1="40" y1="271" x2="1023" y2="271"/>
<line opacity="0.1" stroke="#000000" stroke-width="1" x1="40" y1="264" x2="1023" y2="264"/>
<line opacity="0.1" stroke="#000000" stroke-width="1" x1="40" y1="257" x2="1023" y2="257"/>
<line opacity="0.1" stroke="#000000" stroke-width="1" x1="40" y1="250" x2="1023" y2="250"/>
<line opacity="0.1" stroke="#000000" stroke-width="1" x1="40" y1="243" x2="1023" y2="243"/>
<line opacity="0.1" stroke="#000000" stroke-width="1" x1="40" y1="236" x2="1023" y2="236"/>
<line opacity="0.1" stroke="#000000" stroke-width="1" x1="40" y1="229" x2="1023" y2="229"/>
<line opacity="0.1" stroke="#000000" stroke-width="1" x1="40" y1="222" x2="1023" y2="222"/>
<line opacity="0.1" stroke="#000000" stroke-width="1" x1="40" y1="215" x2="1023" y2="215"/>
<line opacity="0.1" stroke="#000000" stroke-width="1" x1="40" y1="208" x2="1023" y2="208"/>
<line opacity="0.1" stroke="#000000" stroke-width="1" x1="40" y1="201" x2="1023" y2="201"/>
<line opacity="0.1" stroke="#000000" stroke-width="1" x1="40" y1="194" x2="1023" y2="194"/>
<line opacity="0.1" stroke="#000000" stroke-width="1" x1="40" y1="187" x2="1023" y2="187"/>
<line opacity="0.1" stroke="#000000" stroke-width="1" x1="40" y1="181" x2="1023" y2="181"/>
<line opacity="0.1" stroke="#000000" stroke-width="1" x1="40" y1="174" x2="1023" y2="174"/>
<line opacity="0.1" stroke="#000000" stroke-width="1" x1="40" y1="167" x2="1023" y2="167"/>
<line opacity="0.1" stroke="#000000" stroke-width="1" x1="40" y1="160" x2="1023" y2="160"/>
<line opacity="0.1" stroke="#000000" stroke-width="1" x1="40" y1="153" x2="1023" y2="153"/>
<line opacity="0.1" stroke="#000000" stroke-width="1" x1="40" y1="146" x2="1023" y2="146"/>
<line opacity="0.1" stroke="#000000" stroke-width="1" x1="40" y1="139" x2="1023" y2="139"/>
<line opacity="0.1" stroke="#000000" stroke-width="1" x1="40" y1="132" x2="1023" y2="132"/>
<line opacity="0.1" stroke="#000000" stroke-width="1" x1="40" y1="125" x2="1023" y2="125"/>
<line opacity="0.1" stroke="#000000" stroke-width="1" x1="40" y1="118" x2="1023" y2="118"/>
<line opacity="0.1" stroke="#000000" stroke-width="1" x1="40" y1="111" x2="1023" y2="111"/>
<line opacity="0.1" stroke="#000000" stroke-width="1" x1="40" y1="104" x2="1023" y2="104"/>
<line opacity="0.1" stroke="#000000" stroke-width="1" x1="40" y1="97" x2="1023" y2="97"/>
<line opacity="0.1" stroke="#000000" stroke-width="1" x1="40" y1="91" x2="1023" y2="91"/>
<line opacity="0.1" stroke="#000000" stroke-width="1" x1="40" y1="84" x2="1023" y2="84"/>
<line opacity="0.1" stroke="#000000" stroke-width="1" x1="40" y1="77" x2="1023" y2="77"/>
<line opacity="0.1" stroke="#000000" stroke-width="1" x1="40" y1="70" x2="1023" y2="70"/>
<line opacity="0.1" stroke="#000000" stroke-width="1" x1="40" y1="63" x2="1023" y2="63"/>
<line opacity="0.1" stroke="#000000" stroke-width="1" x1="40" y1="56" x2="1023" y2="56"/>
<line opacity="0.1" stroke="#000000" stroke-width="1" x1="40" y1="49" x2="1023" y2="49"/>
<line opacity="0.1" stroke="#000000" stroke-width="1" x1="40" y1="42" x2="1023" y2="42"/>
<line opacity="0.1" stroke="#000000" stroke-width="1" x1="40" y1="35" x2="1023" y2="35"/>
<line opacity="0.1" stroke="#000000" stroke-width="1" x1="40" y1="28" x2="1023" y2="28"/>
<line opacity="0.1" stroke="#000000" stroke-width="1" x1="40" y1="21" x2="1023" y2="21"/>
<line opacity="0.1" stroke="#000000" stroke-width="1" x1="40" y1="14" x2="1023" y2="14"/>
<line opacity="0.1" stroke="#000000" stroke-width="1" x1="40" y1="7" x2="1023" y2="7"/>
<line opacity="0.2" stroke="#000000" stroke-width="1" x1="40" y1="727" x2="40" y2="0"/>
<line opacity="0.2" stroke="#000000" stroke-width="1" x1="200" y1="727" x2="200" y2="0"/>
<line opacity="0.2" stroke="#000000" stroke-width="1" x1="361" y1="727" x2="361" y2="0"/>
<line opacity="0.2" stroke="#000000" stroke-width="1" x1="521" y1="727" x2="521" y2="0"/>
<line opacity="0.2" stroke="#000000" stroke-width="1" x1="682" y1="727" x2="682" y2="0"/>
<line opacity="0.2" stroke="#000000" stroke-width="1" x1="843" y1="727" x2="843" y2="0"/>
<line opacity="0.2" stroke="#000000" stroke-width="1" x1="1003" y1="727" x2="1003" y2="0"/>
<line opacity="0.2" stroke="#000000" stroke-width="1" x1="40" y1="727" x2="1023" y2="727"/>
<line opacity="0.2" stroke="#000000" stroke-width="1" x1="40" y1="658" x2="1023" y2="658"/>
<line opacity="0.2" stroke="#000000" stroke-width="1" x1="40" y1="589" x2="1023" y2="589"/>
<line opacity="0.2" stroke="#000000" stroke-width="1" x1="40" y1="520" x2="1023" y2="520"/>
<line opacity="0.2" stroke="#000000" stroke-width="1" x1="40" y1="451" x2="1023" y2="451"/>
<line opacity="0.2" stroke="#000000" stroke-width="1" x1="40" y1="381" x2="1023" y2="381"/>
<line opacity="0.2" stroke="#000000" stroke-width="1" x1="40" y1="312" x2="1023" y2="312"/>
<line opacity="0.2" stroke="#000000" stroke-width="1" x1="40" y1="243" x2="1023" y2="243"/>
<line opacity="0.2" stroke="#000000" stroke-width="1" x1="40" y1="174" x2="1023" y2="174"/>
<line opacity="0.2" stroke="#000000" stroke-width="1" x1="40" y1="104" x2="1023" y2="104"/>
<line opacity="0.2" stroke="#000000" stroke-width="1" x1="40" y1="35" x2="1023" y2="35"/>
<polyline fill="none" opacity="1" stroke="#000000" stroke-width="1" points="39,0 39,727 "/>
<text x="30" y="727" dy="0.5ex" text-anchor="end" font-family="sans-serif" font-size="9.67741935483871" opacity="1" fill="#000000">
0.0
</text>
<polyline fill="none" opacity="1" stroke="#000000" stroke-width="1" points="34,727 39,727 "/>
<text x="30" y="658" dy="0.5ex" text-anchor="end" font-family="sans-serif" font-size="9.67741935483871" opacity="1" fill="#000000">
0.1
</text>
<polyline fill="none" opacity="1" stroke="#000000" stroke-width="1" points="34,658 39,658 "/>
<text x="30" y="589" dy="0.5ex" text-anchor="end" font-family="sans-serif" font-size="9.67741935483871" opacity="1" fill="#000000">
0.2
</text>
<polyline fill="none" opacity="1" stroke="#000000" stroke-width="1" points="34,589 39,589 "/>
<text x="30" y="520" dy="0.5ex" text-anchor="end" font-family="sans-serif" font-size="9.67741935483871" opacity="1" fill="#000000">
0.3
</text>
<polyline fill="none" opacity="1" stroke="#000000" stroke-width="1" points="34,520 39,520 "/>
<text x="30" y="451" dy="0.5ex" text-anchor="end" font-family="sans-serif" font-size="9.67741935483871" opacity="1" fill="#000000">
0.4
</text>
<polyline fill="none" opacity="1" stroke="#000000" stroke-width="1" points="34,451 39,451 "/>
<text x="30" y="381" dy="0.5ex" text-anchor="end" font-family="sans-serif" font-size="9.67741935483871" opacity="1" fill="#000000">
0.5
</text>
<polyline fill="none" opacity="1" stroke="#000000" stroke-width="1" points="34,381 39,381 "/>
<text x="30" y="312" dy="0.5ex" text-anchor="end" font-family="sans-serif" font-size="9.67741935483871" opacity="1" fill="#000000">
0.6
</text>
<polyline fill="none" opacity="1" stroke="#000000" stroke-width="1" points="34,312 39,312 "/>
<text x="30" y="243" dy="0.5ex" text-anchor="end" font-family="sans-serif" font-size="9.67741935483871" opacity="1" fill="#000000">
0.7
</text>
<polyline fill="none" opacity="1" stroke="#000000" stroke-width="1" points="34,243 39,243 "/>
<text x="30" y="174" dy="0.5ex" text-anchor="end" font-family="sans-serif" font-size="9.67741935483871" opacity="1" fill="#000000">
0.8
</text>
<polyline fill="none" opacity="1" stroke="#000000" stroke-width="1" points="34,174 39,174 "/>
<text x="30" y="104" dy="0.5ex" text-anchor="end" font-family="sans-serif" font-size="9.67741935483871" opacity="1" fill="#000000">
0.9
</text>
<polyline fill="none" opacity="1" stroke="#000000" stroke-width="1" points="34,104 39,104 "/>
<text x="30" y="35" dy="0.5ex" text-anchor="end" font-family="sans-serif" font-size="9.67741935483871" opacity="1" fill="#000000">
1.0
</text>
<polyline fill="none" opacity="1" stroke="#000000" stroke-width="1" points="34,35 39,35 "/>
<polyline fill="none" opacity="1" stroke="#000000" stroke-width="1" points="40,728 1023,728 "/>
<text x="40" y="738" dy="0.76em" text-anchor="middle" font-family="sans-serif" font-size="9.67741935483871" opacity="1" fill="#000000">
0.0
</text>
<polyline fill="none" opacity="1" stroke="#000000" stroke-width="1" points="40,728 40,733 "/>
<text x="200" y="738" dy="0.76em" text-anchor="middle" font-family="sans-serif" font-size="9.67741935483871" opacity="1" fill="#000000">
5000.0
</text>
<polyline fill="none" opacity="1" stroke="#000000" stroke-width="1" points="200,728 200,733 "/>
<text x="361" y="738" dy="0.76em" text-anchor="middle" font-family="sans-serif" font-size="9.67741935483871" opacity="1" fill="#000000">
10000.0
</text>
<polyline fill="none" opacity="1" stroke="#000000" stroke-width="1" points="361,728 361,733 "/>
<text x="521" y="738" dy="0.76em" text-anchor="middle" font-family="sans-serif" font-size="9.67741935483871" opacity="1" fill="#000000">
15000.0
</text>
<polyline fill="none" opacity="1" stroke="#000000" stroke-width="1" points="521,728 521,733 "/>
<text x="682" y="738" dy="0.76em" text-anchor="middle" font-family="sans-serif" font-size="9.67741935483871" opacity="1" fill="#000000">
20000.0
</text>
<polyline fill="none" opacity="1" stroke="#000000" stroke-width="1" points="682,728 682,733 "/>
<text x="843" y="738" dy="0.76em" text-anchor="middle" font-family="sans-serif" font-size="9.67741935483871" opacity="1" fill="#000000">
25000.0
</text>
<polyline fill="none" opacity="1" stroke="#000000" stroke-width="1" points="843,728 843,733 "/>
<text x="1003" y="738" dy="0.76em" text-anchor="middle" font-family="sans-serif" font-size="9.67741935483871" opacity="1" fill="#000000">
30000.0
</text>
<polyline fill="none" opacity="1" stroke="#000000" stroke-width="1" points="1003,728 1003,733 "/>
<polyline fill="none" opacity="1" stroke="#000000" stroke-width="2" points="40,727 41,724 43,721 43,717 44,714 45,710 46,707 47,703 48,700 50,696 50,693 51,689 51,686 53,682 54,679 54,676 55,672 55,669 55,665 57,662 58,658 59,655 59,651 59,648 61,644 62,641 62,637 62,634 63,631 63,627 64,624 65,620 68,617 70,613 71,610 74,606 75,603 75,599 76,596 76,592 77,589 77,586 78,582 78,579 80,575 80,572 81,568 82,565 83,561 84,558 85,554 86,551 86,547 87,544 87,541 88,537 89,534 89,530 91,527 92,523 93,520 94,516 94,513 95,509 96,506 97,502 97,499 99,496 102,492 102,489 102,485 103,482 107,478 107,475 107,471 110,468 111,464 111,461 112,457 112,454 113,451 113,447 114,444 115,440 115,437 116,433 118,430 119,426 119,423 119,419 120,416 120,412 121,409 121,406 122,402 123,399 123,395 124,392 127,388 128,385 129,381 132,378 132,374 132,371 133,367 133,364 135,361 137,357 137,354 138,350 140,347 141,343 144,340 146,336 146,333 147,329 147,326 148,322 151,319 153,316 153,312 154,309 154,305 154,302 158,298 158,295 160,291 161,288 161,284 162,281 163,277 164,274 167,271 169,267 171,264 171,260 173,257 174,253 174,250 178,246 178,243 186,239 186,236 187,232 187,229 189,226 189,222 190,219 195,215 197,212 198,208 199,205 201,201 205,198 210,194 211,191 211,187 214,184 215,181 224,177 228,174 229,170 229,167 230,163 230,160 230,156 241,153 246,149 247,146 247,142 248,139 251,136 261,132 264,129 271,125 274,122 289,118 308,115 310,111 317,108 327,104 333,101 340,97 345,94 351,91 359,87 363,84 376,80 379,77 384,73 431,70 443,66 446,63 501,59 513,56 525,52 542,49 808,46 923,42 1022,39 "/>
</svg>
