<svg width="1024" height="768" viewBox="0 0 1024 768" xmlns="http://www.w3.org/2000/svg">
<rect x="0" y="0" width="1024" height="768" opacity="1" fill="#FFFFFF" stroke="none"/>
<line opacity="0.1" stroke="#000000" stroke-width="1" x1="40" y1="727" x2="40" y2="0"/>
<line opacity="0.1" stroke="#000000" stroke-width="1" x1="53" y1="727" x2="53" y2="0"/>
<line opacity="0.1" stroke="#000000" stroke-width="1" x1="67" y1="727" x2="67" y2="0"/>
<line opacity="0.1" stroke="#000000" stroke-width="1" x1="81" y1="727" x2="81" y2="0"/>
<line opacity="0.1" stroke="#000000" stroke-width="1" x1="94" y1="727" x2="94" y2="0"/>
<line opacity="0.1" stroke="#000000" stroke-width="1" x1="108" y1="727" x2="108" y2="0"/>
<line opacity="0.1" stroke="#000000" stroke-width="1" x1="122" y1="727" x2="122" y2="0"/>
<line opacity="0.1" stroke="#000000" stroke-width="1" x1="136" y1="727" x2="136" y2="0"/>
<line opacity="0.1" stroke="#000000" stroke-width="1" x1="149" y1="727" x2="149" y2="0"/>
<line opacity="0.1" stroke="#000000" stroke-width="1" x1="163" y1="727" x2="163" y2="0"/>
<line opacity="0.1" stroke="#000000" stroke-width="1" x1="177" y1="727" x2="177" y2="0"/>
<line opacity="0.1" stroke="#000000" stroke-width="1" x1="190" y1="727" x2="190" y2="0"/>
<line opacity="0.1" stroke="#000000" stroke-width="1" x1="204" y1="727" x2="204" y2="0"/>
<line opacity="0.1" stroke="#000000" stroke-width="1" x1="218" y1="727" x2="218" y2="0"/>
<line opacity="0.1" stroke="#000000" stroke-width="1" x1="232" y1="727" x2="232" y2="0"/>
<line opacity="0.1" stroke="#000000" stroke-width="1" x1="245" y1="727" x2="245" y2="0"/>
<line opacity="0.1" stroke="#000000" stroke-width="1" x1="259" y1="727" x2="259" y2="0"/>
<line opacity="0.1" stroke="#000000" stroke-width="1" x1="273" y1="727" x2="273" y2="0"/>
<line opacity="0.1" stroke="#000000" stroke-width="1" x1="286" y1="727" x2="286" y2="0"/>
<line opacity="0.1" stroke="#000000" stroke-width="1" x1="300" y1="727" x2="300" y2="0"/>
<line opacity="0.1" stroke="#000000" stroke-width="1" x1="314" y1="727" x2="314" y2="0"/>
<line opacity="0.1" stroke="#000000" stroke-width="1" x1="328" y1="727" x2="328" y2="0"/>
<line opacity="0.1" stroke="#000000" stroke-width="1" x1="341" y1="727" x2="341" y2="0"/>
<line opacity="0.1" stroke="#000000" stroke-width="1" x1="355" y1="727" x2="355" y2="0"/>
<line opacity="0.1" stroke="#000000" stroke-width="1" x1="369" y1="727" x2="369" y2="0"/>
<line opacity="0.1" stroke="#000000" stroke-width="1" x1="382" y1="727" x2="382" y2="0"/>
<line opacity="0.1" stroke="#000000" stroke-width="1" x1="396" y1="727" x2="396" y2="0"/>
<line opacity="0.1" stroke="#000000" stroke-width="1" x1="410" y1="727" x2="410" y2="0"/>
<line opacity="0.1" stroke="#000000" stroke-width="1" x1="424" y1="727" x2="424" y2="0"/>
<line opacity="0.1" stroke="#000000" stroke-width="1" x1="437" y1="727" x2="437" y2="0"/>
<line opacity="0.1" stroke="#000000" stroke-width="1" x1="451" y1="727" x2="451" y2="0"/>
<line opacity="0.1" stroke="#000000" stroke-width="1" x1="465" y1="727" x2="465" y2="0"/>
<line opacity="0.1" stroke="#000000" stroke-width="1" x1="478" y1="727" x2="478" y2="0"/>
<line opacity="0.1" stroke="#000000" stroke-width="1" x1="492" y1="727" x2="492" y2="0"/>
<line opacity="0.1" stroke="#000000" stroke-width="1" x1="506" y1="727" x2="506" y2="0"/>
<line opacity="0.1" stroke="#000000" stroke-width="1" x1="520" y1="727" x2="520" y2="0"/>
<line opacity="0.1" stroke="#000000" stroke-width="1" x1="533" y1="727" x2="533" y2="0"/>
<line opacity="0.1" stroke="#000000" stroke-width="1" x1="547" y1="727" x2="547" y2="0"/>
<line opacity="0.1" stroke="#000000" stroke-width="1" x1="561" y1="727" x2="561" y2="0"/>
<line opacity="0.1" stroke="#000000" stroke-width="1" x1="575" y1="727" x2="575" y2="0"/>
<line opacity="0.1" stroke="#000000" stroke-width="1" x1="588" y1="727" x2="588" y2="0"/>
<line opacity="0.1" stroke="#000000" stroke-width="1" x1="602" y1="727" x2="602" y2="0"/>
<line opacity="0.1" stroke="#000000" stroke-width="1" x1="616" y1="727" x2="616" y2="0"/>
<line opacity="0.1" stroke="#000000" stroke-width="1" x1="629" y1="727" x2="629" y2="0"/>
<line opacity="0.1" stroke="#000000" stroke-width="1" x1="643" y1="727" x2="643" y2="0"/>
<line opacity="0.1" stroke="#000000" stroke-width="1" x1="657" y1="727" x2="657" y2="0"/>
<line opacity="0.1" stroke="#000000" stroke-width="1" x1="671" y1="727" x2="671" y2="0"/>
<line opacity="0.1" stroke="#000000" stroke-width="1" x1="684" y1="727" x2="684" y2="0"/>
<line opacity="0.1" stroke="#000000" stroke-width="1" x1="698" y1="727" x2="698" y2="0"/>
<line opacity="0.1" stroke="#000000" stroke-width="1" x1="712" y1="727" x2="712" y2="0"/>
<line opacity="0.1" stroke="#000000" stroke-width="1" x1="725" y1="727" x2="725" y2="0"/>
<line opacity="0.1" stroke="#000000" stroke-width="1" x1="739" y1="727" x2="739" y2="0"/>
<line opacity="0.1" stroke="#000000" stroke-width="1" x1="753" y1="727" x2="753" y2="0"/>
<line opacity="0.1" stroke="#000000" stroke-width="1" x1="767" y1="727" x2="767" y2="0"/>
<line opacity="0.1" stroke="#000000" stroke-width="1" x1="780" y1="727" x2="780" y2="0"/>
<line opacity="0.1" stroke="#000000" stroke-width="1" x1="794" y1="727" x2="794" y2="0"/>
<line opacity="0.1" stroke="#000000" stroke-width="1" x1="808" y1="727" x2="808" y2="0"/>
<line opacity="0.1" stroke="#000000" stroke-width="1" x1="821" y1="727" x2="821" y2="0"/>
<line opacity="0.1" stroke="#000000" stroke-width="1" x1="835" y1="727" x2="835" y2="0"/>
<line opacity="0.1" stroke="#000000" stroke-width="1" x1="849" y1="727" x2="849" y2="0"/>
<line opacity="0.1" stroke="#000000" stroke-width="1" x1="863" y1="727" x2="863" y2="0"/>
<line opacity="0.1" stroke="#000000" stroke-width="1" x1="876" y1="727" x2="876" y2="0"/>
<line opacity="0.1" stroke="#000000" stroke-width="1" x1="890" y1="727" x2="890" y2="0"/>
<line opacity="0.1" stroke="#000000" stroke-width="1" x1="904" y1="727" x2="904" y2="0"/>
<line opacity="0.1" stroke="#000000" stroke-width="1" x1="917" y1="727" x2="917" y2="0"/>
<line opacity="0.1" stroke="#000000" stroke-width="1" x1="931" y1="727" x2="931" y2="0"/>
<line opacity="0.1" stroke="#000000" stroke-width="1" x1="945" y1="727" x2="945" y2="0"/>
<line opacity="0.1" stroke="#000000" stroke-width="1" x1="959" y1="727" x2="959" y2="0"/>
<line opacity="0.1" stroke="#000000" stroke-width="1" x1="972" y1="727" x2="972" y2="0"/>
<line opacity="0.1" stroke="#000000" stroke-width="1" x1="986" y1="727" x2="986" y2="0"/>
<line opacity="0.1" stroke="#000000" stroke-width="1" x1="1000" y1="727" x2="1000" y2="0"/>
<line opacity="0.1" stroke="#000000" stroke-width="1" x1="1013" y1="727" x2="1013" y2="0"/>
<line opacity="0.1" stroke="#000000" stroke-width="1" x1="40" y1="727" x2="1023" y2="727"/>
<line opacity="0.1" stroke="#000000" stroke-width="1" x1="40" y1="721" x2="1023" y2="721"/>
<line opacity="0.1" stroke="#000000" stroke-width="1" x1="40" y1="714" x2="1023" y2="714"/>
<line opacity="0.1" stroke="#000000" stroke-width="1" x1="40" y1="707" x2="1023" y2="707"/>
<line opacity="0.1" stroke="#000000" stroke-width="1" x1="40" y1="700" x2="1023" y2="700"/>
<line opacity="0.1" stroke="#000000" stroke-width="1" x1="40" y1="693" x2="1023" y2="693"/>
<line opacity="0.1" stroke="#000000" stroke-width="1" x1="40" y1="686" x2="1023" y2="686"/>
<line opacity="0.1" stroke="#000000" stroke-width="1" x1="40" y1="679" x2="1023" y2="679"/>
<line opacity="0.1" stroke="#000000" stroke-width="1" x1="40" y1="672" x2="1023" y2="672"/>
<line opacity="0.1" stroke="#000000" stroke-width="1" x1="40" y1="665" x2="1023" y2="665"/>
<line opacity="0.1" stroke="#000000" stroke-width="1" x1="40" y1="658" x2="1023" y2="658"/>
<line opacity="0.1" stroke="#000000" stroke-width="1" x1="40" y1="651" x2="1023" y2="651"/>
<line opacity="0.1" stroke="#000000" stroke-width="1" x1="40" y1="644" x2="1023" y2="644"/>
<line opacity="0.1" stroke="#000000" stroke-width="1" x1="40" y1="637" x2="1023" y2="637"/>
<line opacity="0.1" stroke="#000000" stroke-width="1" x1="40" y1="631" x2="1023" y2="631"/>
<line opacity="0.1" stroke="#000000" stroke-width="1" x1="40" y1="624" x2="1023" y2="624"/>
<line opacity="0.1" stroke="#000000" stroke-width="1" x1="40" y1="617" x2="1023" y2="617"/>
<line opacity="0.1" stroke="#000000" stroke-width="1" x1="40" y1="610" x2="1023" y2="610"/>
<line opacity="0.1" stroke="#000000" stroke-width="1" x1="40" y1="603" x2="1023" y2="603"/>
<line opacity="0.1" stroke="#000000" stroke-width="1" x1="40" y1="596" x2="1023" y2="596"/>
<line opacity="0.1" stroke="#000000" stroke-width="1" x1="40" y1="589" x2="1023" y2="589"/>
<line opacity="0.1" stroke="#000000" stroke-width="1" x1="40" y1="582" x2="1023" y2="582"/>
<line opacity="0.1" stroke="#000000" stroke-width="1" x1="40" y1="575" x2="1023" y2="575"/>
<line opacity="0.1" stroke="#000000" stroke-width="1" x1="40" y1="568" x2="1023" y2="568"/>
<line opacity="0.1" stroke="#000000" stroke-width="1" x1="40" y1="561" x2="1023" y2="561"/>
<line opacity="0.1" stroke="#000000" stroke-width="1" x1="40" y1="554" x2="1023" y2="554"/>
<line opacity="0.1" stroke="#000000" stroke-width="1" x1="40" y1="547" x2="1023" y2="547"/>
<line opacity="0.1" stroke="#000000" stroke-width="1" x1="40" y1="541" x2="1023" y2="541"/>
<line opacity="0.1" stroke="#000000" stroke-width="1" x1="40" y1="534" x2="1023" y2="534"/>
<line opacity="0.1" stroke="#000000" stroke-width="1" x1="40" y1="527" x2="1023" y2="527"/>
<line opacity="0.1" stroke="#000000" stroke-width="1" x1="40" y1="520" x2="1023" y2="520"/>
<line opacity="0.1" stroke="#000000" stroke-width="1" x1="40" y1="513" x2="1023" y2="513"/>
<line opacity="0.1" stroke="#000000" stroke-width="1" x1="40" y1="506" x2="1023" y2="506"/>
<line opacity="0.1" stroke="#000000" stroke-width="1" x1="40" y1="499" x2="1023" y2="499"/>
<line opacity="0.1" stroke="#000000" stroke-width="1" x1="40" y1="492" x2="1023" y2="492"/>
<line opacity="0.1" stroke="#000000" stroke-width="1" x1="40" y1="485" x2="1023" y2="485"/>
<line opacity="0.1" stroke="#000000" stroke-width="1" x1="40" y1="478" x2="1023" y2="478"/>
<line opacity="0.1" stroke="#000000" stroke-width="1" x1="40" y1="471" x2="1023" y2="471"/>
<line opacity="0.1" stroke="#000000" stroke-width="1" x1="40" y1="464" x2="1023" y2="464"/>
<line opacity="0.1" stroke="#000000" stroke-width="1" x1="40" y1="457" x2="1023" y2="457"/>
<line opacity="0.1" stroke="#000000" stroke-width="1" x1="40" y1="451" x2="1023" y2="451"/>
<line opacity="0.1" stroke="#000000" stroke-width="1" x1="40" y1="444" x2="1023" y2="444"/>
<line opacity="0.1" stroke="#000000" stroke-width="1" x1="40" y1="437" x2="1023" y2="437"/>
<line opacity="0.1" stroke="#000000" stroke-width="1" x1="40" y1="430" x2="1023" y2="430"/>
<line opacity="0.1" stroke="#000000" stroke-width="1" x1="40" y1="423" x2="1023" y2="423"/>
<line opacity="0.1" stroke="#000000" stroke-width="1" x1="40" y1="416" x2="1023" y2="416"/>
<line opacity="0.1" stroke="#000000" stroke-width="1" x1="40" y1="409" x2="1023" y2="409"/>
<line opacity="0.1" stroke="#000000" stroke-width="1" x1="40" y1="402" x2="1023" y2="402"/>
<line opacity="0.1" stroke="#000000" stroke-width="1" x1="40" y1="395" x2="1023" y2="395"/>
<line opacity="0.1" stroke="#000000" stroke-width="1" x1="40" y1="388" x2="1023" y2="388"/>
<line opacity="0.1" stroke="#000000" stroke-width="1" x1="40" y1="381" x2="1023" y2="381"/>
<line opacity="0.1" stroke="#000000" stroke-width="1" x1="40" y1="374" x2="1023" y2="374"/>
<line opacity="0.1" stroke="#000000" stroke-width="1" x1="40" y1="367" x2="1023" y2="367"/>
<line opacity="0.1" stroke="#000000" stroke-width="1" x1="40" y1="361" x2="1023" y2="361"/>
<line opacity="0.1" stroke="#000000" stroke-width="1" x1="40" y1="354" x2="1023" y2="354"/>
<line opacity="0.1" stroke="#000000" stroke-width="1" x1="40" y1="347" x2="1023" y2="347"/>
<line opacity="0.1" stroke="#000000" stroke-width="1" x1="40" y1="340" x2="1023" y2="340"/>
<line opacity="0.1" stroke="#000000" stroke-width="1" x1="40" y1="333" x2="1023" y2="333"/>
<line opacity="0.1" stroke="#000000" stroke-width="1" x1="40" y1="326" x2="1023" y2="326"/>
<line opacity="0.1" stroke="#000000" stroke-width="1" x1="40" y1="319" x2="1023" y2="319"/>
<line opacity="0.1" stroke="#000000" stroke-width="1" x1="40" y1="312" x2="1023" y2="312"/>
<line opacity="0.1" stroke="#000000" stroke-width="1" x1="40" y1="305" x2="1023" y2="305"/>
<line opacity="0.1" stroke="#000000" stroke-width="1" x1="40" y1="298" x2="1023" y2="298"/>
<line opacity="0.1" stroke="#000000" stroke-width="1" x1="40" y1="291" x2="1023" y2="291"/>
<line opacity="0.1" stroke="#000000" stroke-width="1" x1="40" y1="284" x2="1023" y2="284"/>
<line opacity="0.1" stroke="#000000" stroke-width="1" x1="40" y1="277" x2="1023" y2="277"/>
<line opacity="0.1" stroke="#000000" stroke-width="1" x1="40" y1="271" x2="1023" y2="271"/>
<line opacity="0.1" stroke="#000000" stroke-width="1" x1="40" y1="264" x2="1023" y2="264"/>
<line opacity="0.1" stroke="#000000" stroke-width="1" x1="40" y1="257" x2="1023" y2="257"/>
<line opacity="0.1" stroke="#000000" stroke-width="1" x1="40" y1="250" x2="1023" y2="250"/>
<line opacity="0.1" stroke="#000000" stroke-width="1" x1="40" y1="243" x2="1023" y2="243"/>
<line opacity="0.1" stroke="#000000" stroke-width="1" x1="40" y1="236" x2="1023" y2="236"/>
<line opacity="0.1" stroke="#000000" stroke-width="1" x1="40" y1="229" x2="1023" y2="229"/>
<line opacity="0.1" stroke="#000000" stroke-width="1" x1="40" y1="222" x2="1023" y2="222"/>
<line opacity="0.1" stroke="#000000" stroke-width="1" x1="40" y1="215" x2="1023" y2="215"/>
<line opacity="0.1" stroke="#000000" stroke-width="1" x1="40" y1="208" x2="1023" y2="208"/>
<line opacity="0.1" stroke="#000000" stroke-width="1" x1="40" y1="201" x2="1023" y2="201"/>
<line opacity="0.1" stroke="#000000" stroke-width="1" x1="40" y1="194" x2="1023" y2="194"/>
<line opacity="0.1" stroke="#000000" stroke-width="1" x1="40" y1="187" x2="1023" y2="187"/>
<line opacity="0.1" stroke="#000000" stroke-width="1" x1="40" y1="181" x2="1023" y2="181"/>
<line opacity="0.1" stroke="#000000" stroke-width="1" x1="40" y1="174" x2="1023" y2="174"/>
<line opacity="0.1" stroke="#000000" stroke-width="1" x1="40" y1="167" x2="1023" y2="167"/>
<line opacity="0.1" stroke="#000000" stroke-width="1" x1="40" y1="160" x2="1023" y2="160"/>
<line opacity="0.1" stroke="#000000" stroke-width="1" x1="40" y1="153" x2="1023" y2="153"/>
<line opacity="0.1" stroke="#000000" stroke-width="1" x1="40" y1="146" x2="1023" y2="146"/>
<line opacity="0.1" stroke="#000000" stroke-width="1" x1="40" y1="139" x2="1023" y2="139"/>
<line opacity="0.1" stroke="#000000" stroke-width="1" x1="40" y1="132" x2="1023" y2="132"/>
<line opacity="0.1" stroke="#000000" stroke-width="1" x1="40" y1="125" x2="1023" y2="125"/>
<line opacity="0.1" stroke="#000000" stroke-width="1" x1="40" y1="118" x2="1023" y2="118"/>
<line opacity="0.1" stroke="#000000" stroke-width="1" x1="40" y1="111" x2="1023" y2="111"/>
<line opacity="0.1" stroke="#000000" stroke-width="1" x1="40" y1="104" x2="1023" y2="104"/>
<line opacity="0.1" stroke="#000000" stroke-width="1" x1="40" y1="97" x2="1023" y2="97"/>
<line opacity="0.1" stroke="#000000" stroke-width="1" x1="40" y1="91" x2="1023" y2="91"/>
<line opacity="0.1" stroke="#000000" stroke-width="1" x1="40" y1="84" x2="1023" y2="84"/>
<line opacity="0.1" stroke="#000000" stroke-width="1" x1="40" y1="77" x2="1023" y2="77"/>
<line opacity="0.1" stroke="#000000" stroke-width="1" x1="40" y1="70" x2="1023" y2="70"/>
<line opacity="0.1" stroke="#000000" stroke-width="1" x1="40" y1="63" x2="1023" y2="63"/>
<line opacity="0.1" stroke="#000000" stroke-width="1" x1="40" y1="56" x2="1023" y2="56"/>
<line opacity="0.1" stroke="#000000" stroke-width="1" x1="40" y1="49" x2="1023" y2="49"/>
<line opacity="0.1" stroke="#000000" stroke-width="1" x1="40" y1="42" x2="1023" y2="42"/>
<line opacity="0.1" stroke="#000000" stroke-width="1" x1="40" y1="35" x2="1023" y2="35"/>
<line opacity="0.1" stroke="#000000" stroke-width="1" x1="40" y1="28" x2="1023" y2="28"/>
<line opacity="0.1" stroke="#000000" stroke-width="1" x1="40" y1="21" x2="1023" y2="21"/>
<line opacity="0.1" stroke="#000000" stroke-width="1" x1="40" y1="14" x2="1023" y2="14"/>
<line opacity="0.1" stroke="#000000" stroke-width="1" x1="40" y1="7" x2="1023" y2="7"/>
<line opacity="0.2" stroke="#000000" stroke-width="1" x1="40" y1="727" x2="40" y2="0"/>
<line opacity="0.2" stroke="#000000" stroke-width="1" x1="177" y1="727" x2="177" y2="0"/>
<line opacity="0.2" stroke="#000000" stroke-width="1" x1="314" y1="727" x2="314" y2="0"/>
<line opacity="0.2" stroke="#000000" stroke-width="1" x1="451" y1="727" x2="451" y2="0"/>
<line opacity="0.2" stroke="#000000" stroke-width="1" x1="588" y1="727" x2="588" y2="0"/>
<line opacity="0.2" stroke="#000000" stroke-width="1" x1="725" y1="727" x2="725" y2="0"/>
<line opacity="0.2" stroke="#000000" stroke-width="1" x1="863" y1="727" x2="863" y2="0"/>
<line opacity="0.2" stroke="#000000" stroke-width="1" x1="1000" y1="727" x2="1000" y2="0"/>
<line opacity="0.2" stroke="#000000" stroke-width="1" x1="40" y1="727" x2="1023" y2="727"/>
<line opacity="0.2" stroke="#000000" stroke-width="1" x1="40" y1="658" x2="1023" y2="658"/>
<line opacity="0.2" stroke="#000000" stroke-width="1" x1="40" y1="589" x2="1023" y2="589"/>
<line opacity="0.2" stroke="#000000" stroke-width="1" x1="40" y1="520" x2="1023" y2="520"/>
<line opacity="0.2" stroke="#000000" stroke-width="1" x1="40" y1="451" x2="1023" y2="451"/>
<line opacity="0.2" stroke="#000000" stroke-width="1" x1="40" y1="381" x2="1023" y2="381"/>
<line opacity="0.2" stroke="#000000" stroke-width="1" x1="40" y1="312" x2="1023" y2="312"/>
<line opacity="0.2" stroke="#000000" stroke-width="1" x1="40" y1="243" x2="1023" y2="243"/>
<line opacity="0.2" stroke="#000000" stroke-width="1" x1="40" y1="174" x2="1023" y2="174"/>
<line opacity="0.2" stroke="#000000" stroke-width="1" x1="40" y1="104" x2="1023" y2="104"/>
<line opacity="0.2" stroke="#000000" stroke-width="1" x1="40" y1="35" x2="1023" y2="35"/>
<polyline fill="none" opacity="1" stroke="#000000" stroke-width="1" points="39,0 39,727 "/>
<text x="30" y="727" dy="0.5ex" text-anchor="end" font-family="sans-serif" font-size="9.67741935483871" opacity="1" fill="#000000">
0.0
</text>
<polyline fill="none" opacity="1" stroke="#000000" stroke-width="1" points="34,727 39,727 "/>
<text x="30" y="658" dy="0.5ex" text-anchor="end" font-family="sans-serif" font-size="9.67741935483871" opacity="1" fill="#000000">
0.1
</text>
<polyline fill="none" opacity="1" stroke="#000000" stroke-width="1" points="34,658 39,658 "/>
<text x="30" y="589" dy="0.5ex" text-anchor="end" font-family="sans-serif" font-size="9.67741935483871" opacity="1" fill="#000000">
0.2
</text>
<polyline fill="none" opacity="1" stroke="#000000" stroke-width="1" points="34,589 39,589 "/>
<text x="30" y="520" dy="0.5ex" text-anchor="end" font-family="sans-serif" font-size="9.67741935483871" opacity="1" fill="#000000">
0.3
</text>
<polyline fill="none" opacity="1" stroke="#000000" stroke-width="1" points="34,520 39,520 "/>
<text x="30" y="451" dy="0.5ex" text-anchor="end" font-family="sans-serif" font-size="9.67741935483871" opacity="1" fill="#000000">
0.4
</text>
<polyline fill="none" opacity="1" stroke="#000000" stroke-width="1" points="34,451 39,451 "/>
<text x="30" y="381" dy="0.5ex" text-anchor="end" font-family="sans-serif" font-size="9.67741935483871" opacity="1" fill="#000000">
0.5
</text>
<polyline fill="none" opacity="1" stroke="#000000" stroke-width="1" points="34,381 39,381 "/>
<text x="30" y="312" dy="0.5ex" text-anchor="end" font-family="sans-serif" font-size="9.67741935483871" opacity="1" fill="#000000">
0.6
</text>
<polyline fill="none" opacity="1" stroke="#000000" stroke-width="1" points="34,312 39,312 "/>
<text x="30" y="243" dy="0.5ex" text-anchor="end" font-family="sans-serif" font-size="9.67741935483871" opacity="1" fill="#000000">
0.7
</text>
<polyline fill="none" opacity="1" stroke="#000000" stroke-width="1" points="34,243 39,243 "/>
<text x="30" y="174" dy="0.5ex" text-anchor="end" font-family="sans-serif" font-size="9.67741935483871" opacity="1" fill="#000000">
0.8
</text>
<polyline fill="none" opacity="1" stroke="#000000" stroke-width="1" points="34,174 39,174 "/>
<text x="30" y="104" dy="0.5ex" text-anchor="end" font-family="sans-serif" font-size="9.67741935483871" opacity="1" fill="#000000">
0.9
</text>
<polyline fill="none" opacity="1" stroke="#000000" stroke-width="1" points="34,104 39,104 "/>
<text x="30" y="35" dy="0.5ex" text-anchor="end" font-family="sans-serif" font-size="9.67741935483871" opacity="1" fill="#000000">
1.0
</text>
<polyline fill="none" opacity="1" stroke="#000000" stroke-width="1" points="34,35 39,35 "/>
<polyline fill="none" opacity="1" stroke="#000000" stroke-width="1" points="40,728 1023,728 "/>
<text x="40" y="738" dy="0.76em" text-anchor="middle" font-family="sans-serif" font-size="9.67741935483871" opacity="1" fill="#000000">
0.0
</text>
<polyline fill="none" opacity="1" stroke="#000000" stroke-width="1" points="40,728 40,733 "/>
<text x="177" y="738" dy="0.76em" text-anchor="middle" font-family="sans-serif" font-size="9.67741935483871" opacity="1" fill="#000000">
5000.0
</text>
<polyline fill="none" opacity="1" stroke="#000000" stroke-width="1" points="177,728 177,733 "/>
<text x="314" y="738" dy="0.76em" text-anchor="middle" font-family="sans-serif" font-size="9.67741935483871" opacity="1" fill="#000000">
10000.0
</text>
<polyline fill="none" opacity="1" stroke="#000000" stroke-width="1" points="314,728 314,733 "/>
<text x="451" y="738" dy="0.76em" text-anchor="middle" font-family="sans-serif" font-size="9.67741935483871" opacity="1" fill="#000000">
15000.0
</text>
<polyline fill="none" opacity="1" stroke="#000000" stroke-width="1" points="451,728 451,733 "/>
<text x="588" y="738" dy="0.76em" text-anchor="middle" font-family="sans-serif" font-size="9.67741935483871" opacity="1" fill="#000000">
20000.0
</text>
<polyline fill="none" opacity="1" stroke="#000000" stroke-width="1" points="588,728 588,733 "/>
<text x="725" y="738" dy="0.76em" text-anchor="middle" font-family="sans-serif" font-size="9.67741935483871" opacity="1" fill="#000000">
25000.0
</text>
<polyline fill="none" opacity="1" stroke="#000000" stroke-width="1" points="725,728 725,733 "/>
<text x="863" y="738" dy="0.76em" text-anchor="middle" font-family="sans-serif" font-size="9.67741935483871" opacity="1" fill="#000000">
30000.0
</text>
<polyline fill="none" opacity="1" stroke="#000000" stroke-width="1" points="863,728 863,733 "/>
<text x="1000" y="738" dy="0.76em" text-anchor="middle" font-family="sans-serif" font-size="9.67741935483871" opacity="1" fill="#000000">
35000.0
</text>
<polyline fill="none" opacity="1" stroke="#000000" stroke-width="1" points="1000,728 1000,733 "/>
<polyline fill="none" opacity="1" stroke="#000000" stroke-width="2" points="40,727 40,724 40,721 41,717 41,714 42,710 42,707 43,703 43,700 43,696 43,693 43,689 43,686 43,682 44,679 44,676 44,672 45,669 45,665 45,662 45,658 45,655 45,651 46,648 46,644 46,641 46,637 46,634 46,631 47,627 47,624 47,620 47,617 48,613 48,610 48,606 49,603 49,599 49,596 49,592 49,589 49,586 49,582 50,579 50,575 50,572 51,568 51,565 51,561 52,558 52,554 52,551 52,547 52,544 53,541 54,537 54,534 54,530 54,527 54,523 54,520 55,516 55,513 55,509 56,506 56,502 56,499 56,496 56,492 57,489 57,485 57,482 58,478 58,475 59,471 60,468 60,464 60,461 60,457 61,454 61,451 62,447 62,444 63,440 63,437 63,433 64,430 64,426 64,423 65,419 65,416 65,412 65,409 66,406 66,402 66,399 66,395 66,392 66,388 66,385 66,381 67,378 67,374 67,371 68,367 70,364 70,361 70,357 70,354 71,350 71,347 72,343 72,340 73,336 74,333 74,329 74,326 75,322 76,319 77,316 77,312 77,309 78,305 79,302 79,298 80,295 81,291 81,288 81,284 81,281 81,277 83,274 83,271 83,267 83,264 84,260 85,257 86,253 87,250 87,246 87,243 87,239 88,236 89,232 89,229 89,226 89,222 89,219 90,215 91,212 91,208 92,205 92,201 94,198 95,194 95,191 97,187 97,184 98,181 99,177 101,174 102,170 103,167 103,163 106,160 109,156 110,153 110,149 110,146 111,142 111,139 115,136 119,132 122,129 122,125 126,122 127,118 127,115 127,111 128,108 129,104 130,101 134,97 140,94 140,91 148,87 153,84 153,80 154,77 159,73 161,70 162,66 172,63 178,59 185,56 186,52 205,49 349,46 789,42 1022,39 "/>
</svg>
