<svg width="1024" height="768" viewBox="0 0 1024 768" xmlns="http://www.w3.org/2000/svg">
<rect x="0" y="0" width="1024" height="768" opacity="1" fill="#FFFFFF" stroke="none"/>
<line opacity="0.1" stroke="#000000" stroke-width="1" x1="40" y1="727" x2="40" y2="0"/>
<line opacity="0.1" stroke="#000000" stroke-width="1" x1="48" y1="727" x2="48" y2="0"/>
<line opacity="0.1" stroke="#000000" stroke-width="1" x1="57" y1="727" x2="57" y2="0"/>
<line opacity="0.1" stroke="#000000" stroke-width="1" x1="66" y1="727" x2="66" y2="0"/>
<line opacity="0.1" stroke="#000000" stroke-width="1" x1="75" y1="727" x2="75" y2="0"/>
<line opacity="0.1" stroke="#000000" stroke-width="1" x1="84" y1="727" x2="84" y2="0"/>
<line opacity="0.1" stroke="#000000" stroke-width="1" x1="93" y1="727" x2="93" y2="0"/>
<line opacity="0.1" stroke="#000000" stroke-width="1" x1="102" y1="727" x2="102" y2="0"/>
<line opacity="0.1" stroke="#000000" stroke-width="1" x1="111" y1="727" x2="111" y2="0"/>
<line opacity="0.1" stroke="#000000" stroke-width="1" x1="120" y1="727" x2="120" y2="0"/>
<line opacity="0.1" stroke="#000000" stroke-width="1" x1="129" y1="727" x2="129" y2="0"/>
<line opacity="0.1" stroke="#000000" stroke-width="1" x1="138" y1="727" x2="138" y2="0"/>
<line opacity="0.1" stroke="#000000" stroke-width="1" x1="147" y1="727" x2="147" y2="0"/>
<line opacity="0.1" stroke="#000000" stroke-width="1" x1="156" y1="727" x2="156" y2="0"/>
<line opacity="0.1" stroke="#000000" stroke-width="1" x1="165" y1="727" x2="165" y2="0"/>
<line opacity="0.1" stroke="#000000" stroke-width="1" x1="174" y1="727" x2="174" y2="0"/>
<line opacity="0.1" stroke="#000000" stroke-width="1" x1="183" y1="727" x2="183" y2="0"/>
<line opacity="0.1" stroke="#000000" stroke-width="1" x1="192" y1="727" x2="192" y2="0"/>
<line opacity="0.1" stroke="#000000" stroke-width="1" x1="201" y1="727" x2="201" y2="0"/>
<line opacity="0.1" stroke="#000000" stroke-width="1" x1="210" y1="727" x2="210" y2="0"/>
<line opacity="0.1" stroke="#000000" stroke-width="1" x1="219" y1="727" x2="219" y2="0"/>
<line opacity="0.1" stroke="#000000" stroke-width="1" x1="228" y1="727" x2="228" y2="0"/>
<line opacity="0.1" stroke="#000000" stroke-width="1" x1="237" y1="727" x2="237" y2="0"/>
<line opacity="0.1" stroke="#000000" stroke-width="1" x1="246" y1="727" x2="246" y2="0"/>
<line opacity="0.1" stroke="#000000" stroke-width="1" x1="255" y1="727" x2="255" y2="0"/>
<line opacity="0.1" stroke="#000000" stroke-width="1" x1="264" y1="727" x2="264" y2="0"/>
<line opacity="0.1" stroke="#000000" stroke-width="1" x1="273" y1="727" x2="273" y2="0"/>
<line opacity="0.1" stroke="#000000" stroke-width="1" x1="282" y1="727" x2="282" y2="0"/>
<line opacity="0.1" stroke="#000000" stroke-width="1" x1="291" y1="727" x2="291" y2="0"/>
<line opacity="0.1" stroke="#000000" stroke-width="1" x1="300" y1="727" x2="300" y2="0"/>
<line opacity="0.1" stroke="#000000" stroke-width="1" x1="309" y1="727" x2="309" y2="0"/>
<line opacity="0.1" stroke="#000000" stroke-width="1" x1="318" y1="727" x2="318" y2="0"/>
<line opacity="0.1" stroke="#000000" stroke-width="1" x1="327" y1="727" x2="327" y2="0"/>
<line opacity="0.1" stroke="#000000" stroke-width="1" x1="336" y1="727" x2="336" y2="0"/>
<line opacity="0.1" stroke="#000000" stroke-width="1" x1="345" y1="727" x2="345" y2="0"/>
<line opacity="0.1" stroke="#000000" stroke-width="1" x1="354" y1="727" x2="354" y2="0"/>
<line opacity="0.1" stroke="#000000" stroke-width="1" x1="363" y1="727" x2="363" y2="0"/>
<line opacity="0.1" stroke="#000000" stroke-width="1" x1="372" y1="727" x2="372" y2="0"/>
<line opacity="0.1" stroke="#000000" stroke-width="1" x1="381" y1="727" x2="381" y2="0"/>
<line opacity="0.1" stroke="#000000" stroke-width="1" x1="390" y1="727" x2="390" y2="0"/>
<line opacity="0.1" stroke="#000000" stroke-width="1" x1="399" y1="727" x2="399" y2="0"/>
<line opacity="0.1" stroke="#000000" stroke-width="1" x1="408" y1="727" x2="408" y2="0"/>
<line opacity="0.1" stroke="#000000" stroke-width="1" x1="417" y1="727" x2="417" y2="0"/>
<line opacity="0.1" stroke="#000000" stroke-width="1" x1="426" y1="727" x2="426" y2="0"/>
<line opacity="0.1" stroke="#000000" stroke-width="1" x1="435" y1="727" x2="435" y2="0"/>
<line opacity="0.1" stroke="#000000" stroke-width="1" x1="444" y1="727" x2="444" y2="0"/>
<line opacity="0.1" stroke="#000000" stroke-width="1" x1="453" y1="727" x2="453" y2="0"/>
<line opacity="0.1" stroke="#000000" stroke-width="1" x1="462" y1="727" x2="462" y2="0"/>
<line opacity="0.1" stroke="#000000" stroke-width="1" x1="471" y1="727" x2="471" y2="0"/>
<line opacity="0.1" stroke="#000000" stroke-width="1" x1="480" y1="727" x2="480" y2="0"/>
<line opacity="0.1" stroke="#000000" stroke-width="1" x1="489" y1="727" x2="489" y2="0"/>
<line opacity="0.1" stroke="#000000" stroke-width="1" x1="498" y1="727" x2="498" y2="0"/>
<line opacity="0.1" stroke="#000000" stroke-width="1" x1="507" y1="727" x2="507" y2="0"/>
<line opacity="0.1" stroke="#000000" stroke-width="1" x1="516" y1="727" x2="516" y2="0"/>
<line opacity="0.1" stroke="#000000" stroke-width="1" x1="525" y1="727" x2="525" y2="0"/>
<line opacity="0.1" stroke="#000000" stroke-width="1" x1="534" y1="727" x2="534" y2="0"/>
<line opacity="0.1" stroke="#000000" stroke-width="1" x1="543" y1="727" x2="543" y2="0"/>
<line opacity="0.1" stroke="#000000" stroke-width="1" x1="552" y1="727" x2="552" y2="0"/>
<line opacity="0.1" stroke="#000000" stroke-width="1" x1="561" y1="727" x2="561" y2="0"/>
<line opacity="0.1" stroke="#000000" stroke-width="1" x1="570" y1="727" x2="570" y2="0"/>
<line opacity="0.1" stroke="#000000" stroke-width="1" x1="579" y1="727" x2="579" y2="0"/>
<line opacity="0.1" stroke="#000000" stroke-width="1" x1="588" y1="727" x2="588" y2="0"/>
<line opacity="0.1" stroke="#000000" stroke-width="1" x1="597" y1="727" x2="597" y2="0"/>
<line opacity="0.1" stroke="#000000" stroke-width="1" x1="606" y1="727" x2="606" y2="0"/>
<line opacity="0.1" stroke="#000000" stroke-width="1" x1="615" y1="727" x2="615" y2="0"/>
<line opacity="0.1" stroke="#000000" stroke-width="1" x1="624" y1="727" x2="624" y2="0"/>
<line opacity="0.1" stroke="#000000" stroke-width="1" x1="633" y1="727" x2="633" y2="0"/>
<line opacity="0.1" stroke="#000000" stroke-width="1" x1="642" y1="727" x2="642" y2="0"/>
<line opacity="0.1" stroke="#000000" stroke-width="1" x1="651" y1="727" x2="651" y2="0"/>
<line opacity="0.1" stroke="#000000" stroke-width="1" x1="660" y1="727" x2="660" y2="0"/>
<line opacity="0.1" stroke="#000000" stroke-width="1" x1="669" y1="727" x2="669" y2="0"/>
<line opacity="0.1" stroke="#000000" stroke-width="1" x1="678" y1="727" x2="678" y2="0"/>
<line opacity="0.1" stroke="#000000" stroke-width="1" x1="687" y1="727" x2="687" y2="0"/>
<line opacity="0.1" stroke="#000000" stroke-width="1" x1="696" y1="727" x2="696" y2="0"/>
<line opacity="0.1" stroke="#000000" stroke-width="1" x1="705" y1="727" x2="705" y2="0"/>
<line opacity="0.1" stroke="#000000" stroke-width="1" x1="714" y1="727" x2="714" y2="0"/>
<line opacity="0.1" stroke="#000000" stroke-width="1" x1="723" y1="727" x2="723" y2="0"/>
<line opacity="0.1" stroke="#000000" stroke-width="1" x1="732" y1="727" x2="732" y2="0"/>
<line opacity="0.1" stroke="#000000" stroke-width="1" x1="741" y1="727" x2="741" y2="0"/>
<line opacity="0.1" stroke="#000000" stroke-width="1" x1="750" y1="727" x2="750" y2="0"/>
<line opacity="0.1" stroke="#000000" stroke-width="1" x1="759" y1="727" x2="759" y2="0"/>
<line opacity="0.1" stroke="#000000" stroke-width="1" x1="768" y1="727" x2="768" y2="0"/>
<line opacity="0.1" stroke="#000000" stroke-width="1" x1="777" y1="727" x2="777" y2="0"/>
<line opacity="0.1" stroke="#000000" stroke-width="1" x1="786" y1="727" x2="786" y2="0"/>
<line opacity="0.1" stroke="#000000" stroke-width="1" x1="795" y1="727" x2="795" y2="0"/>
<line opacity="0.1" stroke="#000000" stroke-width="1" x1="804" y1="727" x2="804" y2="0"/>
<line opacity="0.1" stroke="#000000" stroke-width="1" x1="813" y1="727" x2="813" y2="0"/>
<line opacity="0.1" stroke="#000000" stroke-width="1" x1="822" y1="727" x2="822" y2="0"/>
<line opacity="0.1" stroke="#000000" stroke-width="1" x1="831" y1="727" x2="831" y2="0"/>
<line opacity="0.1" stroke="#000000" stroke-width="1" x1="840" y1="727" x2="840" y2="0"/>
<line opacity="0.1" stroke="#000000" stroke-width="1" x1="849" y1="727" x2="849" y2="0"/>
<line opacity="0.1" stroke="#000000" stroke-width="1" x1="858" y1="727" x2="858" y2="0"/>
<line opacity="0.1" stroke="#000000" stroke-width="1" x1="867" y1="727" x2="867" y2="0"/>
<line opacity="0.1" stroke="#000000" stroke-width="1" x1="876" y1="727" x2="876" y2="0"/>
<line opacity="0.1" stroke="#000000" stroke-width="1" x1="885" y1="727" x2="885" y2="0"/>
<line opacity="0.1" stroke="#000000" stroke-width="1" x1="894" y1="727" x2="894" y2="0"/>
<line opacity="0.1" stroke="#000000" stroke-width="1" x1="903" y1="727" x2="903" y2="0"/>
<line opacity="0.1" stroke="#000000" stroke-width="1" x1="912" y1="727" x2="912" y2="0"/>
<line opacity="0.1" stroke="#000000" stroke-width="1" x1="921" y1="727" x2="921" y2="0"/>
<line opacity="0.1" stroke="#000000" stroke-width="1" x1="930" y1="727" x2="930" y2="0"/>
<line opacity="0.1" stroke="#000000" stroke-width="1" x1="939" y1="727" x2="939" y2="0"/>
<line opacity="0.1" stroke="#000000" stroke-width="1" x1="948" y1="727" x2="948" y2="0"/>
<line opacity="0.1" stroke="#000000" stroke-width="1" x1="957" y1="727" x2="957" y2="0"/>
<line opacity="0.1" stroke="#000000" stroke-width="1" x1="966" y1="727" x2="966" y2="0"/>
<line opacity="0.1" stroke="#000000" stroke-width="1" x1="975" y1="727" x2="975" y2="0"/>
<line opacity="0.1" stroke="#000000" stroke-width="1" x1="984" y1="727" x2="984" y2="0"/>
<line opacity="0.1" stroke="#000000" stroke-width="1" x1="993" y1="727" x2="993" y2="0"/>
<line opacity="0.1" stroke="#000000" stroke-width="1" x1="1002" y1="727" x2="1002" y2="0"/>
<line opacity="0.1" stroke="#000000" stroke-width="1" x1="1011" y1="727" x2="1011" y2="0"/>
<line opacity="0.1" stroke="#000000" stroke-width="1" x1="1020" y1="727" x2="1020" y2="0"/>
<line opacity="0.1" stroke="#000000" stroke-width="1" x1="40" y1="727" x2="1023" y2="727"/>
<line opacity="0.1" stroke="#000000" stroke-width="1" x1="40" y1="721" x2="1023" y2="721"/>
<line opacity="0.1" stroke="#000000" stroke-width="1" x1="40" y1="714" x2="1023" y2="714"/>
<line opacity="0.1" stroke="#000000" stroke-width="1" x1="40" y1="707" x2="1023" y2="707"/>
<line opacity="0.1" stroke="#000000" stroke-width="1" x1="40" y1="700" x2="1023" y2="700"/>
<line opacity="0.1" stroke="#000000" stroke-width="1" x1="40" y1="693" x2="1023" y2="693"/>
<line opacity="0.1" stroke="#000000" stroke-width="1" x1="40" y1="686" x2="1023" y2="686"/>
<line opacity="0.1" stroke="#000000" stroke-width="1" x1="40" y1="679" x2="1023" y2="679"/>
<line opacity="0.1" stroke="#000000" stroke-width="1" x1="40" y1="672" x2="1023" y2="672"/>
<line opacity="0.1" stroke="#000000" stroke-width="1" x1="40" y1="665" x2="1023" y2="665"/>
<line opacity="0.1" stroke="#000000" stroke-width="1" x1="40" y1="658" x2="1023" y2="658"/>
<line opacity="0.1" stroke="#000000" stroke-width="1" x1="40" y1="651" x2="1023" y2="651"/>
<line opacity="0.1" stroke="#000000" stroke-width="1" x1="40" y1="644" x2="1023" y2="644"/>
<line opacity="0.1" stroke="#000000" stroke-width="1" x1="40" y1="637" x2="1023" y2="637"/>
<line opacity="0.1" stroke="#000000" stroke-width="1" x1="40" y1="631" x2="1023" y2="631"/>
<line opacity="0.1" stroke="#000000" stroke-width="1" x1="40" y1="624" x2="1023" y2="624"/>
<line opacity="0.1" stroke="#000000" stroke-width="1" x1="40" y1="617" x2="1023" y2="617"/>
<line opacity="0.1" stroke="#000000" stroke-width="1" x1="40" y1="610" x2="1023" y2="610"/>
<line opacity="0.1" stroke="#000000" stroke-width="1" x1="40" y1="603" x2="1023" y2="603"/>
<line opacity="0.1" stroke="#000000" stroke-width="1" x1="40" y1="596" x2="1023" y2="596"/>
<line opacity="0.1" stroke="#000000" stroke-width="1" x1="40" y1="589" x2="1023" y2="589"/>
<line opacity="0.1" stroke="#000000" stroke-width="1" x1="40" y1="582" x2="1023" y2="582"/>
<line opacity="0.1" stroke="#000000" stroke-width="1" x1="40" y1="575" x2="1023" y2="575"/>
<line opacity="0.1" stroke="#000000" stroke-width="1" x1="40" y1="568" x2="1023" y2="568"/>
<line opacity="0.1" stroke="#000000" stroke-width="1" x1="40" y1="561" x2="1023" y2="561"/>
<line opacity="0.1" stroke="#000000" stroke-width="1" x1="40" y1="554" x2="1023" y2="554"/>
<line opacity="0.1" stroke="#000000" stroke-width="1" x1="40" y1="547" x2="1023" y2="547"/>
<line opacity="0.1" stroke="#000000" stroke-width="1" x1="40" y1="541" x2="1023" y2="541"/>
<line opacity="0.1" stroke="#000000" stroke-width="1" x1="40" y1="534" x2="1023" y2="534"/>
<line opacity="0.1" stroke="#000000" stroke-width="1" x1="40" y1="527" x2="1023" y2="527"/>
<line opacity="0.1" stroke="#000000" stroke-width="1" x1="40" y1="520" x2="1023" y2="520"/>
<line opacity="0.1" stroke="#000000" stroke-width="1" x1="40" y1="513" x2="1023" y2="513"/>
<line opacity="0.1" stroke="#000000" stroke-width="1" x1="40" y1="506" x2="1023" y2="506"/>
<line opacity="0.1" stroke="#000000" stroke-width="1" x1="40" y1="499" x2="1023" y2="499"/>
<line opacity="0.1" stroke="#000000" stroke-width="1" x1="40" y1="492" x2="1023" y2="492"/>
<line opacity="0.1" stroke="#000000" stroke-width="1" x1="40" y1="485" x2="1023" y2="485"/>
<line opacity="0.1" stroke="#000000" stroke-width="1" x1="40" y1="478" x2="1023" y2="478"/>
<line opacity="0.1" stroke="#000000" stroke-width="1" x1="40" y1="471" x2="1023" y2="471"/>
<line opacity="0.1" stroke="#000000" stroke-width="1" x1="40" y1="464" x2="1023" y2="464"/>
<line opacity="0.1" stroke="#000000" stroke-width="1" x1="40" y1="457" x2="1023" y2="457"/>
<line opacity="0.1" stroke="#000000" stroke-width="1" x1="40" y1="451" x2="1023" y2="451"/>
<line opacity="0.1" stroke="#000000" stroke-width="1" x1="40" y1="444" x2="1023" y2="444"/>
<line opacity="0.1" stroke="#000000" stroke-width="1" x1="40" y1="437" x2="1023" y2="437"/>
<line opacity="0.1" stroke="#000000" stroke-width="1" x1="40" y1="430" x2="1023" y2="430"/>
<line opacity="0.1" stroke="#000000" stroke-width="1" x1="40" y1="423" x2="1023" y2="423"/>
<line opacity="0.1" stroke="#000000" stroke-width="1" x1="40" y1="416" x2="1023" y2="416"/>
<line opacity="0.1" stroke="#000000" stroke-width="1" x1="40" y1="409" x2="1023" y2="409"/>
<line opacity="0.1" stroke="#000000" stroke-width="1" x1="40" y1="402" x2="1023" y2="402"/>
<line opacity="0.1" stroke="#000000" stroke-width="1" x1="40" y1="395" x2="1023" y2="395"/>
<line opacity="0.1" stroke="#000000" stroke-width="1" x1="40" y1="388" x2="1023" y2="388"/>
<line opacity="0.1" stroke="#000000" stroke-width="1" x1="40" y1="381" x2="1023" y2="381"/>
<line opacity="0.1" stroke="#000000" stroke-width="1" x1="40" y1="374" x2="1023" y2="374"/>
<line opacity="0.1" stroke="#000000" stroke-width="1" x1="40" y1="367" x2="1023" y2="367"/>
<line opacity="0.1" stroke="#000000" stroke-width="1" x1="40" y1="361" x2="1023" y2="361"/>
<line opacity="0.1" stroke="#000000" stroke-width="1" x1="40" y1="354" x2="1023" y2="354"/>
<line opacity="0.1" stroke="#000000" stroke-width="1" x1="40" y1="347" x2="1023" y2="347"/>
<line opacity="0.1" stroke="#000000" stroke-width="1" x1="40" y1="340" x2="1023" y2="340"/>
<line opacity="0.1" stroke="#000000" stroke-width="1" x1="40" y1="333" x2="1023" y2="333"/>
<line opacity="0.1" stroke="#000000" stroke-width="1" x1="40" y1="326" x2="1023" y2="326"/>
<line opacity="0.1" stroke="#000000" stroke-width="1" x1="40" y1="319" x2="1023" y2="319"/>
<line opacity="0.1" stroke="#000000" stroke-width="1" x1="40" y1="312" x2="1023" y2="312"/>
<line opacity="0.1" stroke="#000000" stroke-width="1" x1="40" y1="305" x2="1023" y2="305"/>
<line opacity="0.1" stroke="#000000" stroke-width="1" x1="40" y1="298" x2="1023" y2="298"/>
<line opacity="0.1" stroke="#000000" stroke-width="1" x1="40" y1="291" x2="1023" y2="291"/>
<line opacity="0.1" stroke="#000000" stroke-width="1" x1="40" y1="284" x2="1023" y2="284"/>
<line opacity="0.1" stroke="#000000" stroke-width="1" x1="40" y1="277" x2="1023" y2="277"/>
<line opacity="0.1" stroke="#000000" stroke-width="1" x1="40" y1="271" x2="1023" y2="271"/>
<line opacity="0.1" stroke="#000000" stroke-width="1" x1="40" y1="264" x2="1023" y2="264"/>
<line opacity="0.1" stroke="#000000" stroke-width="1" x1="40" y1="257" x2="1023" y2="257"/>
<line opacity="0.1" stroke="#000000" stroke-width="1" x1="40" y1="250" x2="1023" y2="250"/>
<line opacity="0.1" stroke="#000000" stroke-width="1" x1="40" y1="243" x2="1023" y2="243"/>
<line opacity="0.1" stroke="#000000" stroke-width="1" x1="40" y1="236" x2="1023" y2="236"/>
<line opacity="0.1" stroke="#000000" stroke-width="1" x1="40" y1="229" x2="1023" y2="229"/>
<line opacity="0.1" stroke="#000000" stroke-width="1" x1="40" y1="222" x2="1023" y2="222"/>
<line opacity="0.1" stroke="#000000" stroke-width="1" x1="40" y1="215" x2="1023" y2="215"/>
<line opacity="0.1" stroke="#000000" stroke-width="1" x1="40" y1="208" x2="1023" y2="208"/>
<line opacity="0.1" stroke="#000000" stroke-width="1" x1="40" y1="201" x2="1023" y2="201"/>
<line opacity="0.1" stroke="#000000" stroke-width="1" x1="40" y1="194" x2="1023" y2="194"/>
<line opacity="0.1" stroke="#000000" stroke-width="1" x1="40" y1="187" x2="1023" y2="187"/>
<line opacity="0.1" stroke="#000000" stroke-width="1" x1="40" y1="181" x2="1023" y2="181"/>
<line opacity="0.1" stroke="#000000" stroke-width="1" x1="40" y1="174" x2="1023" y2="174"/>
<line opacity="0.1" stroke="#000000" stroke-width="1" x1="40" y1="167" x2="1023" y2="167"/>
<line opacity="0.1" stroke="#000000" stroke-width="1" x1="40" y1="160" x2="1023" y2="160"/>
<line opacity="0.1" stroke="#000000" stroke-width="1" x1="40" y1="153" x2="1023" y2="153"/>
<line opacity="0.1" stroke="#000000" stroke-width="1" x1="40" y1="146" x2="1023" y2="146"/>
<line opacity="0.1" stroke="#000000" stroke-width="1" x1="40" y1="139" x2="1023" y2="139"/>
<line opacity="0.1" stroke="#000000" stroke-width="1" x1="40" y1="132" x2="1023" y2="132"/>
<line opacity="0.1" stroke="#000000" stroke-width="1" x1="40" y1="125" x2="1023" y2="125"/>
<line opacity="0.1" stroke="#000000" stroke-width="1" x1="40" y1="118" x2="1023" y2="118"/>
<line opacity="0.1" stroke="#000000" stroke-width="1" x1="40" y1="111" x2="1023" y2="111"/>
<line opacity="0.1" stroke="#000000" stroke-width="1" x1="40" y1="104" x2="1023" y2="104"/>
<line opacity="0.1" stroke="#000000" stroke-width="1" x1="40" y1="97" x2="1023" y2="97"/>
<line opacity="0.1" stroke="#000000" stroke-width="1" x1="40" y1="91" x2="1023" y2="91"/>
<line opacity="0.1" stroke="#000000" stroke-width="1" x1="40" y1="84" x2="1023" y2="84"/>
<line opacity="0.1" stroke="#000000" stroke-width="1" x1="40" y1="77" x2="1023" y2="77"/>
<line opacity="0.1" stroke="#000000" stroke-width="1" x1="40" y1="70" x2="1023" y2="70"/>
<line opacity="0.1" stroke="#000000" stroke-width="1" x1="40" y1="63" x2="1023" y2="63"/>
<line opacity="0.1" stroke="#000000" stroke-width="1" x1="40" y1="56" x2="1023" y2="56"/>
<line opacity="0.1" stroke="#000000" stroke-width="1" x1="40" y1="49" x2="1023" y2="49"/>
<line opacity="0.1" stroke="#000000" stroke-width="1" x1="40" y1="42" x2="1023" y2="42"/>
<line opacity="0.1" stroke="#000000" stroke-width="1" x1="40" y1="35" x2="1023" y2="35"/>
<line opacity="0.1" stroke="#000000" stroke-width="1" x1="40" y1="28" x2="1023" y2="28"/>
<line opacity="0.1" stroke="#000000" stroke-width="1" x1="40" y1="21" x2="1023" y2="21"/>
<line opacity="0.1" stroke="#000000" stroke-width="1" x1="40" y1="14" x2="1023" y2="14"/>
<line opacity="0.1" stroke="#000000" stroke-width="1" x1="40" y1="7" x2="1023" y2="7"/>
<line opacity="0.2" stroke="#000000" stroke-width="1" x1="40" y1="727" x2="40" y2="0"/>
<line opacity="0.2" stroke="#000000" stroke-width="1" x1="129" y1="727" x2="129" y2="0"/>
<line opacity="0.2" stroke="#000000" stroke-width="1" x1="219" y1="727" x2="219" y2="0"/>
<line opacity="0.2" stroke="#000000" stroke-width="1" x1="309" y1="727" x2="309" y2="0"/>
<line opacity="0.2" stroke="#000000" stroke-width="1" x1="399" y1="727" x2="399" y2="0"/>
<line opacity="0.2" stroke="#000000" stroke-width="1" x1="489" y1="727" x2="489" y2="0"/>
<line opacity="0.2" stroke="#000000" stroke-width="1" x1="579" y1="727" x2="579" y2="0"/>
<line opacity="0.2" stroke="#000000" stroke-width="1" x1="669" y1="727" x2="669" y2="0"/>
<line opacity="0.2" stroke="#000000" stroke-width="1" x1="759" y1="727" x2="759" y2="0"/>
<line opacity="0.2" stroke="#000000" stroke-width="1" x1="849" y1="727" x2="849" y2="0"/>
<line opacity="0.2" stroke="#000000" stroke-width="1" x1="939" y1="727" x2="939" y2="0"/>
<line opacity="0.2" stroke="#000000" stroke-width="1" x1="40" y1="727" x2="1023" y2="727"/>
<line opacity="0.2" stroke="#000000" stroke-width="1" x1="40" y1="658" x2="1023" y2="658"/>
<line opacity="0.2" stroke="#000000" stroke-width="1" x1="40" y1="589" x2="1023" y2="589"/>
<line opacity="0.2" stroke="#000000" stroke-width="1" x1="40" y1="520" x2="1023" y2="520"/>
<line opacity="0.2" stroke="#000000" stroke-width="1" x1="40" y1="451" x2="1023" y2="451"/>
<line opacity="0.2" stroke="#000000" stroke-width="1" x1="40" y1="381" x2="1023" y2="381"/>
<line opacity="0.2" stroke="#000000" stroke-width="1" x1="40" y1="312" x2="1023" y2="312"/>
<line opacity="0.2" stroke="#000000" stroke-width="1" x1="40" y1="243" x2="1023" y2="243"/>
<line opacity="0.2" stroke="#000000" stroke-width="1" x1="40" y1="174" x2="1023" y2="174"/>
<line opacity="0.2" stroke="#000000" stroke-width="1" x1="40" y1="104" x2="1023" y2="104"/>
<line opacity="0.2" stroke="#000000" stroke-width="1" x1="40" y1="35" x2="1023" y2="35"/>
<polyline fill="none" opacity="1" stroke="#000000" stroke-width="1" points="39,0 39,727 "/>
<text x="30" y="727" dy="0.5ex" text-anchor="end" font-family="sans-serif" font-size="9.67741935483871" opacity="1" fill="#000000">
0.0
</text>
<polyline fill="none" opacity="1" stroke="#000000" stroke-width="1" points="34,727 39,727 "/>
<text x="30" y="658" dy="0.5ex" text-anchor="end" font-family="sans-serif" font-size="9.67741935483871" opacity="1" fill="#000000">
0.1
</text>
<polyline fill="none" opacity="1" stroke="#000000" stroke-width="1" points="34,658 39,658 "/>
<text x="30" y="589" dy="0.5ex" text-anchor="end" font-family="sans-serif" font-size="9.67741935483871" opacity="1" fill="#000000">
0.2
</text>
<polyline fill="none" opacity="1" stroke="#000000" stroke-width="1" points="34,589 39,589 "/>
<text x="30" y="520" dy="0.5ex" text-anchor="end" font-family="sans-serif" font-size="9.67741935483871" opacity="1" fill="#000000">
0.3
</text>
<polyline fill="none" opacity="1" stroke="#000000" stroke-width="1" points="34,520 39,520 "/>
<text x="30" y="451" dy="0.5ex" text-anchor="end" font-family="sans-serif" font-size="9.67741935483871" opacity="1" fill="#000000">
0.4
</text>
<polyline fill="none" opacity="1" stroke="#000000" stroke-width="1" points="34,451 39,451 "/>
<text x="30" y="381" dy="0.5ex" text-anchor="end" font-family="sans-serif" font-size="9.67741935483871" opacity="1" fill="#000000">
0.5
</text>
<polyline fill="none" opacity="1" stroke="#000000" stroke-width="1" points="34,381 39,381 "/>
<text x="30" y="312" dy="0.5ex" text-anchor="end" font-family="sans-serif" font-size="9.67741935483871" opacity="1" fill="#000000">
0.6
</text>
<polyline fill="none" opacity="1" stroke="#000000" stroke-width="1" points="34,312 39,312 "/>
<text x="30" y="243" dy="0.5ex" text-anchor="end" font-family="sans-serif" font-size="9.67741935483871" opacity="1" fill="#000000">
0.7
</text>
<polyline fill="none" opacity="1" stroke="#000000" stroke-width="1" points="34,243 39,243 "/>
<text x="30" y="174" dy="0.5ex" text-anchor="end" font-family="sans-serif" font-size="9.67741935483871" opacity="1" fill="#000000">
0.8
</text>
<polyline fill="none" opacity="1" stroke="#000000" stroke-width="1" points="34,174 39,174 "/>
<text x="30" y="104" dy="0.5ex" text-anchor="end" font-family="sans-serif" font-size="9.67741935483871" opacity="1" fill="#000000">
0.9
</text>
<polyline fill="none" opacity="1" stroke="#000000" stroke-width="1" points="34,104 39,104 "/>
<text x="30" y="35" dy="0.5ex" text-anchor="end" font-family="sans-serif" font-size="9.67741935483871" opacity="1" fill="#000000">
1.0
</text>
<polyline fill="none" opacity="1" stroke="#000000" stroke-width="1" points="34,35 39,35 "/>
<polyline fill="none" opacity="1" stroke="#000000" stroke-width="1" points="40,728 1023,728 "/>
<text x="40" y="738" dy="0.76em" text-anchor="middle" font-family="sans-serif" font-size="9.67741935483871" opacity="1" fill="#000000">
0.0
</text>
<polyline fill="none" opacity="1" stroke="#000000" stroke-width="1" points="40,728 40,733 "/>
<text x="129" y="738" dy="0.76em" text-anchor="middle" font-family="sans-serif" font-size="9.67741935483871" opacity="1" fill="#000000">
2000.0
</text>
<polyline fill="none" opacity="1" stroke="#000000" stroke-width="1" points="129,728 129,733 "/>
<text x="219" y="738" dy="0.76em" text-anchor="middle" font-family="sans-serif" font-size="9.67741935483871" opacity="1" fill="#000000">
4000.0
</text>
<polyline fill="none" opacity="1" stroke="#000000" stroke-width="1" points="219,728 219,733 "/>
<text x="309" y="738" dy="0.76em" text-anchor="middle" font-family="sans-serif" font-size="9.67741935483871" opacity="1" fill="#000000">
6000.0
</text>
<polyline fill="none" opacity="1" stroke="#000000" stroke-width="1" points="309,728 309,733 "/>
<text x="399" y="738" dy="0.76em" text-anchor="middle" font-family="sans-serif" font-size="9.67741935483871" opacity="1" fill="#000000">
8000.0
</text>
<polyline fill="none" opacity="1" stroke="#000000" stroke-width="1" points="399,728 399,733 "/>
<text x="489" y="738" dy="0.76em" text-anchor="middle" font-family="sans-serif" font-size="9.67741935483871" opacity="1" fill="#000000">
10000.0
</text>
<polyline fill="none" opacity="1" stroke="#000000" stroke-width="1" points="489,728 489,733 "/>
<text x="579" y="738" dy="0.76em" text-anchor="middle" font-family="sans-serif" font-size="9.67741935483871" opacity="1" fill="#000000">
12000.0
</text>
<polyline fill="none" opacity="1" stroke="#000000" stroke-width="1" points="579,728 579,733 "/>
<text x="669" y="738" dy="0.76em" text-anchor="middle" font-family="sans-serif" font-size="9.67741935483871" opacity="1" fill="#000000">
14000.0
</text>
<polyline fill="none" opacity="1" stroke="#000000" stroke-width="1" points="669,728 669,733 "/>
<text x="759" y="738" dy="0.76em" text-anchor="middle" font-family="sans-serif" font-size="9.67741935483871" opacity="1" fill="#000000">
16000.0
</text>
<polyline fill="none" opacity="1" stroke="#000000" stroke-width="1" points="759,728 759,733 "/>
<text x="849" y="738" dy="0.76em" text-anchor="middle" font-family="sans-serif" font-size="9.67741935483871" opacity="1" fill="#000000">
18000.0
</text>
<polyline fill="none" opacity="1" stroke="#000000" stroke-width="1" points="849,728 849,733 "/>
<text x="939" y="738" dy="0.76em" text-anchor="middle" font-family="sans-serif" font-size="9.67741935483871" opacity="1" fill="#000000">
20000.0
</text>
<polyline fill="none" opacity="1" stroke="#000000" stroke-width="1" points="939,728 939,733 "/>
<polyline fill="none" opacity="1" stroke="#000000" stroke-width="2" points="40,727 40,724 41,721 41,717 42,714 42,710 42,707 43,703 44,700 44,696 45,693 45,689 46,686 46,682 47,679 48,676 48,672 48,669 49,665 49,662 50,658 50,655 50,651 51,648 51,644 51,641 51,637 52,634 53,631 54,627 56,624 56,620 57,617 57,613 57,610 58,606 59,603 59,599 59,596 59,592 61,589 63,586 63,582 64,579 65,575 66,572 66,568 66,565 66,561 66,558 68,554 69,551 70,547 71,544 73,541 74,537 75,534 76,530 78,527 78,523 79,520 80,516 80,513 81,509 81,506 82,502 84,499 85,496 87,492 89,489 90,485 90,482 90,478 91,475 92,471 93,468 94,464 94,461 95,457 95,454 95,451 96,447 97,444 97,440 98,437 99,433 99,430 103,426 104,423 106,419 107,416 108,412 110,409 110,406 111,402 113,399 114,395 114,392 114,388 114,385 115,381 116,378 116,374 117,371 117,367 117,364 119,361 119,357 119,354 120,350 121,347 122,343 122,340 123,336 123,333 124,329 125,326 125,322 126,319 126,316 128,312 132,309 135,305 136,302 139,298 142,295 143,291 144,288 145,284 146,281 147,277 148,274 148,271 150,267 150,264 150,260 151,257 152,253 153,250 154,246 156,243 159,239 159,236 161,232 161,229 162,226 162,222 163,219 163,215 165,212 165,208 170,205 170,201 172,198 173,194 179,191 184,187 187,184 189,181 195,177 198,174 198,170 207,167 208,163 210,160 223,156 227,153 234,149 240,146 243,142 245,139 246,136 252,132 253,129 260,125 261,122 271,118 272,115 274,111 282,108 283,104 298,101 303,97 307,94 319,91 338,87 341,84 341,80 342,77 350,73 355,70 515,66 564,63 572,59 611,56 826,52 843,49 849,46 927,42 1022,39 "/>
</svg>
