<svg width="1024" height="768" viewBox="0 0 1024 768" xmlns="http://www.w3.org/2000/svg">
<rect x="0" y="0" width="1024" height="768" opacity="1" fill="#FFFFFF" stroke="none"/>
<line opacity="0.1" stroke="#000000" stroke-width="1" x1="40" y1="727" x2="40" y2="0"/>
<line opacity="0.1" stroke="#000000" stroke-width="1" x1="50" y1="727" x2="50" y2="0"/>
<line opacity="0.1" stroke="#000000" stroke-width="1" x1="60" y1="727" x2="60" y2="0"/>
<line opacity="0.1" stroke="#000000" stroke-width="1" x1="70" y1="727" x2="70" y2="0"/>
<line opacity="0.1" stroke="#000000" stroke-width="1" x1="80" y1="727" x2="80" y2="0"/>
<line opacity="0.1" stroke="#000000" stroke-width="1" x1="91" y1="727" x2="91" y2="0"/>
<line opacity="0.1" stroke="#000000" stroke-width="1" x1="101" y1="727" x2="101" y2="0"/>
<line opacity="0.1" stroke="#000000" stroke-width="1" x1="111" y1="727" x2="111" y2="0"/>
<line opacity="0.1" stroke="#000000" stroke-width="1" x1="121" y1="727" x2="121" y2="0"/>
<line opacity="0.1" stroke="#000000" stroke-width="1" x1="132" y1="727" x2="132" y2="0"/>
<line opacity="0.1" stroke="#000000" stroke-width="1" x1="142" y1="727" x2="142" y2="0"/>
<line opacity="0.1" stroke="#000000" stroke-width="1" x1="152" y1="727" x2="152" y2="0"/>
<line opacity="0.1" stroke="#000000" stroke-width="1" x1="162" y1="727" x2="162" y2="0"/>
<line opacity="0.1" stroke="#000000" stroke-width="1" x1="172" y1="727" x2="172" y2="0"/>
<line opacity="0.1" stroke="#000000" stroke-width="1" x1="183" y1="727" x2="183" y2="0"/>
<line opacity="0.1" stroke="#000000" stroke-width="1" x1="193" y1="727" x2="193" y2="0"/>
<line opacity="0.1" stroke="#000000" stroke-width="1" x1="203" y1="727" x2="203" y2="0"/>
<line opacity="0.1" stroke="#000000" stroke-width="1" x1="213" y1="727" x2="213" y2="0"/>
<line opacity="0.1" stroke="#000000" stroke-width="1" x1="224" y1="727" x2="224" y2="0"/>
<line opacity="0.1" stroke="#000000" stroke-width="1" x1="234" y1="727" x2="234" y2="0"/>
<line opacity="0.1" stroke="#000000" stroke-width="1" x1="244" y1="727" x2="244" y2="0"/>
<line opacity="0.1" stroke="#000000" stroke-width="1" x1="254" y1="727" x2="254" y2="0"/>
<line opacity="0.1" stroke="#000000" stroke-width="1" x1="265" y1="727" x2="265" y2="0"/>
<line opacity="0.1" stroke="#000000" stroke-width="1" x1="275" y1="727" x2="275" y2="0"/>
<line opacity="0.1" stroke="#000000" stroke-width="1" x1="285" y1="727" x2="285" y2="0"/>
<line opacity="0.1" stroke="#000000" stroke-width="1" x1="295" y1="727" x2="295" y2="0"/>
<line opacity="0.1" stroke="#000000" stroke-width="1" x1="305" y1="727" x2="305" y2="0"/>
<line opacity="0.1" stroke="#000000" stroke-width="1" x1="316" y1="727" x2="316" y2="0"/>
<line opacity="0.1" stroke="#000000" stroke-width="1" x1="326" y1="727" x2="326" y2="0"/>
<line opacity="0.1" stroke="#000000" stroke-width="1" x1="336" y1="727" x2="336" y2="0"/>
<line opacity="0.1" stroke="#000000" stroke-width="1" x1="346" y1="727" x2="346" y2="0"/>
<line opacity="0.1" stroke="#000000" stroke-width="1" x1="357" y1="727" x2="357" y2="0"/>
<line opacity="0.1" stroke="#000000" stroke-width="1" x1="367" y1="727" x2="367" y2="0"/>
<line opacity="0.1" stroke="#000000" stroke-width="1" x1="377" y1="727" x2="377" y2="0"/>
<line opacity="0.1" stroke="#000000" stroke-width="1" x1="387" y1="727" x2="387" y2="0"/>
<line opacity="0.1" stroke="#000000" stroke-width="1" x1="398" y1="727" x2="398" y2="0"/>
<line opacity="0.1" stroke="#000000" stroke-width="1" x1="408" y1="727" x2="408" y2="0"/>
<line opacity="0.1" stroke="#000000" stroke-width="1" x1="418" y1="727" x2="418" y2="0"/>
<line opacity="0.1" stroke="#000000" stroke-width="1" x1="428" y1="727" x2="428" y2="0"/>
<line opacity="0.1" stroke="#000000" stroke-width="1" x1="438" y1="727" x2="438" y2="0"/>
<line opacity="0.1" stroke="#000000" stroke-width="1" x1="449" y1="727" x2="449" y2="0"/>
<line opacity="0.1" stroke="#000000" stroke-width="1" x1="459" y1="727" x2="459" y2="0"/>
<line opacity="0.1" stroke="#000000" stroke-width="1" x1="469" y1="727" x2="469" y2="0"/>
<line opacity="0.1" stroke="#000000" stroke-width="1" x1="479" y1="727" x2="479" y2="0"/>
<line opacity="0.1" stroke="#000000" stroke-width="1" x1="490" y1="727" x2="490" y2="0"/>
<line opacity="0.1" stroke="#000000" stroke-width="1" x1="500" y1="727" x2="500" y2="0"/>
<line opacity="0.1" stroke="#000000" stroke-width="1" x1="510" y1="727" x2="510" y2="0"/>
<line opacity="0.1" stroke="#000000" stroke-width="1" x1="520" y1="727" x2="520" y2="0"/>
<line opacity="0.1" stroke="#000000" stroke-width="1" x1="531" y1="727" x2="531" y2="0"/>
<line opacity="0.1" stroke="#000000" stroke-width="1" x1="541" y1="727" x2="541" y2="0"/>
<line opacity="0.1" stroke="#000000" stroke-width="1" x1="551" y1="727" x2="551" y2="0"/>
<line opacity="0.1" stroke="#000000" stroke-width="1" x1="561" y1="727" x2="561" y2="0"/>
<line opacity="0.1" stroke="#000000" stroke-width="1" x1="571" y1="727" x2="571" y2="0"/>
<line opacity="0.1" stroke="#000000" stroke-width="1" x1="582" y1="727" x2="582" y2="0"/>
<line opacity="0.1" stroke="#000000" stroke-width="1" x1="592" y1="727" x2="592" y2="0"/>
<line opacity="0.1" stroke="#000000" stroke-width="1" x1="602" y1="727" x2="602" y2="0"/>
<line opacity="0.1" stroke="#000000" stroke-width="1" x1="612" y1="727" x2="612" y2="0"/>
<line opacity="0.1" stroke="#000000" stroke-width="1" x1="623" y1="727" x2="623" y2="0"/>
<line opacity="0.1" stroke="#000000" stroke-width="1" x1="633" y1="727" x2="633" y2="0"/>
<line opacity="0.1" stroke="#000000" stroke-width="1" x1="643" y1="727" x2="643" y2="0"/>
<line opacity="0.1" stroke="#000000" stroke-width="1" x1="653" y1="727" x2="653" y2="0"/>
<line opacity="0.1" stroke="#000000" stroke-width="1" x1="664" y1="727" x2="664" y2="0"/>
<line opacity="0.1" stroke="#000000" stroke-width="1" x1="674" y1="727" x2="674" y2="0"/>
<line opacity="0.1" stroke="#000000" stroke-width="1" x1="684" y1="727" x2="684" y2="0"/>
<line opacity="0.1" stroke="#000000" stroke-width="1" x1="694" y1="727" x2="694" y2="0"/>
<line opacity="0.1" stroke="#000000" stroke-width="1" x1="704" y1="727" x2="704" y2="0"/>
<line opacity="0.1" stroke="#000000" stroke-width="1" x1="715" y1="727" x2="715" y2="0"/>
<line opacity="0.1" stroke="#000000" stroke-width="1" x1="725" y1="727" x2="725" y2="0"/>
<line opacity="0.1" stroke="#000000" stroke-width="1" x1="735" y1="727" x2="735" y2="0"/>
<line opacity="0.1" stroke="#000000" stroke-width="1" x1="745" y1="727" x2="745" y2="0"/>
<line opacity="0.1" stroke="#000000" stroke-width="1" x1="756" y1="727" x2="756" y2="0"/>
<line opacity="0.1" stroke="#000000" stroke-width="1" x1="766" y1="727" x2="766" y2="0"/>
<line opacity="0.1" stroke="#000000" stroke-width="1" x1="776" y1="727" x2="776" y2="0"/>
<line opacity="0.1" stroke="#000000" stroke-width="1" x1="786" y1="727" x2="786" y2="0"/>
<line opacity="0.1" stroke="#000000" stroke-width="1" x1="797" y1="727" x2="797" y2="0"/>
<line opacity="0.1" stroke="#000000" stroke-width="1" x1="807" y1="727" x2="807" y2="0"/>
<line opacity="0.1" stroke="#000000" stroke-width="1" x1="817" y1="727" x2="817" y2="0"/>
<line opacity="0.1" stroke="#000000" stroke-width="1" x1="827" y1="727" x2="827" y2="0"/>
<line opacity="0.1" stroke="#000000" stroke-width="1" x1="837" y1="727" x2="837" y2="0"/>
<line opacity="0.1" stroke="#000000" stroke-width="1" x1="848" y1="727" x2="848" y2="0"/>
<line opacity="0.1" stroke="#000000" stroke-width="1" x1="858" y1="727" x2="858" y2="0"/>
<line opacity="0.1" stroke="#000000" stroke-width="1" x1="868" y1="727" x2="868" y2="0"/>
<line opacity="0.1" stroke="#000000" stroke-width="1" x1="878" y1="727" x2="878" y2="0"/>
<line opacity="0.1" stroke="#000000" stroke-width="1" x1="889" y1="727" x2="889" y2="0"/>
<line opacity="0.1" stroke="#000000" stroke-width="1" x1="899" y1="727" x2="899" y2="0"/>
<line opacity="0.1" stroke="#000000" stroke-width="1" x1="909" y1="727" x2="909" y2="0"/>
<line opacity="0.1" stroke="#000000" stroke-width="1" x1="919" y1="727" x2="919" y2="0"/>
<line opacity="0.1" stroke="#000000" stroke-width="1" x1="930" y1="727" x2="930" y2="0"/>
<line opacity="0.1" stroke="#000000" stroke-width="1" x1="940" y1="727" x2="940" y2="0"/>
<line opacity="0.1" stroke="#000000" stroke-width="1" x1="950" y1="727" x2="950" y2="0"/>
<line opacity="0.1" stroke="#000000" stroke-width="1" x1="960" y1="727" x2="960" y2="0"/>
<line opacity="0.1" stroke="#000000" stroke-width="1" x1="970" y1="727" x2="970" y2="0"/>
<line opacity="0.1" stroke="#000000" stroke-width="1" x1="981" y1="727" x2="981" y2="0"/>
<line opacity="0.1" stroke="#000000" stroke-width="1" x1="991" y1="727" x2="991" y2="0"/>
<line opacity="0.1" stroke="#000000" stroke-width="1" x1="1001" y1="727" x2="1001" y2="0"/>
<line opacity="0.1" stroke="#000000" stroke-width="1" x1="1011" y1="727" x2="1011" y2="0"/>
<line opacity="0.1" stroke="#000000" stroke-width="1" x1="1022" y1="727" x2="1022" y2="0"/>
<line opacity="0.1" stroke="#000000" stroke-width="1" x1="40" y1="727" x2="1023" y2="727"/>
<line opacity="0.1" stroke="#000000" stroke-width="1" x1="40" y1="721" x2="1023" y2="721"/>
<line opacity="0.1" stroke="#000000" stroke-width="1" x1="40" y1="714" x2="1023" y2="714"/>
<line opacity="0.1" stroke="#000000" stroke-width="1" x1="40" y1="707" x2="1023" y2="707"/>
<line opacity="0.1" stroke="#000000" stroke-width="1" x1="40" y1="700" x2="1023" y2="700"/>
<line opacity="0.1" stroke="#000000" stroke-width="1" x1="40" y1="693" x2="1023" y2="693"/>
<line opacity="0.1" stroke="#000000" stroke-width="1" x1="40" y1="686" x2="1023" y2="686"/>
<line opacity="0.1" stroke="#000000" stroke-width="1" x1="40" y1="679" x2="1023" y2="679"/>
<line opacity="0.1" stroke="#000000" stroke-width="1" x1="40" y1="672" x2="1023" y2="672"/>
<line opacity="0.1" stroke="#000000" stroke-width="1" x1="40" y1="665" x2="1023" y2="665"/>
<line opacity="0.1" stroke="#000000" stroke-width="1" x1="40" y1="658" x2="1023" y2="658"/>
<line opacity="0.1" stroke="#000000" stroke-width="1" x1="40" y1="651" x2="1023" y2="651"/>
<line opacity="0.1" stroke="#000000" stroke-width="1" x1="40" y1="644" x2="1023" y2="644"/>
<line opacity="0.1" stroke="#000000" stroke-width="1" x1="40" y1="637" x2="1023" y2="637"/>
<line opacity="0.1" stroke="#000000" stroke-width="1" x1="40" y1="631" x2="1023" y2="631"/>
<line opacity="0.1" stroke="#000000" stroke-width="1" x1="40" y1="624" x2="1023" y2="624"/>
<line opacity="0.1" stroke="#000000" stroke-width="1" x1="40" y1="617" x2="1023" y2="617"/>
<line opacity="0.1" stroke="#000000" stroke-width="1" x1="40" y1="610" x2="1023" y2="610"/>
<line opacity="0.1" stroke="#000000" stroke-width="1" x1="40" y1="603" x2="1023" y2="603"/>
<line opacity="0.1" stroke="#000000" stroke-width="1" x1="40" y1="596" x2="1023" y2="596"/>
<line opacity="0.1" stroke="#000000" stroke-width="1" x1="40" y1="589" x2="1023" y2="589"/>
<line opacity="0.1" stroke="#000000" stroke-width="1" x1="40" y1="582" x2="1023" y2="582"/>
<line opacity="0.1" stroke="#000000" stroke-width="1" x1="40" y1="575" x2="1023" y2="575"/>
<line opacity="0.1" stroke="#000000" stroke-width="1" x1="40" y1="568" x2="1023" y2="568"/>
<line opacity="0.1" stroke="#000000" stroke-width="1" x1="40" y1="561" x2="1023" y2="561"/>
<line opacity="0.1" stroke="#000000" stroke-width="1" x1="40" y1="554" x2="1023" y2="554"/>
<line opacity="0.1" stroke="#000000" stroke-width="1" x1="40" y1="547" x2="1023" y2="547"/>
<line opacity="0.1" stroke="#000000" stroke-width="1" x1="40" y1="541" x2="1023" y2="541"/>
<line opacity="0.1" stroke="#000000" stroke-width="1" x1="40" y1="534" x2="1023" y2="534"/>
<line opacity="0.1" stroke="#000000" stroke-width="1" x1="40" y1="527" x2="1023" y2="527"/>
<line opacity="0.1" stroke="#000000" stroke-width="1" x1="40" y1="520" x2="1023" y2="520"/>
<line opacity="0.1" stroke="#000000" stroke-width="1" x1="40" y1="513" x2="1023" y2="513"/>
<line opacity="0.1" stroke="#000000" stroke-width="1" x1="40" y1="506" x2="1023" y2="506"/>
<line opacity="0.1" stroke="#000000" stroke-width="1" x1="40" y1="499" x2="1023" y2="499"/>
<line opacity="0.1" stroke="#000000" stroke-width="1" x1="40" y1="492" x2="1023" y2="492"/>
<line opacity="0.1" stroke="#000000" stroke-width="1" x1="40" y1="485" x2="1023" y2="485"/>
<line opacity="0.1" stroke="#000000" stroke-width="1" x1="40" y1="478" x2="1023" y2="478"/>
<line opacity="0.1" stroke="#000000" stroke-width="1" x1="40" y1="471" x2="1023" y2="471"/>
<line opacity="0.1" stroke="#000000" stroke-width="1" x1="40" y1="464" x2="1023" y2="464"/>
<line opacity="0.1" stroke="#000000" stroke-width="1" x1="40" y1="457" x2="1023" y2="457"/>
<line opacity="0.1" stroke="#000000" stroke-width="1" x1="40" y1="451" x2="1023" y2="451"/>
<line opacity="0.1" stroke="#000000" stroke-width="1" x1="40" y1="444" x2="1023" y2="444"/>
<line opacity="0.1" stroke="#000000" stroke-width="1" x1="40" y1="437" x2="1023" y2="437"/>
<line opacity="0.1" stroke="#000000" stroke-width="1" x1="40" y1="430" x2="1023" y2="430"/>
<line opacity="0.1" stroke="#000000" stroke-width="1" x1="40" y1="423" x2="1023" y2="423"/>
<line opacity="0.1" stroke="#000000" stroke-width="1" x1="40" y1="416" x2="1023" y2="416"/>
<line opacity="0.1" stroke="#000000" stroke-width="1" x1="40" y1="409" x2="1023" y2="409"/>
<line opacity="0.1" stroke="#000000" stroke-width="1" x1="40" y1="402" x2="1023" y2="402"/>
<line opacity="0.1" stroke="#000000" stroke-width="1" x1="40" y1="395" x2="1023" y2="395"/>
<line opacity="0.1" stroke="#000000" stroke-width="1" x1="40" y1="388" x2="1023" y2="388"/>
<line opacity="0.1" stroke="#000000" stroke-width="1" x1="40" y1="381" x2="1023" y2="381"/>
<line opacity="0.1" stroke="#000000" stroke-width="1" x1="40" y1="374" x2="1023" y2="374"/>
<line opacity="0.1" stroke="#000000" stroke-width="1" x1="40" y1="367" x2="1023" y2="367"/>
<line opacity="0.1" stroke="#000000" stroke-width="1" x1="40" y1="361" x2="1023" y2="361"/>
<line opacity="0.1" stroke="#000000" stroke-width="1" x1="40" y1="354" x2="1023" y2="354"/>
<line opacity="0.1" stroke="#000000" stroke-width="1" x1="40" y1="347" x2="1023" y2="347"/>
<line opacity="0.1" stroke="#000000" stroke-width="1" x1="40" y1="340" x2="1023" y2="340"/>
<line opacity="0.1" stroke="#000000" stroke-width="1" x1="40" y1="333" x2="1023" y2="333"/>
<line opacity="0.1" stroke="#000000" stroke-width="1" x1="40" y1="326" x2="1023" y2="326"/>
<line opacity="0.1" stroke="#000000" stroke-width="1" x1="40" y1="319" x2="1023" y2="319"/>
<line opacity="0.1" stroke="#000000" stroke-width="1" x1="40" y1="312" x2="1023" y2="312"/>
<line opacity="0.1" stroke="#000000" stroke-width="1" x1="40" y1="305" x2="1023" y2="305"/>
<line opacity="0.1" stroke="#000000" stroke-width="1" x1="40" y1="298" x2="1023" y2="298"/>
<line opacity="0.1" stroke="#000000" stroke-width="1" x1="40" y1="291" x2="1023" y2="291"/>
<line opacity="0.1" stroke="#000000" stroke-width="1" x1="40" y1="284" x2="1023" y2="284"/>
<line opacity="0.1" stroke="#000000" stroke-width="1" x1="40" y1="277" x2="1023" y2="277"/>
<line opacity="0.1" stroke="#000000" stroke-width="1" x1="40" y1="271" x2="1023" y2="271"/>
<line opacity="0.1" stroke="#000000" stroke-width="1" x1="40" y1="264" x2="1023" y2="264"/>
<line opacity="0.1" stroke="#000000" stroke-width="1" x1="40" y1="257" x2="1023" y2="257"/>
<line opacity="0.1" stroke="#000000" stroke-width="1" x1="40" y1="250" x2="1023" y2="250"/>
<line opacity="0.1" stroke="#000000" stroke-width="1" x1="40" y1="243" x2="1023" y2="243"/>
<line opacity="0.1" stroke="#000000" stroke-width="1" x1="40" y1="236" x2="1023" y2="236"/>
<line opacity="0.1" stroke="#000000" stroke-width="1" x1="40" y1="229" x2="1023" y2="229"/>
<line opacity="0.1" stroke="#000000" stroke-width="1" x1="40" y1="222" x2="1023" y2="222"/>
<line opacity="0.1" stroke="#000000" stroke-width="1" x1="40" y1="215" x2="1023" y2="215"/>
<line opacity="0.1" stroke="#000000" stroke-width="1" x1="40" y1="208" x2="1023" y2="208"/>
<line opacity="0.1" stroke="#000000" stroke-width="1" x1="40" y1="201" x2="1023" y2="201"/>
<line opacity="0.1" stroke="#000000" stroke-width="1" x1="40" y1="194" x2="1023" y2="194"/>
<line opacity="0.1" stroke="#000000" stroke-width="1" x1="40" y1="187" x2="1023" y2="187"/>
<line opacity="0.1" stroke="#000000" stroke-width="1" x1="40" y1="181" x2="1023" y2="181"/>
<line opacity="0.1" stroke="#000000" stroke-width="1" x1="40" y1="174" x2="1023" y2="174"/>
<line opacity="0.1" stroke="#000000" stroke-width="1" x1="40" y1="167" x2="1023" y2="167"/>
<line opacity="0.1" stroke="#000000" stroke-width="1" x1="40" y1="160" x2="1023" y2="160"/>
<line opacity="0.1" stroke="#000000" stroke-width="1" x1="40" y1="153" x2="1023" y2="153"/>
<line opacity="0.1" stroke="#000000" stroke-width="1" x1="40" y1="146" x2="1023" y2="146"/>
<line opacity="0.1" stroke="#000000" stroke-width="1" x1="40" y1="139" x2="1023" y2="139"/>
<line opacity="0.1" stroke="#000000" stroke-width="1" x1="40" y1="132" x2="1023" y2="132"/>
<line opacity="0.1" stroke="#000000" stroke-width="1" x1="40" y1="125" x2="1023" y2="125"/>
<line opacity="0.1" stroke="#000000" stroke-width="1" x1="40" y1="118" x2="1023" y2="118"/>
<line opacity="0.1" stroke="#000000" stroke-width="1" x1="40" y1="111" x2="1023" y2="111"/>
<line opacity="0.1" stroke="#000000" stroke-width="1" x1="40" y1="104" x2="1023" y2="104"/>
<line opacity="0.1" stroke="#000000" stroke-width="1" x1="40" y1="97" x2="1023" y2="97"/>
<line opacity="0.1" stroke="#000000" stroke-width="1" x1="40" y1="91" x2="1023" y2="91"/>
<line opacity="0.1" stroke="#000000" stroke-width="1" x1="40" y1="84" x2="1023" y2="84"/>
<line opacity="0.1" stroke="#000000" stroke-width="1" x1="40" y1="77" x2="1023" y2="77"/>
<line opacity="0.1" stroke="#000000" stroke-width="1" x1="40" y1="70" x2="1023" y2="70"/>
<line opacity="0.1" stroke="#000000" stroke-width="1" x1="40" y1="63" x2="1023" y2="63"/>
<line opacity="0.1" stroke="#000000" stroke-width="1" x1="40" y1="56" x2="1023" y2="56"/>
<line opacity="0.1" stroke="#000000" stroke-width="1" x1="40" y1="49" x2="1023" y2="49"/>
<line opacity="0.1" stroke="#000000" stroke-width="1" x1="40" y1="42" x2="1023" y2="42"/>
<line opacity="0.1" stroke="#000000" stroke-width="1" x1="40" y1="35" x2="1023" y2="35"/>
<line opacity="0.1" stroke="#000000" stroke-width="1" x1="40" y1="28" x2="1023" y2="28"/>
<line opacity="0.1" stroke="#000000" stroke-width="1" x1="40" y1="21" x2="1023" y2="21"/>
<line opacity="0.1" stroke="#000000" stroke-width="1" x1="40" y1="14" x2="1023" y2="14"/>
<line opacity="0.1" stroke="#000000" stroke-width="1" x1="40" y1="7" x2="1023" y2="7"/>
<line opacity="0.2" stroke="#000000" stroke-width="1" x1="40" y1="727" x2="40" y2="0"/>
<line opacity="0.2" stroke="#000000" stroke-width="1" x1="142" y1="727" x2="142" y2="0"/>
<line opacity="0.2" stroke="#000000" stroke-width="1" x1="244" y1="727" x2="244" y2="0"/>
<line opacity="0.2" stroke="#000000" stroke-width="1" x1="346" y1="727" x2="346" y2="0"/>
<line opacity="0.2" stroke="#000000" stroke-width="1" x1="449" y1="727" x2="449" y2="0"/>
<line opacity="0.2" stroke="#000000" stroke-width="1" x1="551" y1="727" x2="551" y2="0"/>
<line opacity="0.2" stroke="#000000" stroke-width="1" x1="653" y1="727" x2="653" y2="0"/>
<line opacity="0.2" stroke="#000000" stroke-width="1" x1="756" y1="727" x2="756" y2="0"/>
<line opacity="0.2" stroke="#000000" stroke-width="1" x1="858" y1="727" x2="858" y2="0"/>
<line opacity="0.2" stroke="#000000" stroke-width="1" x1="960" y1="727" x2="960" y2="0"/>
<line opacity="0.2" stroke="#000000" stroke-width="1" x1="40" y1="727" x2="1023" y2="727"/>
<line opacity="0.2" stroke="#000000" stroke-width="1" x1="40" y1="658" x2="1023" y2="658"/>
<line opacity="0.2" stroke="#000000" stroke-width="1" x1="40" y1="589" x2="1023" y2="589"/>
<line opacity="0.2" stroke="#000000" stroke-width="1" x1="40" y1="520" x2="1023" y2="520"/>
<line opacity="0.2" stroke="#000000" stroke-width="1" x1="40" y1="451" x2="1023" y2="451"/>
<line opacity="0.2" stroke="#000000" stroke-width="1" x1="40" y1="381" x2="1023" y2="381"/>
<line opacity="0.2" stroke="#000000" stroke-width="1" x1="40" y1="312" x2="1023" y2="312"/>
<line opacity="0.2" stroke="#000000" stroke-width="1" x1="40" y1="243" x2="1023" y2="243"/>
<line opacity="0.2" stroke="#000000" stroke-width="1" x1="40" y1="174" x2="1023" y2="174"/>
<line opacity="0.2" stroke="#000000" stroke-width="1" x1="40" y1="104" x2="1023" y2="104"/>
<line opacity="0.2" stroke="#000000" stroke-width="1" x1="40" y1="35" x2="1023" y2="35"/>
<polyline fill="none" opacity="1" stroke="#000000" stroke-width="1" points="39,0 39,727 "/>
<text x="30" y="727" dy="0.5ex" text-anchor="end" font-family="sans-serif" font-size="9.67741935483871" opacity="1" fill="#000000">
0.0
</text>
<polyline fill="none" opacity="1" stroke="#000000" stroke-width="1" points="34,727 39,727 "/>
<text x="30" y="658" dy="0.5ex" text-anchor="end" font-family="sans-serif" font-size="9.67741935483871" opacity="1" fill="#000000">
0.1
</text>
<polyline fill="none" opacity="1" stroke="#000000" stroke-width="1" points="34,658 39,658 "/>
<text x="30" y="589" dy="0.5ex" text-anchor="end" font-family="sans-serif" font-size="9.67741935483871" opacity="1" fill="#000000">
0.2
</text>
<polyline fill="none" opacity="1" stroke="#000000" stroke-width="1" points="34,589 39,589 "/>
<text x="30" y="520" dy="0.5ex" text-anchor="end" font-family="sans-serif" font-size="9.67741935483871" opacity="1" fill="#000000">
0.3
</text>
<polyline fill="none" opacity="1" stroke="#000000" stroke-width="1" points="34,520 39,520 "/>
<text x="30" y="451" dy="0.5ex" text-anchor="end" font-family="sans-serif" font-size="9.67741935483871" opacity="1" fill="#000000">
0.4
</text>
<polyline fill="none" opacity="1" stroke="#000000" stroke-width="1" points="34,451 39,451 "/>
<text x="30" y="381" dy="0.5ex" text-anchor="end" font-family="sans-serif" font-size="9.67741935483871" opacity="1" fill="#000000">
0.5
</text>
<polyline fill="none" opacity="1" stroke="#000000" stroke-width="1" points="34,381 39,381 "/>
<text x="30" y="312" dy="0.5ex" text-anchor="end" font-family="sans-serif" font-size="9.67741935483871" opacity="1" fill="#000000">
0.6
</text>
<polyline fill="none" opacity="1" stroke="#000000" stroke-width="1" points="34,312 39,312 "/>
<text x="30" y="243" dy="0.5ex" text-anchor="end" font-family="sans-serif" font-size="9.67741935483871" opacity="1" fill="#000000">
0.7
</text>
<polyline fill="none" opacity="1" stroke="#000000" stroke-width="1" points="34,243 39,243 "/>
<text x="30" y="174" dy="0.5ex" text-anchor="end" font-family="sans-serif" font-size="9.67741935483871" opacity="1" fill="#000000">
0.8
</text>
<polyline fill="none" opacity="1" stroke="#000000" stroke-width="1" points="34,174 39,174 "/>
<text x="30" y="104" dy="0.5ex" text-anchor="end" font-family="sans-serif" font-size="9.67741935483871" opacity="1" fill="#000000">
0.9
</text>
<polyline fill="none" opacity="1" stroke="#000000" stroke-width="1" points="34,104 39,104 "/>
<text x="30" y="35" dy="0.5ex" text-anchor="end" font-family="sans-serif" font-size="9.67741935483871" opacity="1" fill="#000000">
1.0
</text>
<polyline fill="none" opacity="1" stroke="#000000" stroke-width="1" points="34,35 39,35 "/>
<polyline fill="none" opacity="1" stroke="#000000" stroke-width="1" points="40,728 1023,728 "/>
<text x="40" y="738" dy="0.76em" text-anchor="middle" font-family="sans-serif" font-size="9.67741935483871" opacity="1" fill="#000000">
0.0
</text>
<polyline fill="none" opacity="1" stroke="#000000" stroke-width="1" points="40,728 40,733 "/>
<text x="142" y="738" dy="0.76em" text-anchor="middle" font-family="sans-serif" font-size="9.67741935483871" opacity="1" fill="#000000">
10000.0
</text>
<polyline fill="none" opacity="1" stroke="#000000" stroke-width="1" points="142,728 142,733 "/>
<text x="244" y="738" dy="0.76em" text-anchor="middle" font-family="sans-serif" font-size="9.67741935483871" opacity="1" fill="#000000">
20000.0
</text>
<polyline fill="none" opacity="1" stroke="#000000" stroke-width="1" points="244,728 244,733 "/>
<text x="346" y="738" dy="0.76em" text-anchor="middle" font-family="sans-serif" font-size="9.67741935483871" opacity="1" fill="#000000">
30000.0
</text>
<polyline fill="none" opacity="1" stroke="#000000" stroke-width="1" points="346,728 346,733 "/>
<text x="449" y="738" dy="0.76em" text-anchor="middle" font-family="sans-serif" font-size="9.67741935483871" opacity="1" fill="#000000">
40000.0
</text>
<polyline fill="none" opacity="1" stroke="#000000" stroke-width="1" points="449,728 449,733 "/>
<text x="551" y="738" dy="0.76em" text-anchor="middle" font-family="sans-serif" font-size="9.67741935483871" opacity="1" fill="#000000">
50000.0
</text>
<polyline fill="none" opacity="1" stroke="#000000" stroke-width="1" points="551,728 551,733 "/>
<text x="653" y="738" dy="0.76em" text-anchor="middle" font-family="sans-serif" font-size="9.67741935483871" opacity="1" fill="#000000">
60000.0
</text>
<polyline fill="none" opacity="1" stroke="#000000" stroke-width="1" points="653,728 653,733 "/>
<text x="756" y="738" dy="0.76em" text-anchor="middle" font-family="sans-serif" font-size="9.67741935483871" opacity="1" fill="#000000">
70000.0
</text>
<polyline fill="none" opacity="1" stroke="#000000" stroke-width="1" points="756,728 756,733 "/>
<text x="858" y="738" dy="0.76em" text-anchor="middle" font-family="sans-serif" font-size="9.67741935483871" opacity="1" fill="#000000">
80000.0
</text>
<polyline fill="none" opacity="1" stroke="#000000" stroke-width="1" points="858,728 858,733 "/>
<text x="960" y="738" dy="0.76em" text-anchor="middle" font-family="sans-serif" font-size="9.67741935483871" opacity="1" fill="#000000">
90000.0
</text>
<polyline fill="none" opacity="1" stroke="#000000" stroke-width="1" points="960,728 960,733 "/>
<polyline fill="none" opacity="1" stroke="#000000" stroke-width="2" points="549,727 581,724 601,721 606,717 608,714 610,710 612,707 614,703 618,700 624,696 630,693 642,689 644,686 644,682 645,679 649,676 649,672 649,669 658,665 662,662 662,658 663,655 663,651 665,648 666,644 667,641 668,637 670,634 671,631 671,627 671,624 673,620 673,617 673,613 675,610 675,606 676,603 676,599 677,596 677,592 678,589 678,586 680,582 680,579 680,575 681,572 683,568 683,565 684,561 684,558 685,554 686,551 687,547 688,544 690,541 691,537 691,534 691,530 692,527 692,523 693,520 694,516 694,513 694,509 694,506 696,502 697,499 697,496 698,492 698,489 698,485 699,482 700,478 702,475 703,471 704,468 705,464 706,461 706,457 708,454 708,451 709,447 710,444 711,440 711,437 711,433 712,430 712,426 713,423 713,419 714,416 714,412 714,409 714,406 715,402 715,399 716,395 716,392 716,388 717,385 717,381 717,378 717,374 717,371 718,367 718,364 721,361 721,357 721,354 722,350 722,347 723,343 723,340 723,336 724,333 724,329 724,326 724,322 725,319 726,316 726,312 727,309 728,305 729,302 729,298 730,295 731,291 731,288 732,284 732,281 732,277 733,274 733,271 733,267 734,264 734,260 735,257 735,253 735,250 735,246 735,243 736,239 736,236 736,232 737,229 738,226 739,222 739,219 740,215 741,212 744,208 744,205 745,201 746,198 746,194 747,191 747,187 748,184 749,181 750,177 751,174 751,170 752,167 754,163 756,160 757,156 757,153 759,149 760,146 760,142 760,139 762,136 764,132 764,129 764,125 765,122 766,118 768,115 770,111 770,108 770,104 775,101 776,97 780,94 781,91 783,87 784,84 796,80 798,77 803,73 817,70 819,66 834,63 839,59 857,56 860,52 864,49 954,46 991,42 1023,39 "/>
</svg>
