<svg width="1024" height="768" viewBox="0 0 1024 768" xmlns="http://www.w3.org/2000/svg">
<rect x="0" y="0" width="1024" height="768" opacity="1" fill="#FFFFFF" stroke="none"/>
<line opacity="0.1" stroke="#000000" stroke-width="1" x1="40" y1="727" x2="40" y2="0"/>
<line opacity="0.1" stroke="#000000" stroke-width="1" x1="49" y1="727" x2="49" y2="0"/>
<line opacity="0.1" stroke="#000000" stroke-width="1" x1="59" y1="727" x2="59" y2="0"/>
<line opacity="0.1" stroke="#000000" stroke-width="1" x1="69" y1="727" x2="69" y2="0"/>
<line opacity="0.1" stroke="#000000" stroke-width="1" x1="78" y1="727" x2="78" y2="0"/>
<line opacity="0.1" stroke="#000000" stroke-width="1" x1="88" y1="727" x2="88" y2="0"/>
<line opacity="0.1" stroke="#000000" stroke-width="1" x1="98" y1="727" x2="98" y2="0"/>
<line opacity="0.1" stroke="#000000" stroke-width="1" x1="107" y1="727" x2="107" y2="0"/>
<line opacity="0.1" stroke="#000000" stroke-width="1" x1="117" y1="727" x2="117" y2="0"/>
<line opacity="0.1" stroke="#000000" stroke-width="1" x1="127" y1="727" x2="127" y2="0"/>
<line opacity="0.1" stroke="#000000" stroke-width="1" x1="137" y1="727" x2="137" y2="0"/>
<line opacity="0.1" stroke="#000000" stroke-width="1" x1="146" y1="727" x2="146" y2="0"/>
<line opacity="0.1" stroke="#000000" stroke-width="1" x1="156" y1="727" x2="156" y2="0"/>
<line opacity="0.1" stroke="#000000" stroke-width="1" x1="166" y1="727" x2="166" y2="0"/>
<line opacity="0.1" stroke="#000000" stroke-width="1" x1="175" y1="727" x2="175" y2="0"/>
<line opacity="0.1" stroke="#000000" stroke-width="1" x1="185" y1="727" x2="185" y2="0"/>
<line opacity="0.1" stroke="#000000" stroke-width="1" x1="195" y1="727" x2="195" y2="0"/>
<line opacity="0.1" stroke="#000000" stroke-width="1" x1="204" y1="727" x2="204" y2="0"/>
<line opacity="0.1" stroke="#000000" stroke-width="1" x1="214" y1="727" x2="214" y2="0"/>
<line opacity="0.1" stroke="#000000" stroke-width="1" x1="224" y1="727" x2="224" y2="0"/>
<line opacity="0.1" stroke="#000000" stroke-width="1" x1="234" y1="727" x2="234" y2="0"/>
<line opacity="0.1" stroke="#000000" stroke-width="1" x1="243" y1="727" x2="243" y2="0"/>
<line opacity="0.1" stroke="#000000" stroke-width="1" x1="253" y1="727" x2="253" y2="0"/>
<line opacity="0.1" stroke="#000000" stroke-width="1" x1="263" y1="727" x2="263" y2="0"/>
<line opacity="0.1" stroke="#000000" stroke-width="1" x1="272" y1="727" x2="272" y2="0"/>
<line opacity="0.1" stroke="#000000" stroke-width="1" x1="282" y1="727" x2="282" y2="0"/>
<line opacity="0.1" stroke="#000000" stroke-width="1" x1="292" y1="727" x2="292" y2="0"/>
<line opacity="0.1" stroke="#000000" stroke-width="1" x1="301" y1="727" x2="301" y2="0"/>
<line opacity="0.1" stroke="#000000" stroke-width="1" x1="311" y1="727" x2="311" y2="0"/>
<line opacity="0.1" stroke="#000000" stroke-width="1" x1="321" y1="727" x2="321" y2="0"/>
<line opacity="0.1" stroke="#000000" stroke-width="1" x1="331" y1="727" x2="331" y2="0"/>
<line opacity="0.1" stroke="#000000" stroke-width="1" x1="340" y1="727" x2="340" y2="0"/>
<line opacity="0.1" stroke="#000000" stroke-width="1" x1="350" y1="727" x2="350" y2="0"/>
<line opacity="0.1" stroke="#000000" stroke-width="1" x1="360" y1="727" x2="360" y2="0"/>
<line opacity="0.1" stroke="#000000" stroke-width="1" x1="369" y1="727" x2="369" y2="0"/>
<line opacity="0.1" stroke="#000000" stroke-width="1" x1="379" y1="727" x2="379" y2="0"/>
<line opacity="0.1" stroke="#000000" stroke-width="1" x1="389" y1="727" x2="389" y2="0"/>
<line opacity="0.1" stroke="#000000" stroke-width="1" x1="398" y1="727" x2="398" y2="0"/>
<line opacity="0.1" stroke="#000000" stroke-width="1" x1="408" y1="727" x2="408" y2="0"/>
<line opacity="0.1" stroke="#000000" stroke-width="1" x1="418" y1="727" x2="418" y2="0"/>
<line opacity="0.1" stroke="#000000" stroke-width="1" x1="428" y1="727" x2="428" y2="0"/>
<line opacity="0.1" stroke="#000000" stroke-width="1" x1="437" y1="727" x2="437" y2="0"/>
<line opacity="0.1" stroke="#000000" stroke-width="1" x1="447" y1="727" x2="447" y2="0"/>
<line opacity="0.1" stroke="#000000" stroke-width="1" x1="457" y1="727" x2="457" y2="0"/>
<line opacity="0.1" stroke="#000000" stroke-width="1" x1="466" y1="727" x2="466" y2="0"/>
<line opacity="0.1" stroke="#000000" stroke-width="1" x1="476" y1="727" x2="476" y2="0"/>
<line opacity="0.1" stroke="#000000" stroke-width="1" x1="486" y1="727" x2="486" y2="0"/>
<line opacity="0.1" stroke="#000000" stroke-width="1" x1="495" y1="727" x2="495" y2="0"/>
<line opacity="0.1" stroke="#000000" stroke-width="1" x1="505" y1="727" x2="505" y2="0"/>
<line opacity="0.1" stroke="#000000" stroke-width="1" x1="515" y1="727" x2="515" y2="0"/>
<line opacity="0.1" stroke="#000000" stroke-width="1" x1="525" y1="727" x2="525" y2="0"/>
<line opacity="0.1" stroke="#000000" stroke-width="1" x1="534" y1="727" x2="534" y2="0"/>
<line opacity="0.1" stroke="#000000" stroke-width="1" x1="544" y1="727" x2="544" y2="0"/>
<line opacity="0.1" stroke="#000000" stroke-width="1" x1="554" y1="727" x2="554" y2="0"/>
<line opacity="0.1" stroke="#000000" stroke-width="1" x1="563" y1="727" x2="563" y2="0"/>
<line opacity="0.1" stroke="#000000" stroke-width="1" x1="573" y1="727" x2="573" y2="0"/>
<line opacity="0.1" stroke="#000000" stroke-width="1" x1="583" y1="727" x2="583" y2="0"/>
<line opacity="0.1" stroke="#000000" stroke-width="1" x1="592" y1="727" x2="592" y2="0"/>
<line opacity="0.1" stroke="#000000" stroke-width="1" x1="602" y1="727" x2="602" y2="0"/>
<line opacity="0.1" stroke="#000000" stroke-width="1" x1="612" y1="727" x2="612" y2="0"/>
<line opacity="0.1" stroke="#000000" stroke-width="1" x1="622" y1="727" x2="622" y2="0"/>
<line opacity="0.1" stroke="#000000" stroke-width="1" x1="631" y1="727" x2="631" y2="0"/>
<line opacity="0.1" stroke="#000000" stroke-width="1" x1="641" y1="727" x2="641" y2="0"/>
<line opacity="0.1" stroke="#000000" stroke-width="1" x1="651" y1="727" x2="651" y2="0"/>
<line opacity="0.1" stroke="#000000" stroke-width="1" x1="660" y1="727" x2="660" y2="0"/>
<line opacity="0.1" stroke="#000000" stroke-width="1" x1="670" y1="727" x2="670" y2="0"/>
<line opacity="0.1" stroke="#000000" stroke-width="1" x1="680" y1="727" x2="680" y2="0"/>
<line opacity="0.1" stroke="#000000" stroke-width="1" x1="690" y1="727" x2="690" y2="0"/>
<line opacity="0.1" stroke="#000000" stroke-width="1" x1="699" y1="727" x2="699" y2="0"/>
<line opacity="0.1" stroke="#000000" stroke-width="1" x1="709" y1="727" x2="709" y2="0"/>
<line opacity="0.1" stroke="#000000" stroke-width="1" x1="719" y1="727" x2="719" y2="0"/>
<line opacity="0.1" stroke="#000000" stroke-width="1" x1="728" y1="727" x2="728" y2="0"/>
<line opacity="0.1" stroke="#000000" stroke-width="1" x1="738" y1="727" x2="738" y2="0"/>
<line opacity="0.1" stroke="#000000" stroke-width="1" x1="748" y1="727" x2="748" y2="0"/>
<line opacity="0.1" stroke="#000000" stroke-width="1" x1="757" y1="727" x2="757" y2="0"/>
<line opacity="0.1" stroke="#000000" stroke-width="1" x1="767" y1="727" x2="767" y2="0"/>
<line opacity="0.1" stroke="#000000" stroke-width="1" x1="777" y1="727" x2="777" y2="0"/>
<line opacity="0.1" stroke="#000000" stroke-width="1" x1="787" y1="727" x2="787" y2="0"/>
<line opacity="0.1" stroke="#000000" stroke-width="1" x1="796" y1="727" x2="796" y2="0"/>
<line opacity="0.1" stroke="#000000" stroke-width="1" x1="806" y1="727" x2="806" y2="0"/>
<line opacity="0.1" stroke="#000000" stroke-width="1" x1="816" y1="727" x2="816" y2="0"/>
<line opacity="0.1" stroke="#000000" stroke-width="1" x1="825" y1="727" x2="825" y2="0"/>
<line opacity="0.1" stroke="#000000" stroke-width="1" x1="835" y1="727" x2="835" y2="0"/>
<line opacity="0.1" stroke="#000000" stroke-width="1" x1="845" y1="727" x2="845" y2="0"/>
<line opacity="0.1" stroke="#000000" stroke-width="1" x1="854" y1="727" x2="854" y2="0"/>
<line opacity="0.1" stroke="#000000" stroke-width="1" x1="864" y1="727" x2="864" y2="0"/>
<line opacity="0.1" stroke="#000000" stroke-width="1" x1="874" y1="727" x2="874" y2="0"/>
<line opacity="0.1" stroke="#000000" stroke-width="1" x1="884" y1="727" x2="884" y2="0"/>
<line opacity="0.1" stroke="#000000" stroke-width="1" x1="893" y1="727" x2="893" y2="0"/>
<line opacity="0.1" stroke="#000000" stroke-width="1" x1="903" y1="727" x2="903" y2="0"/>
<line opacity="0.1" stroke="#000000" stroke-width="1" x1="913" y1="727" x2="913" y2="0"/>
<line opacity="0.1" stroke="#000000" stroke-width="1" x1="922" y1="727" x2="922" y2="0"/>
<line opacity="0.1" stroke="#000000" stroke-width="1" x1="932" y1="727" x2="932" y2="0"/>
<line opacity="0.1" stroke="#000000" stroke-width="1" x1="942" y1="727" x2="942" y2="0"/>
<line opacity="0.1" stroke="#000000" stroke-width="1" x1="951" y1="727" x2="951" y2="0"/>
<line opacity="0.1" stroke="#000000" stroke-width="1" x1="961" y1="727" x2="961" y2="0"/>
<line opacity="0.1" stroke="#000000" stroke-width="1" x1="971" y1="727" x2="971" y2="0"/>
<line opacity="0.1" stroke="#000000" stroke-width="1" x1="981" y1="727" x2="981" y2="0"/>
<line opacity="0.1" stroke="#000000" stroke-width="1" x1="990" y1="727" x2="990" y2="0"/>
<line opacity="0.1" stroke="#000000" stroke-width="1" x1="1000" y1="727" x2="1000" y2="0"/>
<line opacity="0.1" stroke="#000000" stroke-width="1" x1="1010" y1="727" x2="1010" y2="0"/>
<line opacity="0.1" stroke="#000000" stroke-width="1" x1="1019" y1="727" x2="1019" y2="0"/>
<line opacity="0.1" stroke="#000000" stroke-width="1" x1="40" y1="727" x2="1023" y2="727"/>
<line opacity="0.1" stroke="#000000" stroke-width="1" x1="40" y1="721" x2="1023" y2="721"/>
<line opacity="0.1" stroke="#000000" stroke-width="1" x1="40" y1="714" x2="1023" y2="714"/>
<line opacity="0.1" stroke="#000000" stroke-width="1" x1="40" y1="707" x2="1023" y2="707"/>
<line opacity="0.1" stroke="#000000" stroke-width="1" x1="40" y1="700" x2="1023" y2="700"/>
<line opacity="0.1" stroke="#000000" stroke-width="1" x1="40" y1="693" x2="1023" y2="693"/>
<line opacity="0.1" stroke="#000000" stroke-width="1" x1="40" y1="686" x2="1023" y2="686"/>
<line opacity="0.1" stroke="#000000" stroke-width="1" x1="40" y1="679" x2="1023" y2="679"/>
<line opacity="0.1" stroke="#000000" stroke-width="1" x1="40" y1="672" x2="1023" y2="672"/>
<line opacity="0.1" stroke="#000000" stroke-width="1" x1="40" y1="665" x2="1023" y2="665"/>
<line opacity="0.1" stroke="#000000" stroke-width="1" x1="40" y1="658" x2="1023" y2="658"/>
<line opacity="0.1" stroke="#000000" stroke-width="1" x1="40" y1="651" x2="1023" y2="651"/>
<line opacity="0.1" stroke="#000000" stroke-width="1" x1="40" y1="644" x2="1023" y2="644"/>
<line opacity="0.1" stroke="#000000" stroke-width="1" x1="40" y1="637" x2="1023" y2="637"/>
<line opacity="0.1" stroke="#000000" stroke-width="1" x1="40" y1="631" x2="1023" y2="631"/>
<line opacity="0.1" stroke="#000000" stroke-width="1" x1="40" y1="624" x2="1023" y2="624"/>
<line opacity="0.1" stroke="#000000" stroke-width="1" x1="40" y1="617" x2="1023" y2="617"/>
<line opacity="0.1" stroke="#000000" stroke-width="1" x1="40" y1="610" x2="1023" y2="610"/>
<line opacity="0.1" stroke="#000000" stroke-width="1" x1="40" y1="603" x2="1023" y2="603"/>
<line opacity="0.1" stroke="#000000" stroke-width="1" x1="40" y1="596" x2="1023" y2="596"/>
<line opacity="0.1" stroke="#000000" stroke-width="1" x1="40" y1="589" x2="1023" y2="589"/>
<line opacity="0.1" stroke="#000000" stroke-width="1" x1="40" y1="582" x2="1023" y2="582"/>
<line opacity="0.1" stroke="#000000" stroke-width="1" x1="40" y1="575" x2="1023" y2="575"/>
<line opacity="0.1" stroke="#000000" stroke-width="1" x1="40" y1="568" x2="1023" y2="568"/>
<line opacity="0.1" stroke="#000000" stroke-width="1" x1="40" y1="561" x2="1023" y2="561"/>
<line opacity="0.1" stroke="#000000" stroke-width="1" x1="40" y1="554" x2="1023" y2="554"/>
<line opacity="0.1" stroke="#000000" stroke-width="1" x1="40" y1="547" x2="1023" y2="547"/>
<line opacity="0.1" stroke="#000000" stroke-width="1" x1="40" y1="541" x2="1023" y2="541"/>
<line opacity="0.1" stroke="#000000" stroke-width="1" x1="40" y1="534" x2="1023" y2="534"/>
<line opacity="0.1" stroke="#000000" stroke-width="1" x1="40" y1="527" x2="1023" y2="527"/>
<line opacity="0.1" stroke="#000000" stroke-width="1" x1="40" y1="520" x2="1023" y2="520"/>
<line opacity="0.1" stroke="#000000" stroke-width="1" x1="40" y1="513" x2="1023" y2="513"/>
<line opacity="0.1" stroke="#000000" stroke-width="1" x1="40" y1="506" x2="1023" y2="506"/>
<line opacity="0.1" stroke="#000000" stroke-width="1" x1="40" y1="499" x2="1023" y2="499"/>
<line opacity="0.1" stroke="#000000" stroke-width="1" x1="40" y1="492" x2="1023" y2="492"/>
<line opacity="0.1" stroke="#000000" stroke-width="1" x1="40" y1="485" x2="1023" y2="485"/>
<line opacity="0.1" stroke="#000000" stroke-width="1" x1="40" y1="478" x2="1023" y2="478"/>
<line opacity="0.1" stroke="#000000" stroke-width="1" x1="40" y1="471" x2="1023" y2="471"/>
<line opacity="0.1" stroke="#000000" stroke-width="1" x1="40" y1="464" x2="1023" y2="464"/>
<line opacity="0.1" stroke="#000000" stroke-width="1" x1="40" y1="457" x2="1023" y2="457"/>
<line opacity="0.1" stroke="#000000" stroke-width="1" x1="40" y1="451" x2="1023" y2="451"/>
<line opacity="0.1" stroke="#000000" stroke-width="1" x1="40" y1="444" x2="1023" y2="444"/>
<line opacity="0.1" stroke="#000000" stroke-width="1" x1="40" y1="437" x2="1023" y2="437"/>
<line opacity="0.1" stroke="#000000" stroke-width="1" x1="40" y1="430" x2="1023" y2="430"/>
<line opacity="0.1" stroke="#000000" stroke-width="1" x1="40" y1="423" x2="1023" y2="423"/>
<line opacity="0.1" stroke="#000000" stroke-width="1" x1="40" y1="416" x2="1023" y2="416"/>
<line opacity="0.1" stroke="#000000" stroke-width="1" x1="40" y1="409" x2="1023" y2="409"/>
<line opacity="0.1" stroke="#000000" stroke-width="1" x1="40" y1="402" x2="1023" y2="402"/>
<line opacity="0.1" stroke="#000000" stroke-width="1" x1="40" y1="395" x2="1023" y2="395"/>
<line opacity="0.1" stroke="#000000" stroke-width="1" x1="40" y1="388" x2="1023" y2="388"/>
<line opacity="0.1" stroke="#000000" stroke-width="1" x1="40" y1="381" x2="1023" y2="381"/>
<line opacity="0.1" stroke="#000000" stroke-width="1" x1="40" y1="374" x2="1023" y2="374"/>
<line opacity="0.1" stroke="#000000" stroke-width="1" x1="40" y1="367" x2="1023" y2="367"/>
<line opacity="0.1" stroke="#000000" stroke-width="1" x1="40" y1="361" x2="1023" y2="361"/>
<line opacity="0.1" stroke="#000000" stroke-width="1" x1="40" y1="354" x2="1023" y2="354"/>
<line opacity="0.1" stroke="#000000" stroke-width="1" x1="40" y1="347" x2="1023" y2="347"/>
<line opacity="0.1" stroke="#000000" stroke-width="1" x1="40" y1="340" x2="1023" y2="340"/>
<line opacity="0.1" stroke="#000000" stroke-width="1" x1="40" y1="333" x2="1023" y2="333"/>
<line opacity="0.1" stroke="#000000" stroke-width="1" x1="40" y1="326" x2="1023" y2="326"/>
<line opacity="0.1" stroke="#000000" stroke-width="1" x1="40" y1="319" x2="1023" y2="319"/>
<line opacity="0.1" stroke="#000000" stroke-width="1" x1="40" y1="312" x2="1023" y2="312"/>
<line opacity="0.1" stroke="#000000" stroke-width="1" x1="40" y1="305" x2="1023" y2="305"/>
<line opacity="0.1" stroke="#000000" stroke-width="1" x1="40" y1="298" x2="1023" y2="298"/>
<line opacity="0.1" stroke="#000000" stroke-width="1" x1="40" y1="291" x2="1023" y2="291"/>
<line opacity="0.1" stroke="#000000" stroke-width="1" x1="40" y1="284" x2="1023" y2="284"/>
<line opacity="0.1" stroke="#000000" stroke-width="1" x1="40" y1="277" x2="1023" y2="277"/>
<line opacity="0.1" stroke="#000000" stroke-width="1" x1="40" y1="271" x2="1023" y2="271"/>
<line opacity="0.1" stroke="#000000" stroke-width="1" x1="40" y1="264" x2="1023" y2="264"/>
<line opacity="0.1" stroke="#000000" stroke-width="1" x1="40" y1="257" x2="1023" y2="257"/>
<line opacity="0.1" stroke="#000000" stroke-width="1" x1="40" y1="250" x2="1023" y2="250"/>
<line opacity="0.1" stroke="#000000" stroke-width="1" x1="40" y1="243" x2="1023" y2="243"/>
<line opacity="0.1" stroke="#000000" stroke-width="1" x1="40" y1="236" x2="1023" y2="236"/>
<line opacity="0.1" stroke="#000000" stroke-width="1" x1="40" y1="229" x2="1023" y2="229"/>
<line opacity="0.1" stroke="#000000" stroke-width="1" x1="40" y1="222" x2="1023" y2="222"/>
<line opacity="0.1" stroke="#000000" stroke-width="1" x1="40" y1="215" x2="1023" y2="215"/>
<line opacity="0.1" stroke="#000000" stroke-width="1" x1="40" y1="208" x2="1023" y2="208"/>
<line opacity="0.1" stroke="#000000" stroke-width="1" x1="40" y1="201" x2="1023" y2="201"/>
<line opacity="0.1" stroke="#000000" stroke-width="1" x1="40" y1="194" x2="1023" y2="194"/>
<line opacity="0.1" stroke="#000000" stroke-width="1" x1="40" y1="187" x2="1023" y2="187"/>
<line opacity="0.1" stroke="#000000" stroke-width="1" x1="40" y1="181" x2="1023" y2="181"/>
<line opacity="0.1" stroke="#000000" stroke-width="1" x1="40" y1="174" x2="1023" y2="174"/>
<line opacity="0.1" stroke="#000000" stroke-width="1" x1="40" y1="167" x2="1023" y2="167"/>
<line opacity="0.1" stroke="#000000" stroke-width="1" x1="40" y1="160" x2="1023" y2="160"/>
<line opacity="0.1" stroke="#000000" stroke-width="1" x1="40" y1="153" x2="1023" y2="153"/>
<line opacity="0.1" stroke="#000000" stroke-width="1" x1="40" y1="146" x2="1023" y2="146"/>
<line opacity="0.1" stroke="#000000" stroke-width="1" x1="40" y1="139" x2="1023" y2="139"/>
<line opacity="0.1" stroke="#000000" stroke-width="1" x1="40" y1="132" x2="1023" y2="132"/>
<line opacity="0.1" stroke="#000000" stroke-width="1" x1="40" y1="125" x2="1023" y2="125"/>
<line opacity="0.1" stroke="#000000" stroke-width="1" x1="40" y1="118" x2="1023" y2="118"/>
<line opacity="0.1" stroke="#000000" stroke-width="1" x1="40" y1="111" x2="1023" y2="111"/>
<line opacity="0.1" stroke="#000000" stroke-width="1" x1="40" y1="104" x2="1023" y2="104"/>
<line opacity="0.1" stroke="#000000" stroke-width="1" x1="40" y1="97" x2="1023" y2="97"/>
<line opacity="0.1" stroke="#000000" stroke-width="1" x1="40" y1="91" x2="1023" y2="91"/>
<line opacity="0.1" stroke="#000000" stroke-width="1" x1="40" y1="84" x2="1023" y2="84"/>
<line opacity="0.1" stroke="#000000" stroke-width="1" x1="40" y1="77" x2="1023" y2="77"/>
<line opacity="0.1" stroke="#000000" stroke-width="1" x1="40" y1="70" x2="1023" y2="70"/>
<line opacity="0.1" stroke="#000000" stroke-width="1" x1="40" y1="63" x2="1023" y2="63"/>
<line opacity="0.1" stroke="#000000" stroke-width="1" x1="40" y1="56" x2="1023" y2="56"/>
<line opacity="0.1" stroke="#000000" stroke-width="1" x1="40" y1="49" x2="1023" y2="49"/>
<line opacity="0.1" stroke="#000000" stroke-width="1" x1="40" y1="42" x2="1023" y2="42"/>
<line opacity="0.1" stroke="#000000" stroke-width="1" x1="40" y1="35" x2="1023" y2="35"/>
<line opacity="0.1" stroke="#000000" stroke-width="1" x1="40" y1="28" x2="1023" y2="28"/>
<line opacity="0.1" stroke="#000000" stroke-width="1" x1="40" y1="21" x2="1023" y2="21"/>
<line opacity="0.1" stroke="#000000" stroke-width="1" x1="40" y1="14" x2="1023" y2="14"/>
<line opacity="0.1" stroke="#000000" stroke-width="1" x1="40" y1="7" x2="1023" y2="7"/>
<line opacity="0.2" stroke="#000000" stroke-width="1" x1="40" y1="727" x2="40" y2="0"/>
<line opacity="0.2" stroke="#000000" stroke-width="1" x1="137" y1="727" x2="137" y2="0"/>
<line opacity="0.2" stroke="#000000" stroke-width="1" x1="234" y1="727" x2="234" y2="0"/>
<line opacity="0.2" stroke="#000000" stroke-width="1" x1="331" y1="727" x2="331" y2="0"/>
<line opacity="0.2" stroke="#000000" stroke-width="1" x1="428" y1="727" x2="428" y2="0"/>
<line opacity="0.2" stroke="#000000" stroke-width="1" x1="525" y1="727" x2="525" y2="0"/>
<line opacity="0.2" stroke="#000000" stroke-width="1" x1="622" y1="727" x2="622" y2="0"/>
<line opacity="0.2" stroke="#000000" stroke-width="1" x1="719" y1="727" x2="719" y2="0"/>
<line opacity="0.2" stroke="#000000" stroke-width="1" x1="816" y1="727" x2="816" y2="0"/>
<line opacity="0.2" stroke="#000000" stroke-width="1" x1="913" y1="727" x2="913" y2="0"/>
<line opacity="0.2" stroke="#000000" stroke-width="1" x1="1010" y1="727" x2="1010" y2="0"/>
<line opacity="0.2" stroke="#000000" stroke-width="1" x1="40" y1="727" x2="1023" y2="727"/>
<line opacity="0.2" stroke="#000000" stroke-width="1" x1="40" y1="658" x2="1023" y2="658"/>
<line opacity="0.2" stroke="#000000" stroke-width="1" x1="40" y1="589" x2="1023" y2="589"/>
<line opacity="0.2" stroke="#000000" stroke-width="1" x1="40" y1="520" x2="1023" y2="520"/>
<line opacity="0.2" stroke="#000000" stroke-width="1" x1="40" y1="451" x2="1023" y2="451"/>
<line opacity="0.2" stroke="#000000" stroke-width="1" x1="40" y1="381" x2="1023" y2="381"/>
<line opacity="0.2" stroke="#000000" stroke-width="1" x1="40" y1="312" x2="1023" y2="312"/>
<line opacity="0.2" stroke="#000000" stroke-width="1" x1="40" y1="243" x2="1023" y2="243"/>
<line opacity="0.2" stroke="#000000" stroke-width="1" x1="40" y1="174" x2="1023" y2="174"/>
<line opacity="0.2" stroke="#000000" stroke-width="1" x1="40" y1="104" x2="1023" y2="104"/>
<line opacity="0.2" stroke="#000000" stroke-width="1" x1="40" y1="35" x2="1023" y2="35"/>
<polyline fill="none" opacity="1" stroke="#000000" stroke-width="1" points="39,0 39,727 "/>
<text x="30" y="727" dy="0.5ex" text-anchor="end" font-family="sans-serif" font-size="9.67741935483871" opacity="1" fill="#000000">
0.0
</text>
<polyline fill="none" opacity="1" stroke="#000000" stroke-width="1" points="34,727 39,727 "/>
<text x="30" y="658" dy="0.5ex" text-anchor="end" font-family="sans-serif" font-size="9.67741935483871" opacity="1" fill="#000000">
0.1
</text>
<polyline fill="none" opacity="1" stroke="#000000" stroke-width="1" points="34,658 39,658 "/>
<text x="30" y="589" dy="0.5ex" text-anchor="end" font-family="sans-serif" font-size="9.67741935483871" opacity="1" fill="#000000">
0.2
</text>
<polyline fill="none" opacity="1" stroke="#000000" stroke-width="1" points="34,589 39,589 "/>
<text x="30" y="520" dy="0.5ex" text-anchor="end" font-family="sans-serif" font-size="9.67741935483871" opacity="1" fill="#000000">
0.3
</text>
<polyline fill="none" opacity="1" stroke="#000000" stroke-width="1" points="34,520 39,520 "/>
<text x="30" y="451" dy="0.5ex" text-anchor="end" font-family="sans-serif" font-size="9.67741935483871" opacity="1" fill="#000000">
0.4
</text>
<polyline fill="none" opacity="1" stroke="#000000" stroke-width="1" points="34,451 39,451 "/>
<text x="30" y="381" dy="0.5ex" text-anchor="end" font-family="sans-serif" font-size="9.67741935483871" opacity="1" fill="#000000">
0.5
</text>
<polyline fill="none" opacity="1" stroke="#000000" stroke-width="1" points="34,381 39,381 "/>
<text x="30" y="312" dy="0.5ex" text-anchor="end" font-family="sans-serif" font-size="9.67741935483871" opacity="1" fill="#000000">
0.6
</text>
<polyline fill="none" opacity="1" stroke="#000000" stroke-width="1" points="34,312 39,312 "/>
<text x="30" y="243" dy="0.5ex" text-anchor="end" font-family="sans-serif" font-size="9.67741935483871" opacity="1" fill="#000000">
0.7
</text>
<polyline fill="none" opacity="1" stroke="#000000" stroke-width="1" points="34,243 39,243 "/>
<text x="30" y="174" dy="0.5ex" text-anchor="end" font-family="sans-serif" font-size="9.67741935483871" opacity="1" fill="#000000">
0.8
</text>
<polyline fill="none" opacity="1" stroke="#000000" stroke-width="1" points="34,174 39,174 "/>
<text x="30" y="104" dy="0.5ex" text-anchor="end" font-family="sans-serif" font-size="9.67741935483871" opacity="1" fill="#000000">
0.9
</text>
<polyline fill="none" opacity="1" stroke="#000000" stroke-width="1" points="34,104 39,104 "/>
<text x="30" y="35" dy="0.5ex" text-anchor="end" font-family="sans-serif" font-size="9.67741935483871" opacity="1" fill="#000000">
1.0
</text>
<polyline fill="none" opacity="1" stroke="#000000" stroke-width="1" points="34,35 39,35 "/>
<polyline fill="none" opacity="1" stroke="#000000" stroke-width="1" points="40,728 1023,728 "/>
<text x="40" y="738" dy="0.76em" text-anchor="middle" font-family="sans-serif" font-size="9.67741935483871" opacity="1" fill="#000000">
0.0
</text>
<polyline fill="none" opacity="1" stroke="#000000" stroke-width="1" points="40,728 40,733 "/>
<text x="137" y="738" dy="0.76em" text-anchor="middle" font-family="sans-serif" font-size="9.67741935483871" opacity="1" fill="#000000">
10000.0
</text>
<polyline fill="none" opacity="1" stroke="#000000" stroke-width="1" points="137,728 137,733 "/>
<text x="234" y="738" dy="0.76em" text-anchor="middle" font-family="sans-serif" font-size="9.67741935483871" opacity="1" fill="#000000">
20000.0
</text>
<polyline fill="none" opacity="1" stroke="#000000" stroke-width="1" points="234,728 234,733 "/>
<text x="331" y="738" dy="0.76em" text-anchor="middle" font-family="sans-serif" font-size="9.67741935483871" opacity="1" fill="#000000">
30000.0
</text>
<polyline fill="none" opacity="1" stroke="#000000" stroke-width="1" points="331,728 331,733 "/>
<text x="428" y="738" dy="0.76em" text-anchor="middle" font-family="sans-serif" font-size="9.67741935483871" opacity="1" fill="#000000">
40000.0
</text>
<polyline fill="none" opacity="1" stroke="#000000" stroke-width="1" points="428,728 428,733 "/>
<text x="525" y="738" dy="0.76em" text-anchor="middle" font-family="sans-serif" font-size="9.67741935483871" opacity="1" fill="#000000">
50000.0
</text>
<polyline fill="none" opacity="1" stroke="#000000" stroke-width="1" points="525,728 525,733 "/>
<text x="622" y="738" dy="0.76em" text-anchor="middle" font-family="sans-serif" font-size="9.67741935483871" opacity="1" fill="#000000">
60000.0
</text>
<polyline fill="none" opacity="1" stroke="#000000" stroke-width="1" points="622,728 622,733 "/>
<text x="719" y="738" dy="0.76em" text-anchor="middle" font-family="sans-serif" font-size="9.67741935483871" opacity="1" fill="#000000">
70000.0
</text>
<polyline fill="none" opacity="1" stroke="#000000" stroke-width="1" points="719,728 719,733 "/>
<text x="816" y="738" dy="0.76em" text-anchor="middle" font-family="sans-serif" font-size="9.67741935483871" opacity="1" fill="#000000">
80000.0
</text>
<polyline fill="none" opacity="1" stroke="#000000" stroke-width="1" points="816,728 816,733 "/>
<text x="913" y="738" dy="0.76em" text-anchor="middle" font-family="sans-serif" font-size="9.67741935483871" opacity="1" fill="#000000">
90000.0
</text>
<polyline fill="none" opacity="1" stroke="#000000" stroke-width="1" points="913,728 913,733 "/>
<text x="1010" y="738" dy="0.76em" text-anchor="middle" font-family="sans-serif" font-size="9.67741935483871" opacity="1" fill="#000000">
100000.0
</text>
<polyline fill="none" opacity="1" stroke="#000000" stroke-width="1" points="1010,728 1010,733 "/>
<polyline fill="none" opacity="1" stroke="#000000" stroke-width="2" points="616,727 623,724 626,721 632,717 639,714 641,710 644,707 648,703 649,700 650,696 650,693 650,689 652,686 654,682 654,679 655,676 655,672 656,669 657,665 657,662 657,658 657,655 658,651 658,648 658,644 658,641 658,637 659,634 659,631 659,627 660,624 660,620 660,617 661,613 661,610 662,606 662,603 663,599 663,596 663,592 664,589 664,586 664,582 665,579 665,575 666,572 666,568 666,565 666,561 666,558 666,554 666,551 666,547 666,544 666,541 667,537 667,534 667,530 667,527 668,523 668,520 668,516 668,513 669,509 669,506 669,502 669,499 670,496 670,492 670,489 670,485 670,482 671,478 671,475 671,471 671,468 671,464 671,461 672,457 672,454 672,451 672,447 672,444 673,440 673,437 673,433 673,430 673,426 673,423 673,419 673,416 673,412 674,409 674,406 674,402 674,399 674,395 674,392 675,388 675,385 675,381 675,378 676,374 676,371 676,367 676,364 677,361 677,357 677,354 677,350 677,347 677,343 677,340 677,336 678,333 678,329 678,326 678,322 678,319 678,316 679,312 679,309 679,305 679,302 680,298 680,295 680,291 680,288 680,284 681,281 681,277 681,274 681,271 681,267 681,264 681,260 682,257 682,253 683,250 683,246 683,243 684,239 684,236 684,232 684,229 684,226 684,222 685,219 686,215 686,212 686,208 686,205 686,201 687,198 687,194 688,191 689,187 689,184 689,181 690,177 690,174 690,170 690,167 691,163 692,160 692,156 692,153 693,149 693,146 694,142 694,139 695,136 695,132 697,129 697,125 697,122 698,118 700,115 700,111 703,108 704,104 704,101 705,97 706,94 706,91 706,87 707,84 707,80 710,77 713,73 715,70 715,66 715,63 717,59 718,56 722,52 727,49 784,46 940,42 1023,39 "/>
</svg>
