<svg width="1024" height="768" viewBox="0 0 1024 768" xmlns="http://www.w3.org/2000/svg">
<rect x="0" y="0" width="1024" height="768" opacity="1" fill="#FFFFFF" stroke="none"/>
<line opacity="0.1" stroke="#000000" stroke-width="1" x1="40" y1="727" x2="40" y2="0"/>
<line opacity="0.1" stroke="#000000" stroke-width="1" x1="50" y1="727" x2="50" y2="0"/>
<line opacity="0.1" stroke="#000000" stroke-width="1" x1="61" y1="727" x2="61" y2="0"/>
<line opacity="0.1" stroke="#000000" stroke-width="1" x1="72" y1="727" x2="72" y2="0"/>
<line opacity="0.1" stroke="#000000" stroke-width="1" x1="83" y1="727" x2="83" y2="0"/>
<line opacity="0.1" stroke="#000000" stroke-width="1" x1="93" y1="727" x2="93" y2="0"/>
<line opacity="0.1" stroke="#000000" stroke-width="1" x1="104" y1="727" x2="104" y2="0"/>
<line opacity="0.1" stroke="#000000" stroke-width="1" x1="115" y1="727" x2="115" y2="0"/>
<line opacity="0.1" stroke="#000000" stroke-width="1" x1="126" y1="727" x2="126" y2="0"/>
<line opacity="0.1" stroke="#000000" stroke-width="1" x1="136" y1="727" x2="136" y2="0"/>
<line opacity="0.1" stroke="#000000" stroke-width="1" x1="147" y1="727" x2="147" y2="0"/>
<line opacity="0.1" stroke="#000000" stroke-width="1" x1="158" y1="727" x2="158" y2="0"/>
<line opacity="0.1" stroke="#000000" stroke-width="1" x1="169" y1="727" x2="169" y2="0"/>
<line opacity="0.1" stroke="#000000" stroke-width="1" x1="179" y1="727" x2="179" y2="0"/>
<line opacity="0.1" stroke="#000000" stroke-width="1" x1="190" y1="727" x2="190" y2="0"/>
<line opacity="0.1" stroke="#000000" stroke-width="1" x1="201" y1="727" x2="201" y2="0"/>
<line opacity="0.1" stroke="#000000" stroke-width="1" x1="212" y1="727" x2="212" y2="0"/>
<line opacity="0.1" stroke="#000000" stroke-width="1" x1="222" y1="727" x2="222" y2="0"/>
<line opacity="0.1" stroke="#000000" stroke-width="1" x1="233" y1="727" x2="233" y2="0"/>
<line opacity="0.1" stroke="#000000" stroke-width="1" x1="244" y1="727" x2="244" y2="0"/>
<line opacity="0.1" stroke="#000000" stroke-width="1" x1="255" y1="727" x2="255" y2="0"/>
<line opacity="0.1" stroke="#000000" stroke-width="1" x1="265" y1="727" x2="265" y2="0"/>
<line opacity="0.1" stroke="#000000" stroke-width="1" x1="276" y1="727" x2="276" y2="0"/>
<line opacity="0.1" stroke="#000000" stroke-width="1" x1="287" y1="727" x2="287" y2="0"/>
<line opacity="0.1" stroke="#000000" stroke-width="1" x1="298" y1="727" x2="298" y2="0"/>
<line opacity="0.1" stroke="#000000" stroke-width="1" x1="308" y1="727" x2="308" y2="0"/>
<line opacity="0.1" stroke="#000000" stroke-width="1" x1="319" y1="727" x2="319" y2="0"/>
<line opacity="0.1" stroke="#000000" stroke-width="1" x1="330" y1="727" x2="330" y2="0"/>
<line opacity="0.1" stroke="#000000" stroke-width="1" x1="341" y1="727" x2="341" y2="0"/>
<line opacity="0.1" stroke="#000000" stroke-width="1" x1="351" y1="727" x2="351" y2="0"/>
<line opacity="0.1" stroke="#000000" stroke-width="1" x1="362" y1="727" x2="362" y2="0"/>
<line opacity="0.1" stroke="#000000" stroke-width="1" x1="373" y1="727" x2="373" y2="0"/>
<line opacity="0.1" stroke="#000000" stroke-width="1" x1="384" y1="727" x2="384" y2="0"/>
<line opacity="0.1" stroke="#000000" stroke-width="1" x1="394" y1="727" x2="394" y2="0"/>
<line opacity="0.1" stroke="#000000" stroke-width="1" x1="405" y1="727" x2="405" y2="0"/>
<line opacity="0.1" stroke="#000000" stroke-width="1" x1="416" y1="727" x2="416" y2="0"/>
<line opacity="0.1" stroke="#000000" stroke-width="1" x1="427" y1="727" x2="427" y2="0"/>
<line opacity="0.1" stroke="#000000" stroke-width="1" x1="437" y1="727" x2="437" y2="0"/>
<line opacity="0.1" stroke="#000000" stroke-width="1" x1="448" y1="727" x2="448" y2="0"/>
<line opacity="0.1" stroke="#000000" stroke-width="1" x1="459" y1="727" x2="459" y2="0"/>
<line opacity="0.1" stroke="#000000" stroke-width="1" x1="470" y1="727" x2="470" y2="0"/>
<line opacity="0.1" stroke="#000000" stroke-width="1" x1="481" y1="727" x2="481" y2="0"/>
<line opacity="0.1" stroke="#000000" stroke-width="1" x1="491" y1="727" x2="491" y2="0"/>
<line opacity="0.1" stroke="#000000" stroke-width="1" x1="502" y1="727" x2="502" y2="0"/>
<line opacity="0.1" stroke="#000000" stroke-width="1" x1="513" y1="727" x2="513" y2="0"/>
<line opacity="0.1" stroke="#000000" stroke-width="1" x1="524" y1="727" x2="524" y2="0"/>
<line opacity="0.1" stroke="#000000" stroke-width="1" x1="534" y1="727" x2="534" y2="0"/>
<line opacity="0.1" stroke="#000000" stroke-width="1" x1="545" y1="727" x2="545" y2="0"/>
<line opacity="0.1" stroke="#000000" stroke-width="1" x1="556" y1="727" x2="556" y2="0"/>
<line opacity="0.1" stroke="#000000" stroke-width="1" x1="567" y1="727" x2="567" y2="0"/>
<line opacity="0.1" stroke="#000000" stroke-width="1" x1="577" y1="727" x2="577" y2="0"/>
<line opacity="0.1" stroke="#000000" stroke-width="1" x1="588" y1="727" x2="588" y2="0"/>
<line opacity="0.1" stroke="#000000" stroke-width="1" x1="599" y1="727" x2="599" y2="0"/>
<line opacity="0.1" stroke="#000000" stroke-width="1" x1="610" y1="727" x2="610" y2="0"/>
<line opacity="0.1" stroke="#000000" stroke-width="1" x1="620" y1="727" x2="620" y2="0"/>
<line opacity="0.1" stroke="#000000" stroke-width="1" x1="631" y1="727" x2="631" y2="0"/>
<line opacity="0.1" stroke="#000000" stroke-width="1" x1="642" y1="727" x2="642" y2="0"/>
<line opacity="0.1" stroke="#000000" stroke-width="1" x1="653" y1="727" x2="653" y2="0"/>
<line opacity="0.1" stroke="#000000" stroke-width="1" x1="663" y1="727" x2="663" y2="0"/>
<line opacity="0.1" stroke="#000000" stroke-width="1" x1="674" y1="727" x2="674" y2="0"/>
<line opacity="0.1" stroke="#000000" stroke-width="1" x1="685" y1="727" x2="685" y2="0"/>
<line opacity="0.1" stroke="#000000" stroke-width="1" x1="696" y1="727" x2="696" y2="0"/>
<line opacity="0.1" stroke="#000000" stroke-width="1" x1="706" y1="727" x2="706" y2="0"/>
<line opacity="0.1" stroke="#000000" stroke-width="1" x1="717" y1="727" x2="717" y2="0"/>
<line opacity="0.1" stroke="#000000" stroke-width="1" x1="728" y1="727" x2="728" y2="0"/>
<line opacity="0.1" stroke="#000000" stroke-width="1" x1="739" y1="727" x2="739" y2="0"/>
<line opacity="0.1" stroke="#000000" stroke-width="1" x1="749" y1="727" x2="749" y2="0"/>
<line opacity="0.1" stroke="#000000" stroke-width="1" x1="760" y1="727" x2="760" y2="0"/>
<line opacity="0.1" stroke="#000000" stroke-width="1" x1="771" y1="727" x2="771" y2="0"/>
<line opacity="0.1" stroke="#000000" stroke-width="1" x1="782" y1="727" x2="782" y2="0"/>
<line opacity="0.1" stroke="#000000" stroke-width="1" x1="792" y1="727" x2="792" y2="0"/>
<line opacity="0.1" stroke="#000000" stroke-width="1" x1="803" y1="727" x2="803" y2="0"/>
<line opacity="0.1" stroke="#000000" stroke-width="1" x1="814" y1="727" x2="814" y2="0"/>
<line opacity="0.1" stroke="#000000" stroke-width="1" x1="825" y1="727" x2="825" y2="0"/>
<line opacity="0.1" stroke="#000000" stroke-width="1" x1="835" y1="727" x2="835" y2="0"/>
<line opacity="0.1" stroke="#000000" stroke-width="1" x1="846" y1="727" x2="846" y2="0"/>
<line opacity="0.1" stroke="#000000" stroke-width="1" x1="857" y1="727" x2="857" y2="0"/>
<line opacity="0.1" stroke="#000000" stroke-width="1" x1="868" y1="727" x2="868" y2="0"/>
<line opacity="0.1" stroke="#000000" stroke-width="1" x1="879" y1="727" x2="879" y2="0"/>
<line opacity="0.1" stroke="#000000" stroke-width="1" x1="889" y1="727" x2="889" y2="0"/>
<line opacity="0.1" stroke="#000000" stroke-width="1" x1="900" y1="727" x2="900" y2="0"/>
<line opacity="0.1" stroke="#000000" stroke-width="1" x1="911" y1="727" x2="911" y2="0"/>
<line opacity="0.1" stroke="#000000" stroke-width="1" x1="922" y1="727" x2="922" y2="0"/>
<line opacity="0.1" stroke="#000000" stroke-width="1" x1="932" y1="727" x2="932" y2="0"/>
<line opacity="0.1" stroke="#000000" stroke-width="1" x1="943" y1="727" x2="943" y2="0"/>
<line opacity="0.1" stroke="#000000" stroke-width="1" x1="954" y1="727" x2="954" y2="0"/>
<line opacity="0.1" stroke="#000000" stroke-width="1" x1="965" y1="727" x2="965" y2="0"/>
<line opacity="0.1" stroke="#000000" stroke-width="1" x1="975" y1="727" x2="975" y2="0"/>
<line opacity="0.1" stroke="#000000" stroke-width="1" x1="986" y1="727" x2="986" y2="0"/>
<line opacity="0.1" stroke="#000000" stroke-width="1" x1="997" y1="727" x2="997" y2="0"/>
<line opacity="0.1" stroke="#000000" stroke-width="1" x1="1008" y1="727" x2="1008" y2="0"/>
<line opacity="0.1" stroke="#000000" stroke-width="1" x1="1018" y1="727" x2="1018" y2="0"/>
<line opacity="0.1" stroke="#000000" stroke-width="1" x1="40" y1="727" x2="1023" y2="727"/>
<line opacity="0.1" stroke="#000000" stroke-width="1" x1="40" y1="721" x2="1023" y2="721"/>
<line opacity="0.1" stroke="#000000" stroke-width="1" x1="40" y1="714" x2="1023" y2="714"/>
<line opacity="0.1" stroke="#000000" stroke-width="1" x1="40" y1="707" x2="1023" y2="707"/>
<line opacity="0.1" stroke="#000000" stroke-width="1" x1="40" y1="700" x2="1023" y2="700"/>
<line opacity="0.1" stroke="#000000" stroke-width="1" x1="40" y1="693" x2="1023" y2="693"/>
<line opacity="0.1" stroke="#000000" stroke-width="1" x1="40" y1="686" x2="1023" y2="686"/>
<line opacity="0.1" stroke="#000000" stroke-width="1" x1="40" y1="679" x2="1023" y2="679"/>
<line opacity="0.1" stroke="#000000" stroke-width="1" x1="40" y1="672" x2="1023" y2="672"/>
<line opacity="0.1" stroke="#000000" stroke-width="1" x1="40" y1="665" x2="1023" y2="665"/>
<line opacity="0.1" stroke="#000000" stroke-width="1" x1="40" y1="658" x2="1023" y2="658"/>
<line opacity="0.1" stroke="#000000" stroke-width="1" x1="40" y1="651" x2="1023" y2="651"/>
<line opacity="0.1" stroke="#000000" stroke-width="1" x1="40" y1="644" x2="1023" y2="644"/>
<line opacity="0.1" stroke="#000000" stroke-width="1" x1="40" y1="637" x2="1023" y2="637"/>
<line opacity="0.1" stroke="#000000" stroke-width="1" x1="40" y1="631" x2="1023" y2="631"/>
<line opacity="0.1" stroke="#000000" stroke-width="1" x1="40" y1="624" x2="1023" y2="624"/>
<line opacity="0.1" stroke="#000000" stroke-width="1" x1="40" y1="617" x2="1023" y2="617"/>
<line opacity="0.1" stroke="#000000" stroke-width="1" x1="40" y1="610" x2="1023" y2="610"/>
<line opacity="0.1" stroke="#000000" stroke-width="1" x1="40" y1="603" x2="1023" y2="603"/>
<line opacity="0.1" stroke="#000000" stroke-width="1" x1="40" y1="596" x2="1023" y2="596"/>
<line opacity="0.1" stroke="#000000" stroke-width="1" x1="40" y1="589" x2="1023" y2="589"/>
<line opacity="0.1" stroke="#000000" stroke-width="1" x1="40" y1="582" x2="1023" y2="582"/>
<line opacity="0.1" stroke="#000000" stroke-width="1" x1="40" y1="575" x2="1023" y2="575"/>
<line opacity="0.1" stroke="#000000" stroke-width="1" x1="40" y1="568" x2="1023" y2="568"/>
<line opacity="0.1" stroke="#000000" stroke-width="1" x1="40" y1="561" x2="1023" y2="561"/>
<line opacity="0.1" stroke="#000000" stroke-width="1" x1="40" y1="554" x2="1023" y2="554"/>
<line opacity="0.1" stroke="#000000" stroke-width="1" x1="40" y1="547" x2="1023" y2="547"/>
<line opacity="0.1" stroke="#000000" stroke-width="1" x1="40" y1="541" x2="1023" y2="541"/>
<line opacity="0.1" stroke="#000000" stroke-width="1" x1="40" y1="534" x2="1023" y2="534"/>
<line opacity="0.1" stroke="#000000" stroke-width="1" x1="40" y1="527" x2="1023" y2="527"/>
<line opacity="0.1" stroke="#000000" stroke-width="1" x1="40" y1="520" x2="1023" y2="520"/>
<line opacity="0.1" stroke="#000000" stroke-width="1" x1="40" y1="513" x2="1023" y2="513"/>
<line opacity="0.1" stroke="#000000" stroke-width="1" x1="40" y1="506" x2="1023" y2="506"/>
<line opacity="0.1" stroke="#000000" stroke-width="1" x1="40" y1="499" x2="1023" y2="499"/>
<line opacity="0.1" stroke="#000000" stroke-width="1" x1="40" y1="492" x2="1023" y2="492"/>
<line opacity="0.1" stroke="#000000" stroke-width="1" x1="40" y1="485" x2="1023" y2="485"/>
<line opacity="0.1" stroke="#000000" stroke-width="1" x1="40" y1="478" x2="1023" y2="478"/>
<line opacity="0.1" stroke="#000000" stroke-width="1" x1="40" y1="471" x2="1023" y2="471"/>
<line opacity="0.1" stroke="#000000" stroke-width="1" x1="40" y1="464" x2="1023" y2="464"/>
<line opacity="0.1" stroke="#000000" stroke-width="1" x1="40" y1="457" x2="1023" y2="457"/>
<line opacity="0.1" stroke="#000000" stroke-width="1" x1="40" y1="451" x2="1023" y2="451"/>
<line opacity="0.1" stroke="#000000" stroke-width="1" x1="40" y1="444" x2="1023" y2="444"/>
<line opacity="0.1" stroke="#000000" stroke-width="1" x1="40" y1="437" x2="1023" y2="437"/>
<line opacity="0.1" stroke="#000000" stroke-width="1" x1="40" y1="430" x2="1023" y2="430"/>
<line opacity="0.1" stroke="#000000" stroke-width="1" x1="40" y1="423" x2="1023" y2="423"/>
<line opacity="0.1" stroke="#000000" stroke-width="1" x1="40" y1="416" x2="1023" y2="416"/>
<line opacity="0.1" stroke="#000000" stroke-width="1" x1="40" y1="409" x2="1023" y2="409"/>
<line opacity="0.1" stroke="#000000" stroke-width="1" x1="40" y1="402" x2="1023" y2="402"/>
<line opacity="0.1" stroke="#000000" stroke-width="1" x1="40" y1="395" x2="1023" y2="395"/>
<line opacity="0.1" stroke="#000000" stroke-width="1" x1="40" y1="388" x2="1023" y2="388"/>
<line opacity="0.1" stroke="#000000" stroke-width="1" x1="40" y1="381" x2="1023" y2="381"/>
<line opacity="0.1" stroke="#000000" stroke-width="1" x1="40" y1="374" x2="1023" y2="374"/>
<line opacity="0.1" stroke="#000000" stroke-width="1" x1="40" y1="367" x2="1023" y2="367"/>
<line opacity="0.1" stroke="#000000" stroke-width="1" x1="40" y1="361" x2="1023" y2="361"/>
<line opacity="0.1" stroke="#000000" stroke-width="1" x1="40" y1="354" x2="1023" y2="354"/>
<line opacity="0.1" stroke="#000000" stroke-width="1" x1="40" y1="347" x2="1023" y2="347"/>
<line opacity="0.1" stroke="#000000" stroke-width="1" x1="40" y1="340" x2="1023" y2="340"/>
<line opacity="0.1" stroke="#000000" stroke-width="1" x1="40" y1="333" x2="1023" y2="333"/>
<line opacity="0.1" stroke="#000000" stroke-width="1" x1="40" y1="326" x2="1023" y2="326"/>
<line opacity="0.1" stroke="#000000" stroke-width="1" x1="40" y1="319" x2="1023" y2="319"/>
<line opacity="0.1" stroke="#000000" stroke-width="1" x1="40" y1="312" x2="1023" y2="312"/>
<line opacity="0.1" stroke="#000000" stroke-width="1" x1="40" y1="305" x2="1023" y2="305"/>
<line opacity="0.1" stroke="#000000" stroke-width="1" x1="40" y1="298" x2="1023" y2="298"/>
<line opacity="0.1" stroke="#000000" stroke-width="1" x1="40" y1="291" x2="1023" y2="291"/>
<line opacity="0.1" stroke="#000000" stroke-width="1" x1="40" y1="284" x2="1023" y2="284"/>
<line opacity="0.1" stroke="#000000" stroke-width="1" x1="40" y1="277" x2="1023" y2="277"/>
<line opacity="0.1" stroke="#000000" stroke-width="1" x1="40" y1="271" x2="1023" y2="271"/>
<line opacity="0.1" stroke="#000000" stroke-width="1" x1="40" y1="264" x2="1023" y2="264"/>
<line opacity="0.1" stroke="#000000" stroke-width="1" x1="40" y1="257" x2="1023" y2="257"/>
<line opacity="0.1" stroke="#000000" stroke-width="1" x1="40" y1="250" x2="1023" y2="250"/>
<line opacity="0.1" stroke="#000000" stroke-width="1" x1="40" y1="243" x2="1023" y2="243"/>
<line opacity="0.1" stroke="#000000" stroke-width="1" x1="40" y1="236" x2="1023" y2="236"/>
<line opacity="0.1" stroke="#000000" stroke-width="1" x1="40" y1="229" x2="1023" y2="229"/>
<line opacity="0.1" stroke="#000000" stroke-width="1" x1="40" y1="222" x2="1023" y2="222"/>
<line opacity="0.1" stroke="#000000" stroke-width="1" x1="40" y1="215" x2="1023" y2="215"/>
<line opacity="0.1" stroke="#000000" stroke-width="1" x1="40" y1="208" x2="1023" y2="208"/>
<line opacity="0.1" stroke="#000000" stroke-width="1" x1="40" y1="201" x2="1023" y2="201"/>
<line opacity="0.1" stroke="#000000" stroke-width="1" x1="40" y1="194" x2="1023" y2="194"/>
<line opacity="0.1" stroke="#000000" stroke-width="1" x1="40" y1="187" x2="1023" y2="187"/>
<line opacity="0.1" stroke="#000000" stroke-width="1" x1="40" y1="181" x2="1023" y2="181"/>
<line opacity="0.1" stroke="#000000" stroke-width="1" x1="40" y1="174" x2="1023" y2="174"/>
<line opacity="0.1" stroke="#000000" stroke-width="1" x1="40" y1="167" x2="1023" y2="167"/>
<line opacity="0.1" stroke="#000000" stroke-width="1" x1="40" y1="160" x2="1023" y2="160"/>
<line opacity="0.1" stroke="#000000" stroke-width="1" x1="40" y1="153" x2="1023" y2="153"/>
<line opacity="0.1" stroke="#000000" stroke-width="1" x1="40" y1="146" x2="1023" y2="146"/>
<line opacity="0.1" stroke="#000000" stroke-width="1" x1="40" y1="139" x2="1023" y2="139"/>
<line opacity="0.1" stroke="#000000" stroke-width="1" x1="40" y1="132" x2="1023" y2="132"/>
<line opacity="0.1" stroke="#000000" stroke-width="1" x1="40" y1="125" x2="1023" y2="125"/>
<line opacity="0.1" stroke="#000000" stroke-width="1" x1="40" y1="118" x2="1023" y2="118"/>
<line opacity="0.1" stroke="#000000" stroke-width="1" x1="40" y1="111" x2="1023" y2="111"/>
<line opacity="0.1" stroke="#000000" stroke-width="1" x1="40" y1="104" x2="1023" y2="104"/>
<line opacity="0.1" stroke="#000000" stroke-width="1" x1="40" y1="97" x2="1023" y2="97"/>
<line opacity="0.1" stroke="#000000" stroke-width="1" x1="40" y1="91" x2="1023" y2="91"/>
<line opacity="0.1" stroke="#000000" stroke-width="1" x1="40" y1="84" x2="1023" y2="84"/>
<line opacity="0.1" stroke="#000000" stroke-width="1" x1="40" y1="77" x2="1023" y2="77"/>
<line opacity="0.1" stroke="#000000" stroke-width="1" x1="40" y1="70" x2="1023" y2="70"/>
<line opacity="0.1" stroke="#000000" stroke-width="1" x1="40" y1="63" x2="1023" y2="63"/>
<line opacity="0.1" stroke="#000000" stroke-width="1" x1="40" y1="56" x2="1023" y2="56"/>
<line opacity="0.1" stroke="#000000" stroke-width="1" x1="40" y1="49" x2="1023" y2="49"/>
<line opacity="0.1" stroke="#000000" stroke-width="1" x1="40" y1="42" x2="1023" y2="42"/>
<line opacity="0.1" stroke="#000000" stroke-width="1" x1="40" y1="35" x2="1023" y2="35"/>
<line opacity="0.1" stroke="#000000" stroke-width="1" x1="40" y1="28" x2="1023" y2="28"/>
<line opacity="0.1" stroke="#000000" stroke-width="1" x1="40" y1="21" x2="1023" y2="21"/>
<line opacity="0.1" stroke="#000000" stroke-width="1" x1="40" y1="14" x2="1023" y2="14"/>
<line opacity="0.1" stroke="#000000" stroke-width="1" x1="40" y1="7" x2="1023" y2="7"/>
<line opacity="0.2" stroke="#000000" stroke-width="1" x1="40" y1="727" x2="40" y2="0"/>
<line opacity="0.2" stroke="#000000" stroke-width="1" x1="147" y1="727" x2="147" y2="0"/>
<line opacity="0.2" stroke="#000000" stroke-width="1" x1="255" y1="727" x2="255" y2="0"/>
<line opacity="0.2" stroke="#000000" stroke-width="1" x1="362" y1="727" x2="362" y2="0"/>
<line opacity="0.2" stroke="#000000" stroke-width="1" x1="470" y1="727" x2="470" y2="0"/>
<line opacity="0.2" stroke="#000000" stroke-width="1" x1="577" y1="727" x2="577" y2="0"/>
<line opacity="0.2" stroke="#000000" stroke-width="1" x1="685" y1="727" x2="685" y2="0"/>
<line opacity="0.2" stroke="#000000" stroke-width="1" x1="792" y1="727" x2="792" y2="0"/>
<line opacity="0.2" stroke="#000000" stroke-width="1" x1="900" y1="727" x2="900" y2="0"/>
<line opacity="0.2" stroke="#000000" stroke-width="1" x1="1008" y1="727" x2="1008" y2="0"/>
<line opacity="0.2" stroke="#000000" stroke-width="1" x1="40" y1="727" x2="1023" y2="727"/>
<line opacity="0.2" stroke="#000000" stroke-width="1" x1="40" y1="658" x2="1023" y2="658"/>
<line opacity="0.2" stroke="#000000" stroke-width="1" x1="40" y1="589" x2="1023" y2="589"/>
<line opacity="0.2" stroke="#000000" stroke-width="1" x1="40" y1="520" x2="1023" y2="520"/>
<line opacity="0.2" stroke="#000000" stroke-width="1" x1="40" y1="451" x2="1023" y2="451"/>
<line opacity="0.2" stroke="#000000" stroke-width="1" x1="40" y1="381" x2="1023" y2="381"/>
<line opacity="0.2" stroke="#000000" stroke-width="1" x1="40" y1="312" x2="1023" y2="312"/>
<line opacity="0.2" stroke="#000000" stroke-width="1" x1="40" y1="243" x2="1023" y2="243"/>
<line opacity="0.2" stroke="#000000" stroke-width="1" x1="40" y1="174" x2="1023" y2="174"/>
<line opacity="0.2" stroke="#000000" stroke-width="1" x1="40" y1="104" x2="1023" y2="104"/>
<line opacity="0.2" stroke="#000000" stroke-width="1" x1="40" y1="35" x2="1023" y2="35"/>
<polyline fill="none" opacity="1" stroke="#000000" stroke-width="1" points="39,0 39,727 "/>
<text x="30" y="727" dy="0.5ex" text-anchor="end" font-family="sans-serif" font-size="9.67741935483871" opacity="1" fill="#000000">
0.0
</text>
<polyline fill="none" opacity="1" stroke="#000000" stroke-width="1" points="34,727 39,727 "/>
<text x="30" y="658" dy="0.5ex" text-anchor="end" font-family="sans-serif" font-size="9.67741935483871" opacity="1" fill="#000000">
0.1
</text>
<polyline fill="none" opacity="1" stroke="#000000" stroke-width="1" points="34,658 39,658 "/>
<text x="30" y="589" dy="0.5ex" text-anchor="end" font-family="sans-serif" font-size="9.67741935483871" opacity="1" fill="#000000">
0.2
</text>
<polyline fill="none" opacity="1" stroke="#000000" stroke-width="1" points="34,589 39,589 "/>
<text x="30" y="520" dy="0.5ex" text-anchor="end" font-family="sans-serif" font-size="9.67741935483871" opacity="1" fill="#000000">
0.3
</text>
<polyline fill="none" opacity="1" stroke="#000000" stroke-width="1" points="34,520 39,520 "/>
<text x="30" y="451" dy="0.5ex" text-anchor="end" font-family="sans-serif" font-size="9.67741935483871" opacity="1" fill="#000000">
0.4
</text>
<polyline fill="none" opacity="1" stroke="#000000" stroke-width="1" points="34,451 39,451 "/>
<text x="30" y="381" dy="0.5ex" text-anchor="end" font-family="sans-serif" font-size="9.67741935483871" opacity="1" fill="#000000">
0.5
</text>
<polyline fill="none" opacity="1" stroke="#000000" stroke-width="1" points="34,381 39,381 "/>
<text x="30" y="312" dy="0.5ex" text-anchor="end" font-family="sans-serif" font-size="9.67741935483871" opacity="1" fill="#000000">
0.6
</text>
<polyline fill="none" opacity="1" stroke="#000000" stroke-width="1" points="34,312 39,312 "/>
<text x="30" y="243" dy="0.5ex" text-anchor="end" font-family="sans-serif" font-size="9.67741935483871" opacity="1" fill="#000000">
0.7
</text>
<polyline fill="none" opacity="1" stroke="#000000" stroke-width="1" points="34,243 39,243 "/>
<text x="30" y="174" dy="0.5ex" text-anchor="end" font-family="sans-serif" font-size="9.67741935483871" opacity="1" fill="#000000">
0.8
</text>
<polyline fill="none" opacity="1" stroke="#000000" stroke-width="1" points="34,174 39,174 "/>
<text x="30" y="104" dy="0.5ex" text-anchor="end" font-family="sans-serif" font-size="9.67741935483871" opacity="1" fill="#000000">
0.9
</text>
<polyline fill="none" opacity="1" stroke="#000000" stroke-width="1" points="34,104 39,104 "/>
<text x="30" y="35" dy="0.5ex" text-anchor="end" font-family="sans-serif" font-size="9.67741935483871" opacity="1" fill="#000000">
1.0
</text>
<polyline fill="none" opacity="1" stroke="#000000" stroke-width="1" points="34,35 39,35 "/>
<polyline fill="none" opacity="1" stroke="#000000" stroke-width="1" points="40,728 1023,728 "/>
<text x="40" y="738" dy="0.76em" text-anchor="middle" font-family="sans-serif" font-size="9.67741935483871" opacity="1" fill="#000000">
0.0
</text>
<polyline fill="none" opacity="1" stroke="#000000" stroke-width="1" points="40,728 40,733 "/>
<text x="147" y="738" dy="0.76em" text-anchor="middle" font-family="sans-serif" font-size="9.67741935483871" opacity="1" fill="#000000">
10000.0
</text>
<polyline fill="none" opacity="1" stroke="#000000" stroke-width="1" points="147,728 147,733 "/>
<text x="255" y="738" dy="0.76em" text-anchor="middle" font-family="sans-serif" font-size="9.67741935483871" opacity="1" fill="#000000">
20000.0
</text>
<polyline fill="none" opacity="1" stroke="#000000" stroke-width="1" points="255,728 255,733 "/>
<text x="362" y="738" dy="0.76em" text-anchor="middle" font-family="sans-serif" font-size="9.67741935483871" opacity="1" fill="#000000">
30000.0
</text>
<polyline fill="none" opacity="1" stroke="#000000" stroke-width="1" points="362,728 362,733 "/>
<text x="470" y="738" dy="0.76em" text-anchor="middle" font-family="sans-serif" font-size="9.67741935483871" opacity="1" fill="#000000">
40000.0
</text>
<polyline fill="none" opacity="1" stroke="#000000" stroke-width="1" points="470,728 470,733 "/>
<text x="577" y="738" dy="0.76em" text-anchor="middle" font-family="sans-serif" font-size="9.67741935483871" opacity="1" fill="#000000">
50000.0
</text>
<polyline fill="none" opacity="1" stroke="#000000" stroke-width="1" points="577,728 577,733 "/>
<text x="685" y="738" dy="0.76em" text-anchor="middle" font-family="sans-serif" font-size="9.67741935483871" opacity="1" fill="#000000">
60000.0
</text>
<polyline fill="none" opacity="1" stroke="#000000" stroke-width="1" points="685,728 685,733 "/>
<text x="792" y="738" dy="0.76em" text-anchor="middle" font-family="sans-serif" font-size="9.67741935483871" opacity="1" fill="#000000">
70000.0
</text>
<polyline fill="none" opacity="1" stroke="#000000" stroke-width="1" points="792,728 792,733 "/>
<text x="900" y="738" dy="0.76em" text-anchor="middle" font-family="sans-serif" font-size="9.67741935483871" opacity="1" fill="#000000">
80000.0
</text>
<polyline fill="none" opacity="1" stroke="#000000" stroke-width="1" points="900,728 900,733 "/>
<text x="1008" y="738" dy="0.76em" text-anchor="middle" font-family="sans-serif" font-size="9.67741935483871" opacity="1" fill="#000000">
90000.0
</text>
<polyline fill="none" opacity="1" stroke="#000000" stroke-width="1" points="1008,728 1008,733 "/>
<polyline fill="none" opacity="1" stroke="#000000" stroke-width="2" points="593,727 660,724 679,721 679,717 690,714 702,710 709,707 710,703 712,700 713,696 714,693 717,689 719,686 719,682 720,679 721,676 721,672 721,669 724,665 724,662 725,658 727,655 727,651 727,648 727,644 727,641 727,637 728,634 728,631 728,627 728,624 729,620 730,617 730,613 730,610 730,606 731,603 731,599 732,596 732,592 732,589 732,586 732,582 732,579 733,575 733,572 734,568 734,565 734,561 735,558 735,554 735,551 736,547 736,544 736,541 736,537 736,534 737,530 737,527 737,523 738,520 738,516 739,513 739,509 739,506 740,502 740,499 741,496 741,492 741,489 741,485 742,482 743,478 743,475 743,471 743,468 743,464 743,461 743,457 744,454 744,451 744,447 744,444 745,440 745,437 745,433 745,430 745,426 746,423 746,419 746,416 746,412 746,409 747,406 747,402 747,399 747,395 747,392 748,388 748,385 748,381 748,378 748,374 749,371 749,367 749,364 749,361 749,357 749,354 750,350 750,347 750,343 750,340 751,336 751,333 751,329 751,326 751,322 751,319 752,316 752,312 752,309 752,305 752,302 752,298 753,295 753,291 753,288 753,284 754,281 754,277 754,274 755,271 755,267 755,264 755,260 755,257 755,253 756,250 756,246 757,243 757,239 757,236 758,232 758,229 758,226 758,222 758,219 759,215 759,212 759,208 759,205 759,201 760,198 760,194 761,191 761,187 762,184 762,181 762,177 762,174 762,170 762,167 762,163 763,160 763,156 765,153 765,149 766,146 767,142 768,139 768,136 771,132 771,129 772,125 772,122 772,118 773,115 774,111 774,108 774,104 775,101 777,97 777,94 781,91 781,87 782,84 784,80 787,77 793,73 793,70 797,66 807,63 809,59 822,56 826,52 839,49 849,46 907,42 1023,39 "/>
</svg>
