<svg width="1024" height="768" viewBox="0 0 1024 768" xmlns="http://www.w3.org/2000/svg">
<rect x="0" y="0" width="1024" height="768" opacity="1" fill="#FFFFFF" stroke="none"/>
<line opacity="0.1" stroke="#000000" stroke-width="1" x1="40" y1="727" x2="40" y2="0"/>
<line opacity="0.1" stroke="#000000" stroke-width="1" x1="51" y1="727" x2="51" y2="0"/>
<line opacity="0.1" stroke="#000000" stroke-width="1" x1="62" y1="727" x2="62" y2="0"/>
<line opacity="0.1" stroke="#000000" stroke-width="1" x1="73" y1="727" x2="73" y2="0"/>
<line opacity="0.1" stroke="#000000" stroke-width="1" x1="85" y1="727" x2="85" y2="0"/>
<line opacity="0.1" stroke="#000000" stroke-width="1" x1="96" y1="727" x2="96" y2="0"/>
<line opacity="0.1" stroke="#000000" stroke-width="1" x1="107" y1="727" x2="107" y2="0"/>
<line opacity="0.1" stroke="#000000" stroke-width="1" x1="118" y1="727" x2="118" y2="0"/>
<line opacity="0.1" stroke="#000000" stroke-width="1" x1="130" y1="727" x2="130" y2="0"/>
<line opacity="0.1" stroke="#000000" stroke-width="1" x1="141" y1="727" x2="141" y2="0"/>
<line opacity="0.1" stroke="#000000" stroke-width="1" x1="152" y1="727" x2="152" y2="0"/>
<line opacity="0.1" stroke="#000000" stroke-width="1" x1="163" y1="727" x2="163" y2="0"/>
<line opacity="0.1" stroke="#000000" stroke-width="1" x1="175" y1="727" x2="175" y2="0"/>
<line opacity="0.1" stroke="#000000" stroke-width="1" x1="186" y1="727" x2="186" y2="0"/>
<line opacity="0.1" stroke="#000000" stroke-width="1" x1="197" y1="727" x2="197" y2="0"/>
<line opacity="0.1" stroke="#000000" stroke-width="1" x1="208" y1="727" x2="208" y2="0"/>
<line opacity="0.1" stroke="#000000" stroke-width="1" x1="220" y1="727" x2="220" y2="0"/>
<line opacity="0.1" stroke="#000000" stroke-width="1" x1="231" y1="727" x2="231" y2="0"/>
<line opacity="0.1" stroke="#000000" stroke-width="1" x1="242" y1="727" x2="242" y2="0"/>
<line opacity="0.1" stroke="#000000" stroke-width="1" x1="253" y1="727" x2="253" y2="0"/>
<line opacity="0.1" stroke="#000000" stroke-width="1" x1="265" y1="727" x2="265" y2="0"/>
<line opacity="0.1" stroke="#000000" stroke-width="1" x1="276" y1="727" x2="276" y2="0"/>
<line opacity="0.1" stroke="#000000" stroke-width="1" x1="287" y1="727" x2="287" y2="0"/>
<line opacity="0.1" stroke="#000000" stroke-width="1" x1="298" y1="727" x2="298" y2="0"/>
<line opacity="0.1" stroke="#000000" stroke-width="1" x1="310" y1="727" x2="310" y2="0"/>
<line opacity="0.1" stroke="#000000" stroke-width="1" x1="321" y1="727" x2="321" y2="0"/>
<line opacity="0.1" stroke="#000000" stroke-width="1" x1="332" y1="727" x2="332" y2="0"/>
<line opacity="0.1" stroke="#000000" stroke-width="1" x1="343" y1="727" x2="343" y2="0"/>
<line opacity="0.1" stroke="#000000" stroke-width="1" x1="355" y1="727" x2="355" y2="0"/>
<line opacity="0.1" stroke="#000000" stroke-width="1" x1="366" y1="727" x2="366" y2="0"/>
<line opacity="0.1" stroke="#000000" stroke-width="1" x1="377" y1="727" x2="377" y2="0"/>
<line opacity="0.1" stroke="#000000" stroke-width="1" x1="388" y1="727" x2="388" y2="0"/>
<line opacity="0.1" stroke="#000000" stroke-width="1" x1="400" y1="727" x2="400" y2="0"/>
<line opacity="0.1" stroke="#000000" stroke-width="1" x1="411" y1="727" x2="411" y2="0"/>
<line opacity="0.1" stroke="#000000" stroke-width="1" x1="422" y1="727" x2="422" y2="0"/>
<line opacity="0.1" stroke="#000000" stroke-width="1" x1="433" y1="727" x2="433" y2="0"/>
<line opacity="0.1" stroke="#000000" stroke-width="1" x1="445" y1="727" x2="445" y2="0"/>
<line opacity="0.1" stroke="#000000" stroke-width="1" x1="456" y1="727" x2="456" y2="0"/>
<line opacity="0.1" stroke="#000000" stroke-width="1" x1="467" y1="727" x2="467" y2="0"/>
<line opacity="0.1" stroke="#000000" stroke-width="1" x1="478" y1="727" x2="478" y2="0"/>
<line opacity="0.1" stroke="#000000" stroke-width="1" x1="490" y1="727" x2="490" y2="0"/>
<line opacity="0.1" stroke="#000000" stroke-width="1" x1="501" y1="727" x2="501" y2="0"/>
<line opacity="0.1" stroke="#000000" stroke-width="1" x1="512" y1="727" x2="512" y2="0"/>
<line opacity="0.1" stroke="#000000" stroke-width="1" x1="523" y1="727" x2="523" y2="0"/>
<line opacity="0.1" stroke="#000000" stroke-width="1" x1="535" y1="727" x2="535" y2="0"/>
<line opacity="0.1" stroke="#000000" stroke-width="1" x1="546" y1="727" x2="546" y2="0"/>
<line opacity="0.1" stroke="#000000" stroke-width="1" x1="557" y1="727" x2="557" y2="0"/>
<line opacity="0.1" stroke="#000000" stroke-width="1" x1="568" y1="727" x2="568" y2="0"/>
<line opacity="0.1" stroke="#000000" stroke-width="1" x1="580" y1="727" x2="580" y2="0"/>
<line opacity="0.1" stroke="#000000" stroke-width="1" x1="591" y1="727" x2="591" y2="0"/>
<line opacity="0.1" stroke="#000000" stroke-width="1" x1="602" y1="727" x2="602" y2="0"/>
<line opacity="0.1" stroke="#000000" stroke-width="1" x1="613" y1="727" x2="613" y2="0"/>
<line opacity="0.1" stroke="#000000" stroke-width="1" x1="625" y1="727" x2="625" y2="0"/>
<line opacity="0.1" stroke="#000000" stroke-width="1" x1="636" y1="727" x2="636" y2="0"/>
<line opacity="0.1" stroke="#000000" stroke-width="1" x1="647" y1="727" x2="647" y2="0"/>
<line opacity="0.1" stroke="#000000" stroke-width="1" x1="658" y1="727" x2="658" y2="0"/>
<line opacity="0.1" stroke="#000000" stroke-width="1" x1="670" y1="727" x2="670" y2="0"/>
<line opacity="0.1" stroke="#000000" stroke-width="1" x1="681" y1="727" x2="681" y2="0"/>
<line opacity="0.1" stroke="#000000" stroke-width="1" x1="692" y1="727" x2="692" y2="0"/>
<line opacity="0.1" stroke="#000000" stroke-width="1" x1="703" y1="727" x2="703" y2="0"/>
<line opacity="0.1" stroke="#000000" stroke-width="1" x1="715" y1="727" x2="715" y2="0"/>
<line opacity="0.1" stroke="#000000" stroke-width="1" x1="726" y1="727" x2="726" y2="0"/>
<line opacity="0.1" stroke="#000000" stroke-width="1" x1="737" y1="727" x2="737" y2="0"/>
<line opacity="0.1" stroke="#000000" stroke-width="1" x1="748" y1="727" x2="748" y2="0"/>
<line opacity="0.1" stroke="#000000" stroke-width="1" x1="760" y1="727" x2="760" y2="0"/>
<line opacity="0.1" stroke="#000000" stroke-width="1" x1="771" y1="727" x2="771" y2="0"/>
<line opacity="0.1" stroke="#000000" stroke-width="1" x1="782" y1="727" x2="782" y2="0"/>
<line opacity="0.1" stroke="#000000" stroke-width="1" x1="793" y1="727" x2="793" y2="0"/>
<line opacity="0.1" stroke="#000000" stroke-width="1" x1="805" y1="727" x2="805" y2="0"/>
<line opacity="0.1" stroke="#000000" stroke-width="1" x1="816" y1="727" x2="816" y2="0"/>
<line opacity="0.1" stroke="#000000" stroke-width="1" x1="827" y1="727" x2="827" y2="0"/>
<line opacity="0.1" stroke="#000000" stroke-width="1" x1="838" y1="727" x2="838" y2="0"/>
<line opacity="0.1" stroke="#000000" stroke-width="1" x1="850" y1="727" x2="850" y2="0"/>
<line opacity="0.1" stroke="#000000" stroke-width="1" x1="861" y1="727" x2="861" y2="0"/>
<line opacity="0.1" stroke="#000000" stroke-width="1" x1="872" y1="727" x2="872" y2="0"/>
<line opacity="0.1" stroke="#000000" stroke-width="1" x1="884" y1="727" x2="884" y2="0"/>
<line opacity="0.1" stroke="#000000" stroke-width="1" x1="895" y1="727" x2="895" y2="0"/>
<line opacity="0.1" stroke="#000000" stroke-width="1" x1="906" y1="727" x2="906" y2="0"/>
<line opacity="0.1" stroke="#000000" stroke-width="1" x1="917" y1="727" x2="917" y2="0"/>
<line opacity="0.1" stroke="#000000" stroke-width="1" x1="929" y1="727" x2="929" y2="0"/>
<line opacity="0.1" stroke="#000000" stroke-width="1" x1="940" y1="727" x2="940" y2="0"/>
<line opacity="0.1" stroke="#000000" stroke-width="1" x1="951" y1="727" x2="951" y2="0"/>
<line opacity="0.1" stroke="#000000" stroke-width="1" x1="962" y1="727" x2="962" y2="0"/>
<line opacity="0.1" stroke="#000000" stroke-width="1" x1="974" y1="727" x2="974" y2="0"/>
<line opacity="0.1" stroke="#000000" stroke-width="1" x1="985" y1="727" x2="985" y2="0"/>
<line opacity="0.1" stroke="#000000" stroke-width="1" x1="996" y1="727" x2="996" y2="0"/>
<line opacity="0.1" stroke="#000000" stroke-width="1" x1="1007" y1="727" x2="1007" y2="0"/>
<line opacity="0.1" stroke="#000000" stroke-width="1" x1="1019" y1="727" x2="1019" y2="0"/>
<line opacity="0.1" stroke="#000000" stroke-width="1" x1="40" y1="727" x2="1023" y2="727"/>
<line opacity="0.1" stroke="#000000" stroke-width="1" x1="40" y1="721" x2="1023" y2="721"/>
<line opacity="0.1" stroke="#000000" stroke-width="1" x1="40" y1="714" x2="1023" y2="714"/>
<line opacity="0.1" stroke="#000000" stroke-width="1" x1="40" y1="707" x2="1023" y2="707"/>
<line opacity="0.1" stroke="#000000" stroke-width="1" x1="40" y1="700" x2="1023" y2="700"/>
<line opacity="0.1" stroke="#000000" stroke-width="1" x1="40" y1="693" x2="1023" y2="693"/>
<line opacity="0.1" stroke="#000000" stroke-width="1" x1="40" y1="686" x2="1023" y2="686"/>
<line opacity="0.1" stroke="#000000" stroke-width="1" x1="40" y1="679" x2="1023" y2="679"/>
<line opacity="0.1" stroke="#000000" stroke-width="1" x1="40" y1="672" x2="1023" y2="672"/>
<line opacity="0.1" stroke="#000000" stroke-width="1" x1="40" y1="665" x2="1023" y2="665"/>
<line opacity="0.1" stroke="#000000" stroke-width="1" x1="40" y1="658" x2="1023" y2="658"/>
<line opacity="0.1" stroke="#000000" stroke-width="1" x1="40" y1="651" x2="1023" y2="651"/>
<line opacity="0.1" stroke="#000000" stroke-width="1" x1="40" y1="644" x2="1023" y2="644"/>
<line opacity="0.1" stroke="#000000" stroke-width="1" x1="40" y1="637" x2="1023" y2="637"/>
<line opacity="0.1" stroke="#000000" stroke-width="1" x1="40" y1="631" x2="1023" y2="631"/>
<line opacity="0.1" stroke="#000000" stroke-width="1" x1="40" y1="624" x2="1023" y2="624"/>
<line opacity="0.1" stroke="#000000" stroke-width="1" x1="40" y1="617" x2="1023" y2="617"/>
<line opacity="0.1" stroke="#000000" stroke-width="1" x1="40" y1="610" x2="1023" y2="610"/>
<line opacity="0.1" stroke="#000000" stroke-width="1" x1="40" y1="603" x2="1023" y2="603"/>
<line opacity="0.1" stroke="#000000" stroke-width="1" x1="40" y1="596" x2="1023" y2="596"/>
<line opacity="0.1" stroke="#000000" stroke-width="1" x1="40" y1="589" x2="1023" y2="589"/>
<line opacity="0.1" stroke="#000000" stroke-width="1" x1="40" y1="582" x2="1023" y2="582"/>
<line opacity="0.1" stroke="#000000" stroke-width="1" x1="40" y1="575" x2="1023" y2="575"/>
<line opacity="0.1" stroke="#000000" stroke-width="1" x1="40" y1="568" x2="1023" y2="568"/>
<line opacity="0.1" stroke="#000000" stroke-width="1" x1="40" y1="561" x2="1023" y2="561"/>
<line opacity="0.1" stroke="#000000" stroke-width="1" x1="40" y1="554" x2="1023" y2="554"/>
<line opacity="0.1" stroke="#000000" stroke-width="1" x1="40" y1="547" x2="1023" y2="547"/>
<line opacity="0.1" stroke="#000000" stroke-width="1" x1="40" y1="541" x2="1023" y2="541"/>
<line opacity="0.1" stroke="#000000" stroke-width="1" x1="40" y1="534" x2="1023" y2="534"/>
<line opacity="0.1" stroke="#000000" stroke-width="1" x1="40" y1="527" x2="1023" y2="527"/>
<line opacity="0.1" stroke="#000000" stroke-width="1" x1="40" y1="520" x2="1023" y2="520"/>
<line opacity="0.1" stroke="#000000" stroke-width="1" x1="40" y1="513" x2="1023" y2="513"/>
<line opacity="0.1" stroke="#000000" stroke-width="1" x1="40" y1="506" x2="1023" y2="506"/>
<line opacity="0.1" stroke="#000000" stroke-width="1" x1="40" y1="499" x2="1023" y2="499"/>
<line opacity="0.1" stroke="#000000" stroke-width="1" x1="40" y1="492" x2="1023" y2="492"/>
<line opacity="0.1" stroke="#000000" stroke-width="1" x1="40" y1="485" x2="1023" y2="485"/>
<line opacity="0.1" stroke="#000000" stroke-width="1" x1="40" y1="478" x2="1023" y2="478"/>
<line opacity="0.1" stroke="#000000" stroke-width="1" x1="40" y1="471" x2="1023" y2="471"/>
<line opacity="0.1" stroke="#000000" stroke-width="1" x1="40" y1="464" x2="1023" y2="464"/>
<line opacity="0.1" stroke="#000000" stroke-width="1" x1="40" y1="457" x2="1023" y2="457"/>
<line opacity="0.1" stroke="#000000" stroke-width="1" x1="40" y1="451" x2="1023" y2="451"/>
<line opacity="0.1" stroke="#000000" stroke-width="1" x1="40" y1="444" x2="1023" y2="444"/>
<line opacity="0.1" stroke="#000000" stroke-width="1" x1="40" y1="437" x2="1023" y2="437"/>
<line opacity="0.1" stroke="#000000" stroke-width="1" x1="40" y1="430" x2="1023" y2="430"/>
<line opacity="0.1" stroke="#000000" stroke-width="1" x1="40" y1="423" x2="1023" y2="423"/>
<line opacity="0.1" stroke="#000000" stroke-width="1" x1="40" y1="416" x2="1023" y2="416"/>
<line opacity="0.1" stroke="#000000" stroke-width="1" x1="40" y1="409" x2="1023" y2="409"/>
<line opacity="0.1" stroke="#000000" stroke-width="1" x1="40" y1="402" x2="1023" y2="402"/>
<line opacity="0.1" stroke="#000000" stroke-width="1" x1="40" y1="395" x2="1023" y2="395"/>
<line opacity="0.1" stroke="#000000" stroke-width="1" x1="40" y1="388" x2="1023" y2="388"/>
<line opacity="0.1" stroke="#000000" stroke-width="1" x1="40" y1="381" x2="1023" y2="381"/>
<line opacity="0.1" stroke="#000000" stroke-width="1" x1="40" y1="374" x2="1023" y2="374"/>
<line opacity="0.1" stroke="#000000" stroke-width="1" x1="40" y1="367" x2="1023" y2="367"/>
<line opacity="0.1" stroke="#000000" stroke-width="1" x1="40" y1="361" x2="1023" y2="361"/>
<line opacity="0.1" stroke="#000000" stroke-width="1" x1="40" y1="354" x2="1023" y2="354"/>
<line opacity="0.1" stroke="#000000" stroke-width="1" x1="40" y1="347" x2="1023" y2="347"/>
<line opacity="0.1" stroke="#000000" stroke-width="1" x1="40" y1="340" x2="1023" y2="340"/>
<line opacity="0.1" stroke="#000000" stroke-width="1" x1="40" y1="333" x2="1023" y2="333"/>
<line opacity="0.1" stroke="#000000" stroke-width="1" x1="40" y1="326" x2="1023" y2="326"/>
<line opacity="0.1" stroke="#000000" stroke-width="1" x1="40" y1="319" x2="1023" y2="319"/>
<line opacity="0.1" stroke="#000000" stroke-width="1" x1="40" y1="312" x2="1023" y2="312"/>
<line opacity="0.1" stroke="#000000" stroke-width="1" x1="40" y1="305" x2="1023" y2="305"/>
<line opacity="0.1" stroke="#000000" stroke-width="1" x1="40" y1="298" x2="1023" y2="298"/>
<line opacity="0.1" stroke="#000000" stroke-width="1" x1="40" y1="291" x2="1023" y2="291"/>
<line opacity="0.1" stroke="#000000" stroke-width="1" x1="40" y1="284" x2="1023" y2="284"/>
<line opacity="0.1" stroke="#000000" stroke-width="1" x1="40" y1="277" x2="1023" y2="277"/>
<line opacity="0.1" stroke="#000000" stroke-width="1" x1="40" y1="271" x2="1023" y2="271"/>
<line opacity="0.1" stroke="#000000" stroke-width="1" x1="40" y1="264" x2="1023" y2="264"/>
<line opacity="0.1" stroke="#000000" stroke-width="1" x1="40" y1="257" x2="1023" y2="257"/>
<line opacity="0.1" stroke="#000000" stroke-width="1" x1="40" y1="250" x2="1023" y2="250"/>
<line opacity="0.1" stroke="#000000" stroke-width="1" x1="40" y1="243" x2="1023" y2="243"/>
<line opacity="0.1" stroke="#000000" stroke-width="1" x1="40" y1="236" x2="1023" y2="236"/>
<line opacity="0.1" stroke="#000000" stroke-width="1" x1="40" y1="229" x2="1023" y2="229"/>
<line opacity="0.1" stroke="#000000" stroke-width="1" x1="40" y1="222" x2="1023" y2="222"/>
<line opacity="0.1" stroke="#000000" stroke-width="1" x1="40" y1="215" x2="1023" y2="215"/>
<line opacity="0.1" stroke="#000000" stroke-width="1" x1="40" y1="208" x2="1023" y2="208"/>
<line opacity="0.1" stroke="#000000" stroke-width="1" x1="40" y1="201" x2="1023" y2="201"/>
<line opacity="0.1" stroke="#000000" stroke-width="1" x1="40" y1="194" x2="1023" y2="194"/>
<line opacity="0.1" stroke="#000000" stroke-width="1" x1="40" y1="187" x2="1023" y2="187"/>
<line opacity="0.1" stroke="#000000" stroke-width="1" x1="40" y1="181" x2="1023" y2="181"/>
<line opacity="0.1" stroke="#000000" stroke-width="1" x1="40" y1="174" x2="1023" y2="174"/>
<line opacity="0.1" stroke="#000000" stroke-width="1" x1="40" y1="167" x2="1023" y2="167"/>
<line opacity="0.1" stroke="#000000" stroke-width="1" x1="40" y1="160" x2="1023" y2="160"/>
<line opacity="0.1" stroke="#000000" stroke-width="1" x1="40" y1="153" x2="1023" y2="153"/>
<line opacity="0.1" stroke="#000000" stroke-width="1" x1="40" y1="146" x2="1023" y2="146"/>
<line opacity="0.1" stroke="#000000" stroke-width="1" x1="40" y1="139" x2="1023" y2="139"/>
<line opacity="0.1" stroke="#000000" stroke-width="1" x1="40" y1="132" x2="1023" y2="132"/>
<line opacity="0.1" stroke="#000000" stroke-width="1" x1="40" y1="125" x2="1023" y2="125"/>
<line opacity="0.1" stroke="#000000" stroke-width="1" x1="40" y1="118" x2="1023" y2="118"/>
<line opacity="0.1" stroke="#000000" stroke-width="1" x1="40" y1="111" x2="1023" y2="111"/>
<line opacity="0.1" stroke="#000000" stroke-width="1" x1="40" y1="104" x2="1023" y2="104"/>
<line opacity="0.1" stroke="#000000" stroke-width="1" x1="40" y1="97" x2="1023" y2="97"/>
<line opacity="0.1" stroke="#000000" stroke-width="1" x1="40" y1="91" x2="1023" y2="91"/>
<line opacity="0.1" stroke="#000000" stroke-width="1" x1="40" y1="84" x2="1023" y2="84"/>
<line opacity="0.1" stroke="#000000" stroke-width="1" x1="40" y1="77" x2="1023" y2="77"/>
<line opacity="0.1" stroke="#000000" stroke-width="1" x1="40" y1="70" x2="1023" y2="70"/>
<line opacity="0.1" stroke="#000000" stroke-width="1" x1="40" y1="63" x2="1023" y2="63"/>
<line opacity="0.1" stroke="#000000" stroke-width="1" x1="40" y1="56" x2="1023" y2="56"/>
<line opacity="0.1" stroke="#000000" stroke-width="1" x1="40" y1="49" x2="1023" y2="49"/>
<line opacity="0.1" stroke="#000000" stroke-width="1" x1="40" y1="42" x2="1023" y2="42"/>
<line opacity="0.1" stroke="#000000" stroke-width="1" x1="40" y1="35" x2="1023" y2="35"/>
<line opacity="0.1" stroke="#000000" stroke-width="1" x1="40" y1="28" x2="1023" y2="28"/>
<line opacity="0.1" stroke="#000000" stroke-width="1" x1="40" y1="21" x2="1023" y2="21"/>
<line opacity="0.1" stroke="#000000" stroke-width="1" x1="40" y1="14" x2="1023" y2="14"/>
<line opacity="0.1" stroke="#000000" stroke-width="1" x1="40" y1="7" x2="1023" y2="7"/>
<line opacity="0.2" stroke="#000000" stroke-width="1" x1="40" y1="727" x2="40" y2="0"/>
<line opacity="0.2" stroke="#000000" stroke-width="1" x1="152" y1="727" x2="152" y2="0"/>
<line opacity="0.2" stroke="#000000" stroke-width="1" x1="265" y1="727" x2="265" y2="0"/>
<line opacity="0.2" stroke="#000000" stroke-width="1" x1="377" y1="727" x2="377" y2="0"/>
<line opacity="0.2" stroke="#000000" stroke-width="1" x1="490" y1="727" x2="490" y2="0"/>
<line opacity="0.2" stroke="#000000" stroke-width="1" x1="602" y1="727" x2="602" y2="0"/>
<line opacity="0.2" stroke="#000000" stroke-width="1" x1="715" y1="727" x2="715" y2="0"/>
<line opacity="0.2" stroke="#000000" stroke-width="1" x1="827" y1="727" x2="827" y2="0"/>
<line opacity="0.2" stroke="#000000" stroke-width="1" x1="940" y1="727" x2="940" y2="0"/>
<line opacity="0.2" stroke="#000000" stroke-width="1" x1="40" y1="727" x2="1023" y2="727"/>
<line opacity="0.2" stroke="#000000" stroke-width="1" x1="40" y1="658" x2="1023" y2="658"/>
<line opacity="0.2" stroke="#000000" stroke-width="1" x1="40" y1="589" x2="1023" y2="589"/>
<line opacity="0.2" stroke="#000000" stroke-width="1" x1="40" y1="520" x2="1023" y2="520"/>
<line opacity="0.2" stroke="#000000" stroke-width="1" x1="40" y1="451" x2="1023" y2="451"/>
<line opacity="0.2" stroke="#000000" stroke-width="1" x1="40" y1="381" x2="1023" y2="381"/>
<line opacity="0.2" stroke="#000000" stroke-width="1" x1="40" y1="312" x2="1023" y2="312"/>
<line opacity="0.2" stroke="#000000" stroke-width="1" x1="40" y1="243" x2="1023" y2="243"/>
<line opacity="0.2" stroke="#000000" stroke-width="1" x1="40" y1="174" x2="1023" y2="174"/>
<line opacity="0.2" stroke="#000000" stroke-width="1" x1="40" y1="104" x2="1023" y2="104"/>
<line opacity="0.2" stroke="#000000" stroke-width="1" x1="40" y1="35" x2="1023" y2="35"/>
<polyline fill="none" opacity="1" stroke="#000000" stroke-width="1" points="39,0 39,727 "/>
<text x="30" y="727" dy="0.5ex" text-anchor="end" font-family="sans-serif" font-size="9.67741935483871" opacity="1" fill="#000000">
0.0
</text>
<polyline fill="none" opacity="1" stroke="#000000" stroke-width="1" points="34,727 39,727 "/>
<text x="30" y="658" dy="0.5ex" text-anchor="end" font-family="sans-serif" font-size="9.67741935483871" opacity="1" fill="#000000">
0.1
</text>
<polyline fill="none" opacity="1" stroke="#000000" stroke-width="1" points="34,658 39,658 "/>
<text x="30" y="589" dy="0.5ex" text-anchor="end" font-family="sans-serif" font-size="9.67741935483871" opacity="1" fill="#000000">
0.2
</text>
<polyline fill="none" opacity="1" stroke="#000000" stroke-width="1" points="34,589 39,589 "/>
<text x="30" y="520" dy="0.5ex" text-anchor="end" font-family="sans-serif" font-size="9.67741935483871" opacity="1" fill="#000000">
0.3
</text>
<polyline fill="none" opacity="1" stroke="#000000" stroke-width="1" points="34,520 39,520 "/>
<text x="30" y="451" dy="0.5ex" text-anchor="end" font-family="sans-serif" font-size="9.67741935483871" opacity="1" fill="#000000">
0.4
</text>
<polyline fill="none" opacity="1" stroke="#000000" stroke-width="1" points="34,451 39,451 "/>
<text x="30" y="381" dy="0.5ex" text-anchor="end" font-family="sans-serif" font-size="9.67741935483871" opacity="1" fill="#000000">
0.5
</text>
<polyline fill="none" opacity="1" stroke="#000000" stroke-width="1" points="34,381 39,381 "/>
<text x="30" y="312" dy="0.5ex" text-anchor="end" font-family="sans-serif" font-size="9.67741935483871" opacity="1" fill="#000000">
0.6
</text>
<polyline fill="none" opacity="1" stroke="#000000" stroke-width="1" points="34,312 39,312 "/>
<text x="30" y="243" dy="0.5ex" text-anchor="end" font-family="sans-serif" font-size="9.67741935483871" opacity="1" fill="#000000">
0.7
</text>
<polyline fill="none" opacity="1" stroke="#000000" stroke-width="1" points="34,243 39,243 "/>
<text x="30" y="174" dy="0.5ex" text-anchor="end" font-family="sans-serif" font-size="9.67741935483871" opacity="1" fill="#000000">
0.8
</text>
<polyline fill="none" opacity="1" stroke="#000000" stroke-width="1" points="34,174 39,174 "/>
<text x="30" y="104" dy="0.5ex" text-anchor="end" font-family="sans-serif" font-size="9.67741935483871" opacity="1" fill="#000000">
0.9
</text>
<polyline fill="none" opacity="1" stroke="#000000" stroke-width="1" points="34,104 39,104 "/>
<text x="30" y="35" dy="0.5ex" text-anchor="end" font-family="sans-serif" font-size="9.67741935483871" opacity="1" fill="#000000">
1.0
</text>
<polyline fill="none" opacity="1" stroke="#000000" stroke-width="1" points="34,35 39,35 "/>
<polyline fill="none" opacity="1" stroke="#000000" stroke-width="1" points="40,728 1023,728 "/>
<text x="40" y="738" dy="0.76em" text-anchor="middle" font-family="sans-serif" font-size="9.67741935483871" opacity="1" fill="#000000">
0.0
</text>
<polyline fill="none" opacity="1" stroke="#000000" stroke-width="1" points="40,728 40,733 "/>
<text x="152" y="738" dy="0.76em" text-anchor="middle" font-family="sans-serif" font-size="9.67741935483871" opacity="1" fill="#000000">
10000.0
</text>
<polyline fill="none" opacity="1" stroke="#000000" stroke-width="1" points="152,728 152,733 "/>
<text x="265" y="738" dy="0.76em" text-anchor="middle" font-family="sans-serif" font-size="9.67741935483871" opacity="1" fill="#000000">
20000.0
</text>
<polyline fill="none" opacity="1" stroke="#000000" stroke-width="1" points="265,728 265,733 "/>
<text x="377" y="738" dy="0.76em" text-anchor="middle" font-family="sans-serif" font-size="9.67741935483871" opacity="1" fill="#000000">
30000.0
</text>
<polyline fill="none" opacity="1" stroke="#000000" stroke-width="1" points="377,728 377,733 "/>
<text x="490" y="738" dy="0.76em" text-anchor="middle" font-family="sans-serif" font-size="9.67741935483871" opacity="1" fill="#000000">
40000.0
</text>
<polyline fill="none" opacity="1" stroke="#000000" stroke-width="1" points="490,728 490,733 "/>
<text x="602" y="738" dy="0.76em" text-anchor="middle" font-family="sans-serif" font-size="9.67741935483871" opacity="1" fill="#000000">
50000.0
</text>
<polyline fill="none" opacity="1" stroke="#000000" stroke-width="1" points="602,728 602,733 "/>
<text x="715" y="738" dy="0.76em" text-anchor="middle" font-family="sans-serif" font-size="9.67741935483871" opacity="1" fill="#000000">
60000.0
</text>
<polyline fill="none" opacity="1" stroke="#000000" stroke-width="1" points="715,728 715,733 "/>
<text x="827" y="738" dy="0.76em" text-anchor="middle" font-family="sans-serif" font-size="9.67741935483871" opacity="1" fill="#000000">
70000.0
</text>
<polyline fill="none" opacity="1" stroke="#000000" stroke-width="1" points="827,728 827,733 "/>
<text x="940" y="738" dy="0.76em" text-anchor="middle" font-family="sans-serif" font-size="9.67741935483871" opacity="1" fill="#000000">
80000.0
</text>
<polyline fill="none" opacity="1" stroke="#000000" stroke-width="1" points="940,728 940,733 "/>
<polyline fill="none" opacity="1" stroke="#000000" stroke-width="2" points="574,727 575,724 645,721 699,717 701,714 712,710 716,707 718,703 718,700 719,696 723,693 725,689 734,686 734,682 737,679 737,676 740,672 742,669 743,665 744,662 745,658 746,655 746,651 746,648 747,644 748,641 748,637 748,634 748,631 749,627 749,624 750,620 750,617 751,613 753,610 754,606 755,603 755,599 755,596 756,592 756,589 757,586 757,582 757,579 757,575 758,572 758,568 758,565 758,561 759,558 759,554 759,551 760,547 762,544 762,541 762,537 763,534 763,530 763,527 763,523 763,520 764,516 764,513 766,509 766,506 766,502 767,499 767,496 768,492 768,489 769,485 769,482 770,478 770,475 770,471 770,468 771,464 772,461 772,457 772,454 773,451 773,447 773,444 774,440 774,437 774,433 774,430 775,426 775,423 775,419 775,416 776,412 776,409 776,406 776,402 776,399 776,395 777,392 777,388 777,385 778,381 778,378 779,374 779,371 779,367 779,364 779,361 779,357 779,354 779,350 781,347 781,343 781,340 781,336 781,333 781,329 781,326 782,322 783,319 783,316 783,312 783,309 784,305 784,302 785,298 786,295 786,291 787,288 787,284 788,281 788,277 788,274 789,271 789,267 789,264 790,260 790,257 791,253 791,250 791,246 793,243 793,239 793,236 794,232 795,229 795,226 796,222 796,219 796,215 796,212 797,208 797,205 797,201 797,198 798,194 798,191 800,187 801,184 802,181 802,177 803,174 803,170 804,167 804,163 804,160 806,156 807,153 807,149 807,146 807,142 808,139 809,136 810,132 814,129 814,125 816,122 819,118 823,115 824,111 825,108 827,104 828,101 828,97 830,94 832,91 832,87 837,84 842,80 843,77 846,73 851,70 852,66 852,63 856,59 896,56 910,52 920,49 973,46 999,42 1023,39 "/>
</svg>
