<svg width="1024" height="768" viewBox="0 0 1024 768" xmlns="http://www.w3.org/2000/svg">
<rect x="0" y="0" width="1024" height="768" opacity="1" fill="#FFFFFF" stroke="none"/>
<line opacity="0.1" stroke="#000000" stroke-width="1" x1="40" y1="727" x2="40" y2="0"/>
<line opacity="0.1" stroke="#000000" stroke-width="1" x1="52" y1="727" x2="52" y2="0"/>
<line opacity="0.1" stroke="#000000" stroke-width="1" x1="65" y1="727" x2="65" y2="0"/>
<line opacity="0.1" stroke="#000000" stroke-width="1" x1="78" y1="727" x2="78" y2="0"/>
<line opacity="0.1" stroke="#000000" stroke-width="1" x1="90" y1="727" x2="90" y2="0"/>
<line opacity="0.1" stroke="#000000" stroke-width="1" x1="103" y1="727" x2="103" y2="0"/>
<line opacity="0.1" stroke="#000000" stroke-width="1" x1="116" y1="727" x2="116" y2="0"/>
<line opacity="0.1" stroke="#000000" stroke-width="1" x1="128" y1="727" x2="128" y2="0"/>
<line opacity="0.1" stroke="#000000" stroke-width="1" x1="141" y1="727" x2="141" y2="0"/>
<line opacity="0.1" stroke="#000000" stroke-width="1" x1="154" y1="727" x2="154" y2="0"/>
<line opacity="0.1" stroke="#000000" stroke-width="1" x1="166" y1="727" x2="166" y2="0"/>
<line opacity="0.1" stroke="#000000" stroke-width="1" x1="179" y1="727" x2="179" y2="0"/>
<line opacity="0.1" stroke="#000000" stroke-width="1" x1="192" y1="727" x2="192" y2="0"/>
<line opacity="0.1" stroke="#000000" stroke-width="1" x1="204" y1="727" x2="204" y2="0"/>
<line opacity="0.1" stroke="#000000" stroke-width="1" x1="217" y1="727" x2="217" y2="0"/>
<line opacity="0.1" stroke="#000000" stroke-width="1" x1="230" y1="727" x2="230" y2="0"/>
<line opacity="0.1" stroke="#000000" stroke-width="1" x1="242" y1="727" x2="242" y2="0"/>
<line opacity="0.1" stroke="#000000" stroke-width="1" x1="255" y1="727" x2="255" y2="0"/>
<line opacity="0.1" stroke="#000000" stroke-width="1" x1="268" y1="727" x2="268" y2="0"/>
<line opacity="0.1" stroke="#000000" stroke-width="1" x1="280" y1="727" x2="280" y2="0"/>
<line opacity="0.1" stroke="#000000" stroke-width="1" x1="293" y1="727" x2="293" y2="0"/>
<line opacity="0.1" stroke="#000000" stroke-width="1" x1="306" y1="727" x2="306" y2="0"/>
<line opacity="0.1" stroke="#000000" stroke-width="1" x1="318" y1="727" x2="318" y2="0"/>
<line opacity="0.1" stroke="#000000" stroke-width="1" x1="331" y1="727" x2="331" y2="0"/>
<line opacity="0.1" stroke="#000000" stroke-width="1" x1="344" y1="727" x2="344" y2="0"/>
<line opacity="0.1" stroke="#000000" stroke-width="1" x1="357" y1="727" x2="357" y2="0"/>
<line opacity="0.1" stroke="#000000" stroke-width="1" x1="369" y1="727" x2="369" y2="0"/>
<line opacity="0.1" stroke="#000000" stroke-width="1" x1="382" y1="727" x2="382" y2="0"/>
<line opacity="0.1" stroke="#000000" stroke-width="1" x1="395" y1="727" x2="395" y2="0"/>
<line opacity="0.1" stroke="#000000" stroke-width="1" x1="407" y1="727" x2="407" y2="0"/>
<line opacity="0.1" stroke="#000000" stroke-width="1" x1="420" y1="727" x2="420" y2="0"/>
<line opacity="0.1" stroke="#000000" stroke-width="1" x1="433" y1="727" x2="433" y2="0"/>
<line opacity="0.1" stroke="#000000" stroke-width="1" x1="445" y1="727" x2="445" y2="0"/>
<line opacity="0.1" stroke="#000000" stroke-width="1" x1="458" y1="727" x2="458" y2="0"/>
<line opacity="0.1" stroke="#000000" stroke-width="1" x1="471" y1="727" x2="471" y2="0"/>
<line opacity="0.1" stroke="#000000" stroke-width="1" x1="483" y1="727" x2="483" y2="0"/>
<line opacity="0.1" stroke="#000000" stroke-width="1" x1="496" y1="727" x2="496" y2="0"/>
<line opacity="0.1" stroke="#000000" stroke-width="1" x1="509" y1="727" x2="509" y2="0"/>
<line opacity="0.1" stroke="#000000" stroke-width="1" x1="521" y1="727" x2="521" y2="0"/>
<line opacity="0.1" stroke="#000000" stroke-width="1" x1="534" y1="727" x2="534" y2="0"/>
<line opacity="0.1" stroke="#000000" stroke-width="1" x1="547" y1="727" x2="547" y2="0"/>
<line opacity="0.1" stroke="#000000" stroke-width="1" x1="559" y1="727" x2="559" y2="0"/>
<line opacity="0.1" stroke="#000000" stroke-width="1" x1="572" y1="727" x2="572" y2="0"/>
<line opacity="0.1" stroke="#000000" stroke-width="1" x1="585" y1="727" x2="585" y2="0"/>
<line opacity="0.1" stroke="#000000" stroke-width="1" x1="597" y1="727" x2="597" y2="0"/>
<line opacity="0.1" stroke="#000000" stroke-width="1" x1="610" y1="727" x2="610" y2="0"/>
<line opacity="0.1" stroke="#000000" stroke-width="1" x1="623" y1="727" x2="623" y2="0"/>
<line opacity="0.1" stroke="#000000" stroke-width="1" x1="636" y1="727" x2="636" y2="0"/>
<line opacity="0.1" stroke="#000000" stroke-width="1" x1="648" y1="727" x2="648" y2="0"/>
<line opacity="0.1" stroke="#000000" stroke-width="1" x1="661" y1="727" x2="661" y2="0"/>
<line opacity="0.1" stroke="#000000" stroke-width="1" x1="674" y1="727" x2="674" y2="0"/>
<line opacity="0.1" stroke="#000000" stroke-width="1" x1="686" y1="727" x2="686" y2="0"/>
<line opacity="0.1" stroke="#000000" stroke-width="1" x1="699" y1="727" x2="699" y2="0"/>
<line opacity="0.1" stroke="#000000" stroke-width="1" x1="712" y1="727" x2="712" y2="0"/>
<line opacity="0.1" stroke="#000000" stroke-width="1" x1="724" y1="727" x2="724" y2="0"/>
<line opacity="0.1" stroke="#000000" stroke-width="1" x1="737" y1="727" x2="737" y2="0"/>
<line opacity="0.1" stroke="#000000" stroke-width="1" x1="750" y1="727" x2="750" y2="0"/>
<line opacity="0.1" stroke="#000000" stroke-width="1" x1="762" y1="727" x2="762" y2="0"/>
<line opacity="0.1" stroke="#000000" stroke-width="1" x1="775" y1="727" x2="775" y2="0"/>
<line opacity="0.1" stroke="#000000" stroke-width="1" x1="788" y1="727" x2="788" y2="0"/>
<line opacity="0.1" stroke="#000000" stroke-width="1" x1="800" y1="727" x2="800" y2="0"/>
<line opacity="0.1" stroke="#000000" stroke-width="1" x1="813" y1="727" x2="813" y2="0"/>
<line opacity="0.1" stroke="#000000" stroke-width="1" x1="826" y1="727" x2="826" y2="0"/>
<line opacity="0.1" stroke="#000000" stroke-width="1" x1="838" y1="727" x2="838" y2="0"/>
<line opacity="0.1" stroke="#000000" stroke-width="1" x1="851" y1="727" x2="851" y2="0"/>
<line opacity="0.1" stroke="#000000" stroke-width="1" x1="864" y1="727" x2="864" y2="0"/>
<line opacity="0.1" stroke="#000000" stroke-width="1" x1="876" y1="727" x2="876" y2="0"/>
<line opacity="0.1" stroke="#000000" stroke-width="1" x1="889" y1="727" x2="889" y2="0"/>
<line opacity="0.1" stroke="#000000" stroke-width="1" x1="902" y1="727" x2="902" y2="0"/>
<line opacity="0.1" stroke="#000000" stroke-width="1" x1="915" y1="727" x2="915" y2="0"/>
<line opacity="0.1" stroke="#000000" stroke-width="1" x1="927" y1="727" x2="927" y2="0"/>
<line opacity="0.1" stroke="#000000" stroke-width="1" x1="940" y1="727" x2="940" y2="0"/>
<line opacity="0.1" stroke="#000000" stroke-width="1" x1="953" y1="727" x2="953" y2="0"/>
<line opacity="0.1" stroke="#000000" stroke-width="1" x1="965" y1="727" x2="965" y2="0"/>
<line opacity="0.1" stroke="#000000" stroke-width="1" x1="978" y1="727" x2="978" y2="0"/>
<line opacity="0.1" stroke="#000000" stroke-width="1" x1="991" y1="727" x2="991" y2="0"/>
<line opacity="0.1" stroke="#000000" stroke-width="1" x1="1003" y1="727" x2="1003" y2="0"/>
<line opacity="0.1" stroke="#000000" stroke-width="1" x1="1016" y1="727" x2="1016" y2="0"/>
<line opacity="0.1" stroke="#000000" stroke-width="1" x1="40" y1="727" x2="1023" y2="727"/>
<line opacity="0.1" stroke="#000000" stroke-width="1" x1="40" y1="721" x2="1023" y2="721"/>
<line opacity="0.1" stroke="#000000" stroke-width="1" x1="40" y1="714" x2="1023" y2="714"/>
<line opacity="0.1" stroke="#000000" stroke-width="1" x1="40" y1="707" x2="1023" y2="707"/>
<line opacity="0.1" stroke="#000000" stroke-width="1" x1="40" y1="700" x2="1023" y2="700"/>
<line opacity="0.1" stroke="#000000" stroke-width="1" x1="40" y1="693" x2="1023" y2="693"/>
<line opacity="0.1" stroke="#000000" stroke-width="1" x1="40" y1="686" x2="1023" y2="686"/>
<line opacity="0.1" stroke="#000000" stroke-width="1" x1="40" y1="679" x2="1023" y2="679"/>
<line opacity="0.1" stroke="#000000" stroke-width="1" x1="40" y1="672" x2="1023" y2="672"/>
<line opacity="0.1" stroke="#000000" stroke-width="1" x1="40" y1="665" x2="1023" y2="665"/>
<line opacity="0.1" stroke="#000000" stroke-width="1" x1="40" y1="658" x2="1023" y2="658"/>
<line opacity="0.1" stroke="#000000" stroke-width="1" x1="40" y1="651" x2="1023" y2="651"/>
<line opacity="0.1" stroke="#000000" stroke-width="1" x1="40" y1="644" x2="1023" y2="644"/>
<line opacity="0.1" stroke="#000000" stroke-width="1" x1="40" y1="637" x2="1023" y2="637"/>
<line opacity="0.1" stroke="#000000" stroke-width="1" x1="40" y1="631" x2="1023" y2="631"/>
<line opacity="0.1" stroke="#000000" stroke-width="1" x1="40" y1="624" x2="1023" y2="624"/>
<line opacity="0.1" stroke="#000000" stroke-width="1" x1="40" y1="617" x2="1023" y2="617"/>
<line opacity="0.1" stroke="#000000" stroke-width="1" x1="40" y1="610" x2="1023" y2="610"/>
<line opacity="0.1" stroke="#000000" stroke-width="1" x1="40" y1="603" x2="1023" y2="603"/>
<line opacity="0.1" stroke="#000000" stroke-width="1" x1="40" y1="596" x2="1023" y2="596"/>
<line opacity="0.1" stroke="#000000" stroke-width="1" x1="40" y1="589" x2="1023" y2="589"/>
<line opacity="0.1" stroke="#000000" stroke-width="1" x1="40" y1="582" x2="1023" y2="582"/>
<line opacity="0.1" stroke="#000000" stroke-width="1" x1="40" y1="575" x2="1023" y2="575"/>
<line opacity="0.1" stroke="#000000" stroke-width="1" x1="40" y1="568" x2="1023" y2="568"/>
<line opacity="0.1" stroke="#000000" stroke-width="1" x1="40" y1="561" x2="1023" y2="561"/>
<line opacity="0.1" stroke="#000000" stroke-width="1" x1="40" y1="554" x2="1023" y2="554"/>
<line opacity="0.1" stroke="#000000" stroke-width="1" x1="40" y1="547" x2="1023" y2="547"/>
<line opacity="0.1" stroke="#000000" stroke-width="1" x1="40" y1="541" x2="1023" y2="541"/>
<line opacity="0.1" stroke="#000000" stroke-width="1" x1="40" y1="534" x2="1023" y2="534"/>
<line opacity="0.1" stroke="#000000" stroke-width="1" x1="40" y1="527" x2="1023" y2="527"/>
<line opacity="0.1" stroke="#000000" stroke-width="1" x1="40" y1="520" x2="1023" y2="520"/>
<line opacity="0.1" stroke="#000000" stroke-width="1" x1="40" y1="513" x2="1023" y2="513"/>
<line opacity="0.1" stroke="#000000" stroke-width="1" x1="40" y1="506" x2="1023" y2="506"/>
<line opacity="0.1" stroke="#000000" stroke-width="1" x1="40" y1="499" x2="1023" y2="499"/>
<line opacity="0.1" stroke="#000000" stroke-width="1" x1="40" y1="492" x2="1023" y2="492"/>
<line opacity="0.1" stroke="#000000" stroke-width="1" x1="40" y1="485" x2="1023" y2="485"/>
<line opacity="0.1" stroke="#000000" stroke-width="1" x1="40" y1="478" x2="1023" y2="478"/>
<line opacity="0.1" stroke="#000000" stroke-width="1" x1="40" y1="471" x2="1023" y2="471"/>
<line opacity="0.1" stroke="#000000" stroke-width="1" x1="40" y1="464" x2="1023" y2="464"/>
<line opacity="0.1" stroke="#000000" stroke-width="1" x1="40" y1="457" x2="1023" y2="457"/>
<line opacity="0.1" stroke="#000000" stroke-width="1" x1="40" y1="451" x2="1023" y2="451"/>
<line opacity="0.1" stroke="#000000" stroke-width="1" x1="40" y1="444" x2="1023" y2="444"/>
<line opacity="0.1" stroke="#000000" stroke-width="1" x1="40" y1="437" x2="1023" y2="437"/>
<line opacity="0.1" stroke="#000000" stroke-width="1" x1="40" y1="430" x2="1023" y2="430"/>
<line opacity="0.1" stroke="#000000" stroke-width="1" x1="40" y1="423" x2="1023" y2="423"/>
<line opacity="0.1" stroke="#000000" stroke-width="1" x1="40" y1="416" x2="1023" y2="416"/>
<line opacity="0.1" stroke="#000000" stroke-width="1" x1="40" y1="409" x2="1023" y2="409"/>
<line opacity="0.1" stroke="#000000" stroke-width="1" x1="40" y1="402" x2="1023" y2="402"/>
<line opacity="0.1" stroke="#000000" stroke-width="1" x1="40" y1="395" x2="1023" y2="395"/>
<line opacity="0.1" stroke="#000000" stroke-width="1" x1="40" y1="388" x2="1023" y2="388"/>
<line opacity="0.1" stroke="#000000" stroke-width="1" x1="40" y1="381" x2="1023" y2="381"/>
<line opacity="0.1" stroke="#000000" stroke-width="1" x1="40" y1="374" x2="1023" y2="374"/>
<line opacity="0.1" stroke="#000000" stroke-width="1" x1="40" y1="367" x2="1023" y2="367"/>
<line opacity="0.1" stroke="#000000" stroke-width="1" x1="40" y1="361" x2="1023" y2="361"/>
<line opacity="0.1" stroke="#000000" stroke-width="1" x1="40" y1="354" x2="1023" y2="354"/>
<line opacity="0.1" stroke="#000000" stroke-width="1" x1="40" y1="347" x2="1023" y2="347"/>
<line opacity="0.1" stroke="#000000" stroke-width="1" x1="40" y1="340" x2="1023" y2="340"/>
<line opacity="0.1" stroke="#000000" stroke-width="1" x1="40" y1="333" x2="1023" y2="333"/>
<line opacity="0.1" stroke="#000000" stroke-width="1" x1="40" y1="326" x2="1023" y2="326"/>
<line opacity="0.1" stroke="#000000" stroke-width="1" x1="40" y1="319" x2="1023" y2="319"/>
<line opacity="0.1" stroke="#000000" stroke-width="1" x1="40" y1="312" x2="1023" y2="312"/>
<line opacity="0.1" stroke="#000000" stroke-width="1" x1="40" y1="305" x2="1023" y2="305"/>
<line opacity="0.1" stroke="#000000" stroke-width="1" x1="40" y1="298" x2="1023" y2="298"/>
<line opacity="0.1" stroke="#000000" stroke-width="1" x1="40" y1="291" x2="1023" y2="291"/>
<line opacity="0.1" stroke="#000000" stroke-width="1" x1="40" y1="284" x2="1023" y2="284"/>
<line opacity="0.1" stroke="#000000" stroke-width="1" x1="40" y1="277" x2="1023" y2="277"/>
<line opacity="0.1" stroke="#000000" stroke-width="1" x1="40" y1="271" x2="1023" y2="271"/>
<line opacity="0.1" stroke="#000000" stroke-width="1" x1="40" y1="264" x2="1023" y2="264"/>
<line opacity="0.1" stroke="#000000" stroke-width="1" x1="40" y1="257" x2="1023" y2="257"/>
<line opacity="0.1" stroke="#000000" stroke-width="1" x1="40" y1="250" x2="1023" y2="250"/>
<line opacity="0.1" stroke="#000000" stroke-width="1" x1="40" y1="243" x2="1023" y2="243"/>
<line opacity="0.1" stroke="#000000" stroke-width="1" x1="40" y1="236" x2="1023" y2="236"/>
<line opacity="0.1" stroke="#000000" stroke-width="1" x1="40" y1="229" x2="1023" y2="229"/>
<line opacity="0.1" stroke="#000000" stroke-width="1" x1="40" y1="222" x2="1023" y2="222"/>
<line opacity="0.1" stroke="#000000" stroke-width="1" x1="40" y1="215" x2="1023" y2="215"/>
<line opacity="0.1" stroke="#000000" stroke-width="1" x1="40" y1="208" x2="1023" y2="208"/>
<line opacity="0.1" stroke="#000000" stroke-width="1" x1="40" y1="201" x2="1023" y2="201"/>
<line opacity="0.1" stroke="#000000" stroke-width="1" x1="40" y1="194" x2="1023" y2="194"/>
<line opacity="0.1" stroke="#000000" stroke-width="1" x1="40" y1="187" x2="1023" y2="187"/>
<line opacity="0.1" stroke="#000000" stroke-width="1" x1="40" y1="181" x2="1023" y2="181"/>
<line opacity="0.1" stroke="#000000" stroke-width="1" x1="40" y1="174" x2="1023" y2="174"/>
<line opacity="0.1" stroke="#000000" stroke-width="1" x1="40" y1="167" x2="1023" y2="167"/>
<line opacity="0.1" stroke="#000000" stroke-width="1" x1="40" y1="160" x2="1023" y2="160"/>
<line opacity="0.1" stroke="#000000" stroke-width="1" x1="40" y1="153" x2="1023" y2="153"/>
<line opacity="0.1" stroke="#000000" stroke-width="1" x1="40" y1="146" x2="1023" y2="146"/>
<line opacity="0.1" stroke="#000000" stroke-width="1" x1="40" y1="139" x2="1023" y2="139"/>
<line opacity="0.1" stroke="#000000" stroke-width="1" x1="40" y1="132" x2="1023" y2="132"/>
<line opacity="0.1" stroke="#000000" stroke-width="1" x1="40" y1="125" x2="1023" y2="125"/>
<line opacity="0.1" stroke="#000000" stroke-width="1" x1="40" y1="118" x2="1023" y2="118"/>
<line opacity="0.1" stroke="#000000" stroke-width="1" x1="40" y1="111" x2="1023" y2="111"/>
<line opacity="0.1" stroke="#000000" stroke-width="1" x1="40" y1="104" x2="1023" y2="104"/>
<line opacity="0.1" stroke="#000000" stroke-width="1" x1="40" y1="97" x2="1023" y2="97"/>
<line opacity="0.1" stroke="#000000" stroke-width="1" x1="40" y1="91" x2="1023" y2="91"/>
<line opacity="0.1" stroke="#000000" stroke-width="1" x1="40" y1="84" x2="1023" y2="84"/>
<line opacity="0.1" stroke="#000000" stroke-width="1" x1="40" y1="77" x2="1023" y2="77"/>
<line opacity="0.1" stroke="#000000" stroke-width="1" x1="40" y1="70" x2="1023" y2="70"/>
<line opacity="0.1" stroke="#000000" stroke-width="1" x1="40" y1="63" x2="1023" y2="63"/>
<line opacity="0.1" stroke="#000000" stroke-width="1" x1="40" y1="56" x2="1023" y2="56"/>
<line opacity="0.1" stroke="#000000" stroke-width="1" x1="40" y1="49" x2="1023" y2="49"/>
<line opacity="0.1" stroke="#000000" stroke-width="1" x1="40" y1="42" x2="1023" y2="42"/>
<line opacity="0.1" stroke="#000000" stroke-width="1" x1="40" y1="35" x2="1023" y2="35"/>
<line opacity="0.1" stroke="#000000" stroke-width="1" x1="40" y1="28" x2="1023" y2="28"/>
<line opacity="0.1" stroke="#000000" stroke-width="1" x1="40" y1="21" x2="1023" y2="21"/>
<line opacity="0.1" stroke="#000000" stroke-width="1" x1="40" y1="14" x2="1023" y2="14"/>
<line opacity="0.1" stroke="#000000" stroke-width="1" x1="40" y1="7" x2="1023" y2="7"/>
<line opacity="0.2" stroke="#000000" stroke-width="1" x1="40" y1="727" x2="40" y2="0"/>
<line opacity="0.2" stroke="#000000" stroke-width="1" x1="166" y1="727" x2="166" y2="0"/>
<line opacity="0.2" stroke="#000000" stroke-width="1" x1="293" y1="727" x2="293" y2="0"/>
<line opacity="0.2" stroke="#000000" stroke-width="1" x1="420" y1="727" x2="420" y2="0"/>
<line opacity="0.2" stroke="#000000" stroke-width="1" x1="547" y1="727" x2="547" y2="0"/>
<line opacity="0.2" stroke="#000000" stroke-width="1" x1="674" y1="727" x2="674" y2="0"/>
<line opacity="0.2" stroke="#000000" stroke-width="1" x1="800" y1="727" x2="800" y2="0"/>
<line opacity="0.2" stroke="#000000" stroke-width="1" x1="927" y1="727" x2="927" y2="0"/>
<line opacity="0.2" stroke="#000000" stroke-width="1" x1="40" y1="727" x2="1023" y2="727"/>
<line opacity="0.2" stroke="#000000" stroke-width="1" x1="40" y1="658" x2="1023" y2="658"/>
<line opacity="0.2" stroke="#000000" stroke-width="1" x1="40" y1="589" x2="1023" y2="589"/>
<line opacity="0.2" stroke="#000000" stroke-width="1" x1="40" y1="520" x2="1023" y2="520"/>
<line opacity="0.2" stroke="#000000" stroke-width="1" x1="40" y1="451" x2="1023" y2="451"/>
<line opacity="0.2" stroke="#000000" stroke-width="1" x1="40" y1="381" x2="1023" y2="381"/>
<line opacity="0.2" stroke="#000000" stroke-width="1" x1="40" y1="312" x2="1023" y2="312"/>
<line opacity="0.2" stroke="#000000" stroke-width="1" x1="40" y1="243" x2="1023" y2="243"/>
<line opacity="0.2" stroke="#000000" stroke-width="1" x1="40" y1="174" x2="1023" y2="174"/>
<line opacity="0.2" stroke="#000000" stroke-width="1" x1="40" y1="104" x2="1023" y2="104"/>
<line opacity="0.2" stroke="#000000" stroke-width="1" x1="40" y1="35" x2="1023" y2="35"/>
<polyline fill="none" opacity="1" stroke="#000000" stroke-width="1" points="39,0 39,727 "/>
<text x="30" y="727" dy="0.5ex" text-anchor="end" font-family="sans-serif" font-size="9.67741935483871" opacity="1" fill="#000000">
0.0
</text>
<polyline fill="none" opacity="1" stroke="#000000" stroke-width="1" points="34,727 39,727 "/>
<text x="30" y="658" dy="0.5ex" text-anchor="end" font-family="sans-serif" font-size="9.67741935483871" opacity="1" fill="#000000">
0.1
</text>
<polyline fill="none" opacity="1" stroke="#000000" stroke-width="1" points="34,658 39,658 "/>
<text x="30" y="589" dy="0.5ex" text-anchor="end" font-family="sans-serif" font-size="9.67741935483871" opacity="1" fill="#000000">
0.2
</text>
<polyline fill="none" opacity="1" stroke="#000000" stroke-width="1" points="34,589 39,589 "/>
<text x="30" y="520" dy="0.5ex" text-anchor="end" font-family="sans-serif" font-size="9.67741935483871" opacity="1" fill="#000000">
0.3
</text>
<polyline fill="none" opacity="1" stroke="#000000" stroke-width="1" points="34,520 39,520 "/>
<text x="30" y="451" dy="0.5ex" text-anchor="end" font-family="sans-serif" font-size="9.67741935483871" opacity="1" fill="#000000">
0.4
</text>
<polyline fill="none" opacity="1" stroke="#000000" stroke-width="1" points="34,451 39,451 "/>
<text x="30" y="381" dy="0.5ex" text-anchor="end" font-family="sans-serif" font-size="9.67741935483871" opacity="1" fill="#000000">
0.5
</text>
<polyline fill="none" opacity="1" stroke="#000000" stroke-width="1" points="34,381 39,381 "/>
<text x="30" y="312" dy="0.5ex" text-anchor="end" font-family="sans-serif" font-size="9.67741935483871" opacity="1" fill="#000000">
0.6
</text>
<polyline fill="none" opacity="1" stroke="#000000" stroke-width="1" points="34,312 39,312 "/>
<text x="30" y="243" dy="0.5ex" text-anchor="end" font-family="sans-serif" font-size="9.67741935483871" opacity="1" fill="#000000">
0.7
</text>
<polyline fill="none" opacity="1" stroke="#000000" stroke-width="1" points="34,243 39,243 "/>
<text x="30" y="174" dy="0.5ex" text-anchor="end" font-family="sans-serif" font-size="9.67741935483871" opacity="1" fill="#000000">
0.8
</text>
<polyline fill="none" opacity="1" stroke="#000000" stroke-width="1" points="34,174 39,174 "/>
<text x="30" y="104" dy="0.5ex" text-anchor="end" font-family="sans-serif" font-size="9.67741935483871" opacity="1" fill="#000000">
0.9
</text>
<polyline fill="none" opacity="1" stroke="#000000" stroke-width="1" points="34,104 39,104 "/>
<text x="30" y="35" dy="0.5ex" text-anchor="end" font-family="sans-serif" font-size="9.67741935483871" opacity="1" fill="#000000">
1.0
</text>
<polyline fill="none" opacity="1" stroke="#000000" stroke-width="1" points="34,35 39,35 "/>
<polyline fill="none" opacity="1" stroke="#000000" stroke-width="1" points="40,728 1023,728 "/>
<text x="40" y="738" dy="0.76em" text-anchor="middle" font-family="sans-serif" font-size="9.67741935483871" opacity="1" fill="#000000">
0.0
</text>
<polyline fill="none" opacity="1" stroke="#000000" stroke-width="1" points="40,728 40,733 "/>
<text x="166" y="738" dy="0.76em" text-anchor="middle" font-family="sans-serif" font-size="9.67741935483871" opacity="1" fill="#000000">
10000.0
</text>
<polyline fill="none" opacity="1" stroke="#000000" stroke-width="1" points="166,728 166,733 "/>
<text x="293" y="738" dy="0.76em" text-anchor="middle" font-family="sans-serif" font-size="9.67741935483871" opacity="1" fill="#000000">
20000.0
</text>
<polyline fill="none" opacity="1" stroke="#000000" stroke-width="1" points="293,728 293,733 "/>
<text x="420" y="738" dy="0.76em" text-anchor="middle" font-family="sans-serif" font-size="9.67741935483871" opacity="1" fill="#000000">
30000.0
</text>
<polyline fill="none" opacity="1" stroke="#000000" stroke-width="1" points="420,728 420,733 "/>
<text x="547" y="738" dy="0.76em" text-anchor="middle" font-family="sans-serif" font-size="9.67741935483871" opacity="1" fill="#000000">
40000.0
</text>
<polyline fill="none" opacity="1" stroke="#000000" stroke-width="1" points="547,728 547,733 "/>
<text x="674" y="738" dy="0.76em" text-anchor="middle" font-family="sans-serif" font-size="9.67741935483871" opacity="1" fill="#000000">
50000.0
</text>
<polyline fill="none" opacity="1" stroke="#000000" stroke-width="1" points="674,728 674,733 "/>
<text x="800" y="738" dy="0.76em" text-anchor="middle" font-family="sans-serif" font-size="9.67741935483871" opacity="1" fill="#000000">
60000.0
</text>
<polyline fill="none" opacity="1" stroke="#000000" stroke-width="1" points="800,728 800,733 "/>
<text x="927" y="738" dy="0.76em" text-anchor="middle" font-family="sans-serif" font-size="9.67741935483871" opacity="1" fill="#000000">
70000.0
</text>
<polyline fill="none" opacity="1" stroke="#000000" stroke-width="1" points="927,728 927,733 "/>
<polyline fill="none" opacity="1" stroke="#000000" stroke-width="2" points="299,727 564,724 630,721 633,717 670,714 735,710 740,707 774,703 775,700 786,696 790,693 797,689 799,686 800,682 804,679 804,676 809,672 811,669 812,665 813,662 814,658 814,655 816,651 819,648 819,644 821,641 824,637 824,634 824,631 827,627 827,624 828,620 828,617 830,613 831,610 831,606 833,603 834,599 834,596 835,592 835,589 838,586 838,582 839,579 840,575 840,572 840,568 841,565 842,561 842,558 842,554 843,551 843,547 843,544 845,541 847,537 847,534 849,530 850,527 850,523 850,520 850,516 850,513 850,509 850,506 850,502 851,499 852,496 853,492 854,489 854,485 854,482 854,478 855,475 856,471 856,468 856,464 857,461 858,457 858,454 858,451 858,447 859,444 859,440 859,437 860,433 860,430 860,426 860,423 861,419 861,416 861,412 862,409 863,406 863,402 863,399 863,395 864,392 865,388 865,385 867,381 867,378 868,374 869,371 869,367 870,364 870,361 871,357 872,354 872,350 873,347 873,343 875,340 875,336 875,333 876,329 877,326 877,322 877,319 878,316 878,312 878,309 878,305 879,302 879,298 880,295 880,291 881,288 881,284 881,281 881,277 881,274 882,271 884,267 884,264 884,260 885,257 885,253 885,250 886,246 887,243 887,239 888,236 888,232 889,229 890,226 890,222 891,219 892,215 892,212 892,208 893,205 893,201 894,198 894,194 894,191 895,187 896,184 896,181 904,177 905,174 907,170 907,167 908,163 908,160 909,156 912,153 912,149 913,146 913,142 914,139 915,136 916,132 917,129 918,125 919,122 920,118 924,115 925,111 925,108 926,104 927,101 928,97 929,94 931,91 935,87 937,84 939,80 946,77 947,73 947,70 948,66 955,63 957,59 966,56 975,52 981,49 991,46 1001,42 1023,39 "/>
</svg>
